<?xml version="1.0" encoding="UTF-8"?>
<svg width="99px" height="99px" viewBox="0 0 99 99" version="1.1" xmlns="http://www.w3.org/2000/svg" xmlns:xlink="http://www.w3.org/1999/xlink">
    <!-- Generator: Sketch 48.2 (47327) - http://www.bohemiancoding.com/sketch -->
    <title>Automacao</title>
    <desc>Created with Sketch.</desc>
    <defs>
        <linearGradient x1="0%" y1="0%" x2="100%" y2="100%" id="linearGradient-1">
            <stop stop-color="#00B7FF" offset="0%"></stop>
            <stop stop-color="#005DFF" offset="100%"></stop>
        </linearGradient>
    </defs>
    <g id="Symbols" stroke="none" stroke-width="1" fill="none" fill-rule="evenodd">
        <g id="Automacao">
            <g id="automacao">
                <path d="M37.1280173,49.3959868 C37.1280173,42.7003621 42.5591585,37.2552349 49.2375852,37.2552349 C55.9160119,37.2552349 61.3471531,42.7003621 61.3471531,49.3959868 C61.3471531,56.0916115 55.9160119,61.5367387 49.2375852,61.5367387 C42.5591585,61.5367387 37.1280173,56.0916115 37.1280173,49.3959868 Z M68.7254668,34.0131347 L64.5850096,29.8620151 C63.804966,29.0799628 62.5386371,29.0783344 61.7565848,29.858378 C61.7550793,29.8598796 61.7535762,29.8613836 61.7520755,29.86289 L59.1830296,32.4417354 C57.626437,31.5182151 55.9516222,30.8070552 54.1635111,30.3428257 L54.1635111,26.702932 C54.1635111,25.5983625 53.2680806,24.702932 52.1635111,24.702932 L46.3116593,24.702932 C45.2070898,24.702932 44.3116593,25.5983625 44.3116593,26.702932 L44.3116593,30.3428257 C42.5235481,30.8070552 40.8438074,31.5182151 39.2921407,32.4417354 L36.7181717,29.861138 C35.9381281,29.0790857 34.6717992,29.0774573 33.8897469,29.8575008 C33.888533,29.8587117 33.8873206,29.859924 33.8861098,29.861138 L29.7456475,34.0122626 C28.9670221,34.792893 28.9670221,36.0564198 29.7456475,36.8370502 L32.3268815,39.4249313 C31.4057333,40.9805937 30.6964,42.6646601 30.233363,44.4573758 L26.6079556,44.4573758 C25.5033861,44.4573758 24.6079556,45.3528063 24.6079556,46.4573758 L24.6079556,52.3345978 C24.6079556,53.4391673 25.5033861,54.3345978 26.6079556,54.3345978 L30.233363,54.3345978 C30.6964,56.1273135 31.4057333,57.8064413 32.3268815,59.3670423 L29.7456475,61.9549234 C28.9670221,62.7355538 28.9670221,63.9990806 29.7456475,64.779711 L33.8861098,68.9308356 C34.6661534,69.7128879 35.9324823,69.7145163 36.7145346,68.9344728 C36.7157485,68.933262 36.7169609,68.9320496 36.7181717,68.9308356 L39.2921407,66.3502382 C40.8438074,67.2688199 42.5235481,67.9849185 44.3116593,68.4491479 L44.3116593,72.0890416 C44.3116593,73.1936111 45.2070898,74.0890416 46.3116593,74.0890416 L52.1635111,74.0890416 C53.2680806,74.0890416 54.1635111,73.1936111 54.1635111,72.0890416 L54.1635111,68.4491479 C55.9516222,67.9849185 57.626437,67.2737585 59.1830296,66.3502382 L61.7520755,68.9290836 C62.5316359,69.7116175 63.7979636,69.7140281 64.5804975,68.9344677 C64.5820039,68.932967 64.583508,68.931464 64.5850096,68.9299585 L68.7254668,64.7788389 C69.5037517,63.9985498 69.5041417,62.7356958 68.7263389,61.9549262 L66.1482889,59.3670423 C67.0645111,57.8113799 67.7738444,56.1273135 68.2418074,54.3345978 L71.8672148,54.3345978 C72.9717843,54.3345978 73.8672148,53.4391673 73.8672148,52.3345978 L73.8672148,46.4573758 C73.8672148,45.3528063 72.9717843,44.4573758 71.8672148,44.4573758 L68.2418074,44.4573758 C67.7738444,42.6646601 67.0645111,40.9805937 66.1482889,39.4249313 L68.7263389,36.8370474 C69.5041417,36.0562778 69.5037517,34.7934238 68.7254668,34.0131347 Z" id="Fill-1" fill="#171E42"></path>
                <path d="M9.85185185,49.3861096 C9.85185185,44.4623145 10.7335926,39.7014935 12.4724444,35.227112 L3.29051852,31.6416804 C1.10833333,37.2618197 0,43.2326003 0,49.3861096 C0,76.6176104 22.0977037,98.7722192 49.2592593,98.7722192 C55.791037,98.7722192 62.1011481,97.5128734 68.0122593,95.0336907 L64.2045185,85.9219535 C59.5101111,87.8924592 54.4758148,88.8949973 49.2592593,88.8949973 C27.531,88.8949973 9.85185185,71.1703225 9.85185185,49.3861096 Z" id="Fill-6" fill="url(#linearGradient-1)"></path>
                <path d="M49.2592593,0 C36.0971852,0 23.7134074,5.14603262 14.3984815,14.4849459 L21.3637407,21.4681418 C28.8215926,13.9910848 38.7276296,9.87722192 49.2592593,9.87722192 L49.2592593,0 Z" id="Fill-8" fill="url(#linearGradient-1)"></path>
                <path d="M63.8759593,12.7277882 C78.9345148,18.797341 88.6681444,33.1835148 88.6681444,49.3870973 C88.6681444,59.9606634 84.5648481,69.8724556 77.1168481,77.2951878 L84.0624037,84.3030768 C93.3871815,75.008611 98.5199963,62.6126975 98.5199963,49.3870973 C98.5199963,29.1289152 86.3628111,11.1474327 67.5507,3.56666483 L63.8759593,12.7277882 Z" id="Fill-3" fill="url(#linearGradient-1)"></path>
            </g>
        </g>
    </g>
</svg>