<?xml version="1.0" encoding="UTF-8"?>
<svg width="1130px" height="765px" viewBox="0 0 1130 765" version="1.1" xmlns="http://www.w3.org/2000/svg" xmlns:xlink="http://www.w3.org/1999/xlink">
    <!-- Generator: Sketch 48.2 (47327) - http://www.bohemiancoding.com/sketch -->
    <title>BG-ContactArt Copy 2</title>
    <desc>Created with Sketch.</desc>
    <defs></defs>
    <style>
        path {
        fill: white;
        opacity: 0.4;
    </style>
    <g id="Symbols" stroke="none" stroke-width="1" fill="none" fill-rule="evenodd">
        <g id="BG-ContactArt-Copy-2" fill="#1D1D1D" fill-rule="nonzero">
            <g id="BG-ContactArt" transform="translate(30.000000, 10.000000)">
                <path d="M228.791292,13.1434118 L486.412131,145.125604 C488.428035,142.610486 491.525943,141 495,141 C498.727279,141 502.021575,142.853817 504.011164,145.689725 L795.288377,23.5130564 C795.099753,22.7059234 795,21.8646109 795,21 C795,14.9248678 799.924868,10 806,10 C811.176225,10 815.5174,13.5752744 816.688758,18.3910564 L1066.31124,18.3910564 C1067.4826,13.5752744 1071.82378,10 1077,10 C1083.07513,10 1088,14.9248678 1088,21 C1088,27.0751322 1083.07513,32 1077,32 C1072.10816,32 1067.96213,28.8067831 1066.53262,24.3910564 L816.46738,24.3910564 C815.037874,28.8067831 810.891845,32 806,32 C802.966336,32 800.2195,30.7719444 798.229501,28.7858425 L505.982228,151.369405 C505.994023,151.578101 506,151.788352 506,152 C506,158.075132 501.075132,163 495,163 C488.924868,163 484,158.075132 484,152 C484,151.550545 484.026956,151.107386 484.079339,150.672052 L226.060071,18.4857388 C224.051427,20.6475028 221.18366,22 218,22 C211.924868,22 207,17.0751322 207,11 C207,4.92486775 211.924868,0 218,0 C224.075132,0 229,4.92486775 229,11 C229,11.7334506 228.928216,12.4501353 228.791292,13.1434118 Z M218.650979,718.240412 C218.878802,719.122253 219,720.046973 219,721 C219,727.075132 214.075132,732 208,732 C201.924868,732 197,727.075132 197,721 C197,714.924868 201.924868,710 208,710 C210.95506,710 213.637963,711.165241 215.614297,713.061309 L317.047884,648.691739 C316.375818,647.268649 316,645.678213 316,644 C316,643.481952 316.035812,642.972269 316.105094,642.47329 L18.8506736,478.704998 C16.8546073,480.738565 14.0746156,482 11,482 C4.92486775,482 0,477.075132 0,471 C0,464.924868 4.92486775,460 11,460 C17.0751322,460 22,464.924868 22,471 C22,471.838597 21.9061597,472.655276 21.7284072,473.440109 L318.542621,636.965876 C320.560386,634.542504 323.600058,633 327,633 C330.413168,633 333.463256,634.554527 335.480878,636.994195 L569.855492,488.260492 C569.304509,486.950139 569,485.51063 569,484 C569,483.559555 569.025886,483.125156 569.07622,482.698241 L450.382976,420.122539 C448.365296,422.494952 445.358409,424 442,424 C440.977164,424 439.986935,423.860397 439.047326,423.599205 C410.971025,467.048842 363.502105,496.7938 308.886148,500.588494 C308.116311,505.91092 303.535684,510 298,510 C292.508869,510 287.957483,505.976475 287.133178,500.716762 C231.811651,497.531944 183.622888,467.737293 155.172342,423.938264 C154.787146,423.979073 154.396017,424 154,424 C147.924868,424 143,419.075132 143,413 C143,410.517712 143.822219,408.227464 145.209166,406.386745 C134.188551,383.940902 128,358.693158 128,332 C128,304.810606 134.420785,279.120867 145.828799,256.364339 C144.070428,254.414562 143,251.832287 143,249 C143,242.924868 147.924868,238 154,238 C154.811113,238 155.601722,238.08779 156.362843,238.254387 C184.936493,195.473423 232.511622,166.463288 287.022568,163.289641 C287.388682,157.545559 292.163505,153 298,153 C303.880036,153 308.6825,157.613633 308.984888,163.418395 C362.869255,167.19371 409.787393,196.229519 437.973681,238.760198 C439.220627,238.269506 440.57884,238 442,238 C445.865153,238 449.264699,239.993501 451.226553,243.008418 L555.011777,200.486421 C555.280026,194.64972 560.097013,190 566,190 C568.883218,190 571.507351,191.109272 573.468907,192.924322 L794.014228,102.564375 C794.004781,102.377443 794,102.18928 794,102 C794,95.9248678 798.924868,91 805,91 C811.075132,91 816,95.9248678 816,102 C816,102.617972 815.949041,103.224041 815.851096,103.814235 L1068.16903,207.440345 C1070.17395,204.745628 1073.38312,203 1077,203 C1083.07513,203 1088,207.924868 1088,214 C1088,220.075132 1083.07513,225 1077,225 C1070.92487,225 1066,220.075132 1066,214 C1066,213.680764 1066.0136,213.364704 1066.04025,213.052368 L813.278251,109.243884 C811.262011,111.546155 808.300787,113 805,113 C801.248629,113 797.935855,111.12214 795.950418,108.25516 L576.618577,198.117931 C576.867294,199.036495 577,200.00275 577,201 C577,201.569795 576.956677,202.129471 576.873145,202.675914 L968.952874,367.741296 C970.938586,364.876312 974.250175,363 978,363 C980.845692,363 983.439,364.080585 985.391981,365.853812 L1066.61333,307.630851 C1066.216,306.494131 1066,305.27229 1066,304 C1066,297.924868 1070.92487,293 1077,293 C1083.07513,293 1088,297.924868 1088,304 C1088,310.075132 1083.07513,315 1077,315 C1074.37093,315 1071.95728,314.077665 1070.06497,312.538919 L988.573293,370.955661 C988.851153,371.922454 989,372.943844 989,374 C989,374.717121 988.931377,375.418214 988.80034,376.097071 L1068.12905,409.494422 C1070.13113,406.769005 1073.35898,405 1077,405 C1083.07513,405 1088,409.924868 1088,416 C1088,422.075132 1083.07513,427 1077,427 C1070.92487,427 1066,422.075132 1066,416 C1066,415.704687 1066.01164,415.412093 1066.03448,415.12265 L986.081584,381.462519 C984.071931,383.637813 981.195043,385 978,385 C975.666785,385 973.503236,384.273572 971.723183,383.034545 L731.372328,555.328383 C731.778799,556.476638 732,557.712487 732,559 C732,559.910562 731.889363,560.795283 731.680797,561.641454 L917.06811,659.37862 C919.069632,657.296071 921.883459,656 925,656 C928.255028,656 931.179841,657.413815 933.193853,659.660856 L1066.30928,576.600877 C1066.10713,575.767014 1066,574.896018 1066,574 C1066,567.924868 1070.92487,563 1077,563 C1083.07513,563 1088,567.924868 1088,574 C1088,580.075132 1083.07513,585 1077,585 C1073.98675,585 1071.25648,583.788416 1069.26977,581.825832 L935.834012,665.085688 C935.943108,665.70738 936,666.347046 936,667 C936,673.075132 931.075132,678 925,678 C918.924868,678 914,673.075132 914,667 C914,666.201892 914.084997,665.423637 914.246434,664.673792 L728.701883,566.85373 C726.717594,568.799891 723.998947,570 721,570 C714.924868,570 710,565.075132 710,559 C710,558.345707 710.057125,557.704756 710.16666,557.081863 L587.245254,492.277051 C585.309998,493.972436 582.774999,495 580,495 C577.626703,495 575.428952,494.248399 573.631787,492.970238 L337.906717,642.560938 C337.968254,643.031909 338,643.512247 338,644 C338,650.075132 333.075132,655 327,655 C324.809329,655 322.768227,654.35962 321.053678,653.255846 L218.650979,718.240412 Z M295.712347,488.238206 L295.712347,340.761794 C290.735154,339.708997 287,335.290695 287,330 C287,324.709305 290.735154,320.291003 295.712347,319.238206 L295.712347,174.761794 C292.515015,174.085481 289.830239,172.020313 288.318945,169.227214 C235.548851,171.996333 189.427823,199.863404 161.669574,241.114711 C163.723906,243.11319 165,245.907571 165,249 C165,255.075132 160.075132,260 154,260 C152.937098,260 151.909406,259.849246 150.93714,259.567952 C140.095813,281.388017 134,305.982132 134,332 C134,357.336888 139.78089,381.323576 150.095648,402.713043 C151.309006,402.252268 152.625043,402 154,402 C160.075132,402 165,406.924868 165,413 C165,416.494804 163.370221,419.608953 160.829238,421.623871 C188.410585,463.445277 234.741165,491.809492 287.852083,494.747624 C289.229403,491.464675 292.153338,488.991023 295.712347,488.238206 Z M308.096979,494.628202 C360.876929,491.079789 406.772492,462.40738 433.925003,420.469643 C432.109549,418.508008 431,415.883578 431,413 C431,406.924868 435.924868,402 442,402 C442.734442,402 443.452073,402.071978 444.146224,402.209264 C454.309438,380.947219 460,357.13816 460,332 C460,306.126169 453.971495,281.660371 443.242479,259.930601 C442.834653,259.976453 442.420076,260 442,260 C435.924868,260 431,255.075132 431,249 C431,246.527709 431.81561,244.245913 433.192438,242.409005 C405.868555,200.956235 360.127637,172.716924 307.618973,169.340361 C306.33221,171.653103 304.23556,173.453364 301.712347,174.357819 L301.712347,319.642181 C305.96084,321.16507 309,325.227618 309,330 C309,334.772382 305.96084,338.83493 301.712347,340.357819 L301.712347,488.642181 C304.577855,489.669333 306.893215,491.851823 308.096979,494.628202 Z M452.997579,248.766873 C452.99919,248.844387 453,248.922099 453,249 C453,252.505754 451.359992,255.628464 448.805326,257.642778 C459.816874,280.081236 466,305.318545 466,332 C466,358.122904 460.07304,382.861492 449.490515,404.94437 C451.649495,406.952799 453,409.818686 453,413 C453,413.562293 452.95781,414.114731 452.876423,414.654323 L571.400107,477.140632 C573.415706,474.616903 576.519029,473 580,473 C586.075132,473 591,477.924868 591,484 C591,485.120778 590.832381,486.202407 590.520845,487.221185 L712.788049,551.681098 C714.802616,549.422309 717.735209,548 721,548 C723.613615,548 726.014333,548.91152 727.901596,550.434002 L967.909267,378.386174 C967.324355,377.042405 967,375.559081 967,374 C967,373.81057 967.004788,373.622259 967.01425,373.43518 L574.373537,208.133623 C572.355924,210.499639 569.353176,212 566,212 C561.885903,212 558.299322,209.741437 556.412526,206.396582 L452.997579,248.766873 Z M566,206 C568.761424,206 571,203.761424 571,201 C571,198.238576 568.761424,196 566,196 C563.238576,196 561,198.238576 561,201 C561,203.761424 563.238576,206 566,206 Z M721,564 C723.761424,564 726,561.761424 726,559 C726,556.238576 723.761424,554 721,554 C718.238576,554 716,556.238576 716,559 C716,561.761424 718.238576,564 721,564 Z M925,672 C927.761424,672 930,669.761424 930,667 C930,664.238576 927.761424,662 925,662 C922.238576,662 920,664.238576 920,667 C920,669.761424 922.238576,672 925,672 Z M1077,579 C1079.76142,579 1082,576.761424 1082,574 C1082,571.238576 1079.76142,569 1077,569 C1074.23858,569 1072,571.238576 1072,574 C1072,576.761424 1074.23858,579 1077,579 Z M1077,421 C1079.76142,421 1082,418.761424 1082,416 C1082,413.238576 1079.76142,411 1077,411 C1074.23858,411 1072,413.238576 1072,416 C1072,418.761424 1074.23858,421 1077,421 Z M1077,309 C1079.76142,309 1082,306.761424 1082,304 C1082,301.238576 1079.76142,299 1077,299 C1074.23858,299 1072,301.238576 1072,304 C1072,306.761424 1074.23858,309 1077,309 Z M1077,219 C1079.76142,219 1082,216.761424 1082,214 C1082,211.238576 1079.76142,209 1077,209 C1074.23858,209 1072,211.238576 1072,214 C1072,216.761424 1074.23858,219 1077,219 Z M1077,26 C1079.76142,26 1082,23.7614237 1082,21 C1082,18.2385763 1079.76142,16 1077,16 C1074.23858,16 1072,18.2385763 1072,21 C1072,23.7614237 1074.23858,26 1077,26 Z M805,107 C807.761424,107 810,104.761424 810,102 C810,99.2385763 807.761424,97 805,97 C802.238576,97 800,99.2385763 800,102 C800,104.761424 802.238576,107 805,107 Z M806,26 C808.761424,26 811,23.7614237 811,21 C811,18.2385763 808.761424,16 806,16 C803.238576,16 801,18.2385763 801,21 C801,23.7614237 803.238576,26 806,26 Z M978,379 C980.761424,379 983,376.761424 983,374 C983,371.238576 980.761424,369 978,369 C975.238576,369 973,371.238576 973,374 C973,376.761424 975.238576,379 978,379 Z M580,489 C582.761424,489 585,486.761424 585,484 C585,481.238576 582.761424,479 580,479 C577.238576,479 575,481.238576 575,484 C575,486.761424 577.238576,489 580,489 Z M629,386.5 C625.410149,386.5 622.5,383.589851 622.5,380 C622.5,376.410149 625.410149,373.5 629,373.5 C632.589851,373.5 635.5,376.410149 635.5,380 C635.5,383.589851 632.589851,386.5 629,386.5 Z M629,383.5 C630.932997,383.5 632.5,381.932997 632.5,380 C632.5,378.067003 630.932997,376.5 629,376.5 C627.067003,376.5 625.5,378.067003 625.5,380 C625.5,381.932997 627.067003,383.5 629,383.5 Z M916,609.5 C912.410149,609.5 909.5,606.589851 909.5,603 C909.5,599.410149 912.410149,596.5 916,596.5 C919.589851,596.5 922.5,599.410149 922.5,603 C922.5,606.589851 919.589851,609.5 916,609.5 Z M916,606.5 C917.932997,606.5 919.5,604.932997 919.5,603 C919.5,601.067003 917.932997,599.5 916,599.5 C914.067003,599.5 912.5,601.067003 912.5,603 C912.5,604.932997 914.067003,606.5 916,606.5 Z M500,315.5 C496.410149,315.5 493.5,312.589851 493.5,309 C493.5,305.410149 496.410149,302.5 500,302.5 C503.589851,302.5 506.5,305.410149 506.5,309 C506.5,312.589851 503.589851,315.5 500,315.5 Z M500,312.5 C501.932997,312.5 503.5,310.932997 503.5,309 C503.5,307.067003 501.932997,305.5 500,305.5 C498.067003,305.5 496.5,307.067003 496.5,309 C496.5,310.932997 498.067003,312.5 500,312.5 Z M744,222.5 C740.410149,222.5 737.5,219.589851 737.5,216 C737.5,212.410149 740.410149,209.5 744,209.5 C747.589851,209.5 750.5,212.410149 750.5,216 C750.5,219.589851 747.589851,222.5 744,222.5 Z M744,219.5 C745.932997,219.5 747.5,217.932997 747.5,216 C747.5,214.067003 745.932997,212.5 744,212.5 C742.067003,212.5 740.5,214.067003 740.5,216 C740.5,217.932997 742.067003,219.5 744,219.5 Z M707,212.5 C703.410149,212.5 700.5,209.589851 700.5,206 C700.5,202.410149 703.410149,199.5 707,199.5 C710.589851,199.5 713.5,202.410149 713.5,206 C713.5,209.589851 710.589851,212.5 707,212.5 Z M707,209.5 C708.932997,209.5 710.5,207.932997 710.5,206 C710.5,204.067003 708.932997,202.5 707,202.5 C705.067003,202.5 703.5,204.067003 703.5,206 C703.5,207.932997 705.067003,209.5 707,209.5 Z M994,435.5 C990.410149,435.5 987.5,432.589851 987.5,429 C987.5,425.410149 990.410149,422.5 994,422.5 C997.589851,422.5 1000.5,425.410149 1000.5,429 C1000.5,432.589851 997.589851,435.5 994,435.5 Z M994,432.5 C995.932997,432.5 997.5,430.932997 997.5,429 C997.5,427.067003 995.932997,425.5 994,425.5 C992.067003,425.5 990.5,427.067003 990.5,429 C990.5,430.932997 992.067003,432.5 994,432.5 Z M965,281.5 C961.410149,281.5 958.5,278.589851 958.5,275 C958.5,271.410149 961.410149,268.5 965,268.5 C968.589851,268.5 971.5,271.410149 971.5,275 C971.5,278.589851 968.589851,281.5 965,281.5 Z M965,278.5 C966.932997,278.5 968.5,276.932997 968.5,275 C968.5,273.067003 966.932997,271.5 965,271.5 C963.067003,271.5 961.5,273.067003 961.5,275 C961.5,276.932997 963.067003,278.5 965,278.5 Z M604,305.5 C600.410149,305.5 597.5,302.589851 597.5,299 C597.5,295.410149 600.410149,292.5 604,292.5 C607.589851,292.5 610.5,295.410149 610.5,299 C610.5,302.589851 607.589851,305.5 604,305.5 Z M604,302.5 C605.932997,302.5 607.5,300.932997 607.5,299 C607.5,297.067003 605.932997,295.5 604,295.5 C602.067003,295.5 600.5,297.067003 600.5,299 C600.5,300.932997 602.067003,302.5 604,302.5 Z M925,512.5 C921.410149,512.5 918.5,509.589851 918.5,506 C918.5,502.410149 921.410149,499.5 925,499.5 C928.589851,499.5 931.5,502.410149 931.5,506 C931.5,509.589851 928.589851,512.5 925,512.5 Z M925,509.5 C926.932997,509.5 928.5,507.932997 928.5,506 C928.5,504.067003 926.932997,502.5 925,502.5 C923.067003,502.5 921.5,504.067003 921.5,506 C921.5,507.932997 923.067003,509.5 925,509.5 Z M442,194.5 C438.410149,194.5 435.5,191.589851 435.5,188 C435.5,184.410149 438.410149,181.5 442,181.5 C445.589851,181.5 448.5,184.410149 448.5,188 C448.5,191.589851 445.589851,194.5 442,194.5 Z M442,191.5 C443.932997,191.5 445.5,189.932997 445.5,188 C445.5,186.067003 443.932997,184.5 442,184.5 C440.067003,184.5 438.5,186.067003 438.5,188 C438.5,189.932997 440.067003,191.5 442,191.5 Z M553,83.5 C549.410149,83.5 546.5,80.5898509 546.5,77 C546.5,73.4101491 549.410149,70.5 553,70.5 C556.589851,70.5 559.5,73.4101491 559.5,77 C559.5,80.5898509 556.589851,83.5 553,83.5 Z M553,80.5 C554.932997,80.5 556.5,78.9329966 556.5,77 C556.5,75.0670034 554.932997,73.5 553,73.5 C551.067003,73.5 549.5,75.0670034 549.5,77 C549.5,78.9329966 551.067003,80.5 553,80.5 Z M671,46.5 C667.410149,46.5 664.5,43.5898509 664.5,40 C664.5,36.4101491 667.410149,33.5 671,33.5 C674.589851,33.5 677.5,36.4101491 677.5,40 C677.5,43.5898509 674.589851,46.5 671,46.5 Z M671,43.5 C672.932997,43.5 674.5,41.9329966 674.5,40 C674.5,38.0670034 672.932997,36.5 671,36.5 C669.067003,36.5 667.5,38.0670034 667.5,40 C667.5,41.9329966 669.067003,43.5 671,43.5 Z M707,386.5 C703.410149,386.5 700.5,383.589851 700.5,380 C700.5,376.410149 703.410149,373.5 707,373.5 C710.589851,373.5 713.5,376.410149 713.5,380 C713.5,383.589851 710.589851,386.5 707,386.5 Z M707,383.5 C708.932997,383.5 710.5,381.932997 710.5,380 C710.5,378.067003 708.932997,376.5 707,376.5 C705.067003,376.5 703.5,378.067003 703.5,380 C703.5,381.932997 705.067003,383.5 707,383.5 Z M994,609.5 C990.410149,609.5 987.5,606.589851 987.5,603 C987.5,599.410149 990.410149,596.5 994,596.5 C997.589851,596.5 1000.5,599.410149 1000.5,603 C1000.5,606.589851 997.589851,609.5 994,609.5 Z M994,606.5 C995.932997,606.5 997.5,604.932997 997.5,603 C997.5,601.067003 995.932997,599.5 994,599.5 C992.067003,599.5 990.5,601.067003 990.5,603 C990.5,604.932997 992.067003,606.5 994,606.5 Z M393,533.5 C389.410149,533.5 386.5,530.589851 386.5,527 C386.5,523.410149 389.410149,520.5 393,520.5 C396.589851,520.5 399.5,523.410149 399.5,527 C399.5,530.589851 396.589851,533.5 393,533.5 Z M393,530.5 C394.932997,530.5 396.5,528.932997 396.5,527 C396.5,525.067003 394.932997,523.5 393,523.5 C391.067003,523.5 389.5,525.067003 389.5,527 C389.5,528.932997 391.067003,530.5 393,530.5 Z M442,418 C444.761424,418 447,415.761424 447,413 C447,410.238576 444.761424,408 442,408 C439.238576,408 437,410.238576 437,413 C437,415.761424 439.238576,418 442,418 Z M442,254 C444.761424,254 447,251.761424 447,249 C447,246.238576 444.761424,244 442,244 C439.238576,244 437,246.238576 437,249 C437,251.761424 439.238576,254 442,254 Z M298,169 C300.761424,169 303,166.761424 303,164 C303,161.238576 300.761424,159 298,159 C295.238576,159 293,161.238576 293,164 C293,166.761424 295.238576,169 298,169 Z M298,335 C300.761424,335 303,332.761424 303,330 C303,327.238576 300.761424,325 298,325 C295.238576,325 293,327.238576 293,330 C293,332.761424 295.238576,335 298,335 Z M154,254 C156.761424,254 159,251.761424 159,249 C159,246.238576 156.761424,244 154,244 C151.238576,244 149,246.238576 149,249 C149,251.761424 151.238576,254 154,254 Z M154,418 C156.761424,418 159,415.761424 159,413 C159,410.238576 156.761424,408 154,408 C151.238576,408 149,410.238576 149,413 C149,415.761424 151.238576,418 154,418 Z M298,504 C300.761424,504 303,501.761424 303,499 C303,496.238576 300.761424,494 298,494 C295.238576,494 293,496.238576 293,499 C293,501.761424 295.238576,504 298,504 Z M327,649 C329.761424,649 332,646.761424 332,644 C332,641.238576 329.761424,639 327,639 C324.238576,639 322,641.238576 322,644 C322,646.761424 324.238576,649 327,649 Z M11,476 C13.7614237,476 16,473.761424 16,471 C16,468.238576 13.7614237,466 11,466 C8.23857625,466 6,468.238576 6,471 C6,473.761424 8.23857625,476 11,476 Z M208,726 C210.761424,726 213,723.761424 213,721 C213,718.238576 210.761424,716 208,716 C205.238576,716 203,718.238576 203,721 C203,723.761424 205.238576,726 208,726 Z M495,157 C497.761424,157 500,154.761424 500,152 C500,149.238576 497.761424,147 495,147 C492.238576,147 490,149.238576 490,152 C490,154.761424 492.238576,157 495,157 Z M218,16 C220.761424,16 223,13.7614237 223,11 C223,8.23857625 220.761424,6 218,6 C215.238576,6 213,8.23857625 213,11 C213,13.7614237 215.238576,16 218,16 Z" id="Combined-Shape"></path>
            </g>
        </g>
    </g>
</svg>