<?xml version="1.0" encoding="UTF-8"?>
<svg width="650px" height="779px" viewBox="0 0 650 779" version="1.1" xmlns="http://www.w3.org/2000/svg" xmlns:xlink="http://www.w3.org/1999/xlink">
    <!-- Generator: Sketch 48.2 (47327) - http://www.bohemiancoding.com/sketch -->
    <title>BG-CircleArt Copy</title>
    <desc>Created with Sketch.</desc>
    <defs></defs>
    <g id="Symbols" stroke="none" stroke-width="1" fill="none" fill-rule="evenodd">
        <g id="BG-CircleArt-Copy" fill="#171E42" fill-rule="nonzero">
            <g id="BG-CircleArt" transform="translate(-3.000000, -3.000000)">
                <path d="M624.708141,188.003797 C624.80512,188.001271 624.902412,188 625,188 C631.075132,188 636,192.924868 636,199 C636,202.003546 634.796207,204.725932 632.844771,206.711007 C647.785213,244.22925 656,285.155292 656,328 C656,380.794645 643.526691,430.675993 621.366266,474.857849 C623.008417,476.779632 624,479.274018 624,482 C624,488.075132 619.075132,493 613,493 C612.522534,493 612.052173,492.969579 611.590749,492.910571 C554.749534,590.447629 449.030055,656 328,656 C265.269746,656 206.652497,638.390135 156.822082,607.844235 C140.947448,620.462011 120.85402,628 99,628 C47.6375183,628 6,586.362482 6,535 C6,509.78621 16.0338845,486.915959 32.326471,470.164431 C11.6094285,427.155691 0,378.933609 0,328 C0,146.850602 146.850602,0 328,0 C459.069969,0 572.18386,76.879108 624.708136,188.003786 Z M626.644203,209.877945 C626.107825,209.958336 625.558778,210 625,210 C622.26886,210 619.770195,209.004661 617.846957,207.356938 L478.8807,296.546607 C494.837238,315.186814 518.53906,327 545,327 C593.048773,327 632,288.048773 632,240 C632,229.410954 630.108222,219.263757 626.644203,209.877945 Z M617.11989,191.325106 C601.482546,168.201137 575.016481,153 545,153 C496.951227,153 458,191.951227 458,240 C458,259.420539 464.363251,277.35486 475.118535,291.831747 L614.522904,202.360893 C614.183339,201.301491 614,200.172156 614,199 C614,196.014627 615.18927,193.307022 617.11989,191.325106 Z M602.243808,479.686024 L363.784751,378.62132 C361.776935,381.280973 358.589218,383 355,383 C352.360199,383 349.937582,382.070123 348.041833,380.520052 L186.35855,484.289693 C186.773798,485.448859 187,486.698013 187,488 C187,491.18566 185.645802,494.055031 183.481662,496.063856 C188.949622,507.908252 192,521.097899 192,535 C192,562.236819 180.291383,586.738944 161.632897,603.747627 C210.187265,633.104906 267.120602,650 328,650 C446.557969,650 550.150667,585.926063 606.038752,490.517532 C603.57347,488.500298 602,485.433901 602,482 C602,481.206231 602.084076,480.432099 602.243808,479.686024 Z M616.329212,471.512802 C637.878427,428.3023 650,379.566723 650,328 C650,297.708838 645.817348,268.394588 637.998084,240.603289 C637.673568,291.688125 596.161237,333 545,333 C516.417165,333 490.845995,320.105532 473.786195,299.816302 L365.646077,369.221506 C365.877063,370.109032 366,371.04016 366,372 C366,372.700184 365.93458,373.385089 365.80952,374.048935 L604.382984,475.162127 C606.398106,472.626087 609.509156,471 613,471 C614.160479,471 615.278986,471.179704 616.329212,471.512802 Z M344.131819,370.291933 L202.324604,310.190613 C200.307541,312.523706 197.326174,314 194,314 C192.182146,314 190.467284,313.559038 188.956545,312.778245 C181.509763,318.558605 172.156772,322 162,322 C137.699471,322 118,302.300529 118,278 C118,253.699471 137.699471,234 162,234 C186.300529,234 206,253.699471 206,278 C206,284.315846 204.669281,290.320886 202.272926,295.75004 C203.970769,297.68589 205,300.22275 205,303 C205,303.948633 204.879917,304.86922 204.654124,305.747388 L346.011221,365.657938 C348.00308,362.839972 351.286666,361 355,361 C357.947765,361 360.624715,362.159495 362.599647,364.04728 L470.057663,295.079856 C458.706919,279.661784 452,260.614134 452,240 C452,188.637518 493.637518,147 545,147 C570.935065,147 594.390593,157.616162 611.258062,174.739964 C556.767457,74.2416798 450.353078,6 328,6 C150.164311,6 6,150.164311 6,328 C6,377.300542 17.07958,424.013309 36.8845972,465.784159 C53.3517898,450.996412 75.1252827,442 99,442 C128.730837,442 155.20323,455.951057 172.22783,477.663821 C173.404371,477.234333 174.67482,477 176,477 C178.596057,477 180.982068,477.899314 182.863491,479.403402 L344.602014,375.598307 C344.211901,374.470822 344,373.260157 344,372 C344,371.419024 344.04504,370.848568 344.131819,370.291933 Z M197.152689,292.458455 C198.987823,288.001524 200,283.118965 200,278 C200,257.01318 182.98682,240 162,240 C141.01318,240 124,257.01318 124,278 C124,298.98682 141.01318,316 162,316 C170.434526,316 178.227228,313.25202 184.531648,308.602515 C183.558614,306.961611 183,305.046041 183,303 C183,296.924868 187.924868,292 194,292 C195.095695,292 196.153973,292.1602 197.152689,292.458455 Z M167.364213,481.185816 C151.43308,460.975153 126.731795,448 99,448 C50.9512268,448 12,486.951227 12,535 C12,583.048773 50.9512268,622 99,622 C147.048773,622 186,583.048773 186,535 C186,522.079954 183.183663,509.817699 178.131409,498.793655 C177.441865,498.929042 176.729219,499 176,499 C169.924868,499 165,494.075132 165,488 C165,485.426569 165.883707,483.059538 167.364213,481.185816 Z M176,493 C178.761424,493 181,490.761424 181,488 C181,485.238576 178.761424,483 176,483 C173.238576,483 171,485.238576 171,488 C171,490.761424 173.238576,493 176,493 Z M194,308 C196.761424,308 199,305.761424 199,303 C199,300.238576 196.761424,298 194,298 C191.238576,298 189,300.238576 189,303 C189,305.761424 191.238576,308 194,308 Z M355,377 C357.761424,377 360,374.761424 360,372 C360,369.238576 357.761424,367 355,367 C352.238576,367 350,369.238576 350,372 C350,374.761424 352.238576,377 355,377 Z M613,487 C615.761424,487 618,484.761424 618,482 C618,479.238576 615.761424,477 613,477 C610.238576,477 608,479.238576 608,482 C608,484.761424 610.238576,487 613,487 Z M90,559 C83.9248678,559 79,554.075132 79,548 C79,541.924868 83.9248678,537 90,537 C96.0751322,537 101,541.924868 101,548 C101,554.075132 96.0751322,559 90,559 Z M90,553 C92.7614237,553 95,550.761424 95,548 C95,545.238576 92.7614237,543 90,543 C87.2385763,543 85,545.238576 85,548 C85,550.761424 87.2385763,553 90,553 Z M625,204 C627.761424,204 630,201.761424 630,199 C630,196.238576 627.761424,194 625,194 C622.238576,194 620,196.238576 620,199 C620,201.761424 622.238576,204 625,204 Z" id="Combined-Shape"></path>
            </g>
        </g>
    </g>
</svg>