<?xml version="1.0" encoding="UTF-8"?>
<svg width="829px" height="676px" viewBox="0 0 829 676" version="1.1" xmlns="http://www.w3.org/2000/svg" xmlns:xlink="http://www.w3.org/1999/xlink">
    <!-- Generator: Sketch 48.2 (47327) - http://www.bohemiancoding.com/sketch -->
    <title>BG-ContactArt</title>
    <desc>Created with Sketch.</desc>
    <defs></defs>
    <g id="NPX-2-Exp" stroke="none" stroke-width="1" fill="none" fill-rule="evenodd" transform="translate(-451.000000, -5274.000000)" opacity="0.100000001">
        <g id="Contato" transform="translate(-201.000000, 5177.000000)">
            <g id="BG-ContactArt" transform="translate(655.000000, 90.000000)">
                <g>
                    <path d="" id="Path-8" stroke="#979797"></path>
                    <path d="M439.789206,244.715416 L151.755519,409.270204" id="Path-9" stroke="#171E42" stroke-width="6"></path>
                    <path d="M151.978834,247.216537 L439.828286,410.367236" id="Path-10" stroke="#171E42" stroke-width="6"></path>
                    <path d="M295.712347,161.287953 L295.712347,497.853959" id="Path-11" stroke="#171E42" stroke-width="6"></path>
                    <polyline id="Path-2" stroke="#171E42" stroke-width="6" points="440.796839 410.258906 923.179607 664.573637 1072.3591 571.490171"></polyline>
                    <polyline id="Path-4" stroke="#171E42" stroke-width="6" points="441.856895 245.860172 800.420943 98.9523679 1075.32165 211.853141"></polyline>
                    <path d="M562.903325,198.312646 L1071.59945,412.473476" id="Path-5" stroke="#171E42" stroke-width="6"></path>
                    <path d="M581,479.837501 L208.484497,716.23516" id="Path-6" stroke="#171E42" stroke-width="6"></path>
                    <path d="M323.494281,641.771903 L12.3396544,470.345481 L323.494281,641.771903 Z" id="Path-7" stroke="#171E42" stroke-width="6"></path>
                    <polyline id="Path-13" stroke="#171E42" stroke-width="6" points="214.829705 7.89844357 491.813946 149.800735 805.103261 18.3910564 1065.14584 18.3910564"></polyline>
                    <path d="M718,556.072539 L1072.1985,302.167812" id="Path-14" stroke="#171E42" stroke-width="6"></path>
                    <polygon id="Polygon" stroke="#1D1D1D" stroke-width="6" points="295 161 439 244.138439 439 410.415316 295 493.553755 151 410.415316 151 244.138439"></polygon>
                    <circle id="Oval-5-Copy-5" stroke="#171E42" stroke-width="6" fill="#008BFF" cx="563" cy="198" r="8"></circle>
                    <circle id="Oval-5-Copy-28" stroke="#171E42" stroke-width="6" fill="#008BFF" cx="718" cy="556" r="8"></circle>
                    <circle id="Oval-5-Copy-25" stroke="#171E42" stroke-width="6" fill="#008BFF" cx="802" cy="99" r="8"></circle>
                    <circle id="Oval-5-Copy-26" stroke="#171E42" stroke-width="6" fill="#008BFF" cx="803" cy="18" r="8"></circle>
                    <circle id="Oval-5-Copy-6" stroke="#171E42" stroke-width="6" fill="#008BFF" cx="577" cy="481" r="8"></circle>
                    <circle id="Oval-5-Copy-7" stroke="#171E42" stroke-width="3" fill="#008BFF" cx="626" cy="377" r="5"></circle>
                    <circle id="Oval-5-Copy-17" stroke="#171E42" stroke-width="3" fill="#008BFF" cx="497" cy="306" r="5"></circle>
                    <circle id="Oval-5-Copy-31" stroke="#171E42" stroke-width="3" fill="#008BFF" cx="741" cy="213" r="5"></circle>
                    <circle id="Oval-5-Copy-18" stroke="#171E42" stroke-width="3" fill="#008BFF" cx="704" cy="203" r="5"></circle>
                    <circle id="Oval-5-Copy-19" stroke="#171E42" stroke-width="3" fill="#008BFF" cx="601" cy="296" r="5"></circle>
                    <circle id="Oval-5-Copy-20" stroke="#171E42" stroke-width="3" fill="#008BFF" cx="439" cy="185" r="5"></circle>
                    <circle id="Oval-5-Copy-21" stroke="#171E42" stroke-width="3" fill="#008BFF" cx="550" cy="74" r="5"></circle>
                    <circle id="Oval-5-Copy-22" stroke="#171E42" stroke-width="3" fill="#008BFF" cx="668" cy="37" r="5"></circle>
                    <circle id="Oval-5-Copy-23" stroke="#171E42" stroke-width="3" fill="#008BFF" cx="704" cy="377" r="5"></circle>
                    <circle id="Oval-5-Copy-24" stroke="#171E42" stroke-width="3" fill="#008BFF" cx="390" cy="524" r="5"></circle>
                    <circle id="Oval-5-Copy-8" stroke="#171E42" stroke-width="6" fill="#008BFF" cx="439" cy="410" r="8"></circle>
                    <circle id="Oval-5-Copy-9" stroke="#171E42" stroke-width="6" fill="#008BFF" cx="439" cy="246" r="8"></circle>
                    <circle id="Oval-5-Copy-14" stroke="#171E42" stroke-width="6" fill="#008BFF" cx="295" cy="161" r="8"></circle>
                    <circle id="Oval-5-Copy-15" stroke="#171E42" stroke-width="6" fill="#008BFF" cx="295" cy="327" r="8"></circle>
                    <circle id="Oval-5-Copy-10" stroke="#171E42" stroke-width="6" fill="#008BFF" cx="151" cy="246" r="8"></circle>
                    <circle id="Oval-5-Copy-11" stroke="#171E42" stroke-width="6" fill="#008BFF" cx="151" cy="410" r="8"></circle>
                    <circle id="Oval-5-Copy-12" stroke="#171E42" stroke-width="6" fill="#008BFF" cx="295" cy="496" r="8"></circle>
                    <circle id="Oval-5-Copy-13" stroke="#171E42" stroke-width="6" fill="#008BFF" cx="324" cy="641" r="8"></circle>
                    <circle id="Oval-5-Copy-42" stroke="#171E42" stroke-width="6" fill="#008BFF" cx="8" cy="468" r="8"></circle>
                    <circle id="Oval-5-Copy-16" stroke="#171E42" stroke-width="6" fill="#008BFF" cx="492" cy="149" r="8"></circle>
                    <circle id="Oval-5-Copy-43" stroke="#171E42" stroke-width="6" fill="#008BFF" cx="215" cy="8" r="8"></circle>
                </g>
            </g>
        </g>
    </g>
</svg>