<?xml version="1.0" encoding="UTF-8"?>
<svg width="1274px" height="765px" viewBox="0 0 1274 765" version="1.1" xmlns="http://www.w3.org/2000/svg" xmlns:xlink="http://www.w3.org/1999/xlink">
    <!-- Generator: Sketch 48.2 (47327) - http://www.bohemiancoding.com/sketch -->
    <title>BG-TriangleArt Copy</title>
    <desc>Created with Sketch.</desc>
    <defs></defs>
    <g id="Symbols" stroke="none" stroke-width="1" fill="none" fill-rule="evenodd">
        <g id="BG-TriangleArt-Copy" fill="#171E42" fill-rule="nonzero">
            <path d="M1038.31126,625.384366 C1043.20723,626.497608 1046.86147,630.875589 1046.86147,636.106735 C1046.86147,642.179726 1041.93644,647.102859 1035.86112,647.102859 C1029.7858,647.102859 1024.86077,642.179726 1024.86077,636.106735 C1024.86077,631.275471 1027.97768,627.171921 1032.31104,625.695818 L1032.33043,393.613384 C1030.8035,393.096449 1029.42701,392.253478 1028.28388,391.167378 L902.692408,476.257216 C902.800543,476.876036 902.856922,477.512641 902.856922,478.162408 C902.856922,483.170665 899.507451,487.396912 894.925588,488.724883 L894.925588,594.555183 C899.507451,595.883154 902.856922,600.109401 902.856922,605.117658 C902.856922,611.190649 897.931899,616.113782 891.856575,616.113782 C885.781251,616.113782 880.856227,611.190649 880.856227,605.117658 C880.856227,600.059313 884.273029,595.798698 888.925399,594.516211 L888.925399,488.763855 C884.273029,487.481368 880.856227,483.220753 880.856227,478.162408 C880.856227,473.104063 884.273029,468.843449 888.925399,467.560962 L888.925399,327.820585 C884.273029,326.538098 880.856227,322.277484 880.856227,317.219139 C880.856227,316.924387 880.867829,316.632344 880.8906,316.343441 L717.053939,226.434467 C715.144355,228.031168 712.68463,228.992248 710.000347,228.992248 C707.813625,228.992248 705.775928,228.35444 704.063275,227.254775 L346.141585,502.290019 C346.592672,503.491726 346.839375,504.793335 346.839375,506.152542 C346.839375,512.225534 341.914352,517.148666 335.839028,517.148666 C333.459931,517.148666 331.257234,516.393701 329.457616,515.110364 L1.65684757,767 L-2,762.244754 L325.702314,510.430772 C325.146189,509.115737 324.838681,507.670037 324.838681,506.152542 C324.838681,500.07955 329.763704,495.156418 335.839028,495.156418 C338.378823,495.156418 340.717585,496.016817 342.579525,497.461936 L700.078891,222.751216 C699.387387,221.312122 699,219.699345 699,217.996124 C699,217.515178 699.030888,217.041443 699.09079,216.576794 L458.737715,84.6777545 C456.727258,87.3007881 453.561409,88.992248 450.000347,88.992248 C443.925023,88.992248 439,84.0691156 439,77.996124 C439,71.9231324 443.925023,67 450.000347,67 C456.075671,67 461.000694,71.9231324 461.000694,77.996124 C461.000694,78.3515989 460.98382,78.7031343 460.950829,79.0499732 L701.47706,211.044036 C703.494282,208.57577 706.563224,207 710.000347,207 C712.728215,207 715.224173,207.992543 717.146519,209.636058 L889.559134,77.1502472 L893.215981,81.9054934 L720.479081,214.640493 C720.81782,215.698342 721.000694,216.825885 721.000694,217.996124 C721.000694,219.204003 720.805867,220.366394 720.445912,221.453611 L883.0196,310.6695 C885.024192,307.971356 888.236131,306.223015 891.856575,306.223015 C895.238258,306.223015 898.263541,307.748361 900.281431,310.148313 L996.365514,244.5513 C996.036991,243.508021 995.859857,242.397648 995.859857,241.245918 C995.859857,235.172927 1000.78488,230.249794 1006.8602,230.249794 C1009.47133,230.249794 1011.86996,231.159199 1013.75644,232.678442 L1217.4379,93.624244 L1220.82191,98.5772125 L1017.23078,237.569739 C1017.63859,238.719243 1017.86055,239.95667 1017.86055,241.245918 C1017.86055,242.01162 1017.78226,242.759041 1017.63324,243.480621 L1128.09493,307.435346 C1130.08488,305.450766 1132.83123,304.223719 1135.86428,304.223719 C1138.38483,304.223719 1140.70739,305.071134 1142.56238,306.496499 L1236.6336,242.762036 L1240,247.726982 L1146.14963,311.311812 C1146.61165,312.526142 1146.86462,313.843461 1146.86462,315.219843 C1146.86462,321.292835 1141.9396,326.215967 1135.86428,326.215967 C1132.99566,326.215967 1130.3835,325.11836 1128.42518,323.320361 L1046.07775,379.111803 C1046.58334,380.374471 1046.86147,381.752709 1046.86147,383.195883 C1046.86147,388.420139 1043.21685,392.793476 1038.3306,393.913835 L1038.31126,625.384366 Z M894.925588,467.599933 C896.921605,468.178443 898.683741,469.306979 900.036972,470.810583 L1025.22085,385.996894 C1024.98589,385.102622 1024.86077,384.163859 1024.86077,383.195883 C1024.86077,377.122891 1029.7858,372.199759 1035.86112,372.199759 C1038.31175,372.199759 1040.57521,373.000807 1042.40376,374.355249 L1125.27518,318.208796 C1125.00726,317.258432 1124.86393,316.25587 1124.86393,315.219843 C1124.86393,314.341477 1124.96696,313.487164 1125.16159,312.668323 L1014.85225,248.801809 C1012.84711,250.920339 1010.00807,252.242042 1006.8602,252.242042 C1004.10852,252.242042 1001.59281,251.232092 999.66381,249.562786 L902.755853,315.722261 C902.822497,316.211713 902.856922,316.711407 902.856922,317.219139 C902.856922,322.227396 899.507451,326.453642 894.925588,327.781614 L894.925588,467.599933 Z M335.839028,511.15078 C338.600539,511.15078 340.839185,508.912993 340.839185,506.152542 C340.839185,503.392091 338.600539,501.154304 335.839028,501.154304 C333.077517,501.154304 330.83887,503.392091 330.83887,506.152542 C330.83887,508.912993 333.077517,511.15078 335.839028,511.15078 Z M710.000158,222.996476 C712.761669,222.996476 715.000316,220.758689 715.000316,217.998238 C715.000316,215.237787 712.761669,213 710.000158,213 C707.238647,213 705,215.237787 705,217.998238 C705,220.758689 707.238647,222.996476 710.000158,222.996476 Z M450.000158,82.9964764 C452.761669,82.9964764 455.000316,80.7586889 455.000316,77.9982382 C455.000316,75.2377875 452.761669,73 450.000158,73 C447.238647,73 445,75.2377875 445,77.9982382 C445,80.7586889 447.238647,82.9964764 450.000158,82.9964764 Z M891.856575,322.217377 C894.618086,322.217377 896.856732,319.979589 896.856732,317.219139 C896.856732,314.458688 894.618086,312.220901 891.856575,312.220901 C889.095064,312.220901 886.856417,314.458688 886.856417,317.219139 C886.856417,319.979589 889.095064,322.217377 891.856575,322.217377 Z M788.853324,417.683726 C785.26336,417.683726 782.353119,414.774602 782.353119,411.186017 C782.353119,407.597431 785.26336,404.688307 788.853324,404.688307 C792.443288,404.688307 795.353529,407.597431 795.353529,411.186017 C795.353529,414.774602 792.443288,417.683726 788.853324,417.683726 Z M788.853324,414.684783 C790.786382,414.684783 792.353434,413.118332 792.353434,411.186017 C792.353434,409.253701 790.786382,407.68725 788.853324,407.68725 C786.920266,407.68725 785.353214,409.253701 785.353214,411.186017 C785.353214,413.118332 786.920266,414.684783 788.853324,414.684783 Z M757.852346,336.712268 C754.262382,336.712268 751.352141,333.803144 751.352141,330.214558 C751.352141,326.625972 754.262382,323.716848 757.852346,323.716848 C761.44231,323.716848 764.352551,326.625972 764.352551,330.214558 C764.352551,333.803144 761.44231,336.712268 757.852346,336.712268 Z M757.852346,333.713325 C759.785403,333.713325 761.352456,332.146874 761.352456,330.214558 C761.352456,328.282243 759.785403,326.715791 757.852346,326.715791 C755.919288,326.715791 754.352235,328.282243 754.352235,330.214558 C754.352235,332.146874 755.919288,333.713325 757.852346,333.713325 Z M686.850105,386.694649 C683.260141,386.694649 680.3499,383.785526 680.3499,380.19694 C680.3499,376.608354 683.260141,373.69923 686.850105,373.69923 C690.440069,373.69923 693.35031,376.608354 693.35031,380.19694 C693.35031,383.785526 690.440069,386.694649 686.850105,386.694649 Z M686.850105,383.695707 C688.783163,383.695707 690.350215,382.129255 690.350215,380.19694 C690.350215,378.264624 688.783163,376.698173 686.850105,376.698173 C684.917047,376.698173 683.349995,378.264624 683.349995,380.19694 C683.349995,382.129255 684.917047,383.695707 686.850105,383.695707 Z M606.84758,221.75279 C603.257616,221.75279 600.347375,218.843666 600.347375,215.25508 C600.347375,211.666494 603.257616,208.75737 606.84758,208.75737 C610.437544,208.75737 613.347785,211.666494 613.347785,215.25508 C613.347785,218.843666 610.437544,221.75279 606.84758,221.75279 Z M606.84758,218.753847 C608.780638,218.753847 610.347691,217.187395 610.347691,215.25508 C610.347691,213.322764 608.780638,211.756313 606.84758,211.756313 C604.914523,211.756313 603.34747,213.322764 603.34747,215.25508 C603.34747,217.187395 604.914523,218.753847 606.84758,218.753847 Z M429.841994,211.756313 C426.25203,211.756313 423.341789,208.847189 423.341789,205.258604 C423.341789,201.670018 426.25203,198.760894 429.841994,198.760894 C433.431958,198.760894 436.342199,201.670018 436.342199,205.258604 C436.342199,208.847189 433.431958,211.756313 429.841994,211.756313 Z M429.841994,208.75737 C431.775052,208.75737 433.342105,207.190919 433.342105,205.258604 C433.342105,203.326288 431.775052,201.759837 429.841994,201.759837 C427.908937,201.759837 426.341884,203.326288 426.341884,205.258604 C426.341884,207.190919 427.908937,208.75737 429.841994,208.75737 Z M819.854302,515.649194 C816.264338,515.649194 813.354097,512.740071 813.354097,509.151485 C813.354097,505.562899 816.264338,502.653775 819.854302,502.653775 C823.444267,502.653775 826.354507,505.562899 826.354507,509.151485 C826.354507,512.740071 823.444267,515.649194 819.854302,515.649194 Z M819.854302,512.650252 C821.78736,512.650252 823.354413,511.0838 823.354413,509.151485 C823.354413,507.219169 821.78736,505.652718 819.854302,505.652718 C817.921245,505.652718 816.354192,507.219169 816.354192,509.151485 C816.354192,511.0838 817.921245,512.650252 819.854302,512.650252 Z M928.857742,412.685488 C925.267778,412.685488 922.357537,409.776364 922.357537,406.187778 C922.357537,402.599192 925.267778,399.690069 928.857742,399.690069 C932.447706,399.690069 935.357947,402.599192 935.357947,406.187778 C935.357947,409.776364 932.447706,412.685488 928.857742,412.685488 Z M928.857742,409.686545 C930.7908,409.686545 932.357853,408.120094 932.357853,406.187778 C932.357853,404.255463 930.7908,402.689012 928.857742,402.689012 C926.924685,402.689012 925.357632,404.255463 925.357632,406.187778 C925.357632,408.120094 926.924685,409.686545 928.857742,409.686545 Z M993.859794,331.714029 C990.269829,331.714029 987.359589,328.804906 987.359589,325.21632 C987.359589,321.627734 990.269829,318.71861 993.859794,318.71861 C997.449758,318.71861 1000.36,321.627734 1000.36,325.21632 C1000.36,328.804906 997.449758,331.714029 993.859794,331.714029 Z M993.859794,328.715087 C995.792851,328.715087 997.359904,327.148635 997.359904,325.21632 C997.359904,323.284004 995.792851,321.717553 993.859794,321.717553 C991.926736,321.717553 990.359683,323.284004 990.359683,325.21632 C990.359683,327.148635 991.926736,328.715087 993.859794,328.715087 Z M993.859794,489.658356 C990.269829,489.658356 987.359589,486.749232 987.359589,483.160646 C987.359589,479.57206 990.269829,476.662937 993.859794,476.662937 C997.449758,476.662937 1000.36,479.57206 1000.36,483.160646 C1000.36,486.749232 997.449758,489.658356 993.859794,489.658356 Z M993.859794,486.659413 C995.792851,486.659413 997.359904,485.092962 997.359904,483.160646 C997.359904,481.228331 995.792851,479.66188 993.859794,479.66188 C991.926736,479.66188 990.359683,481.228331 990.359683,483.160646 C990.359683,485.092962 991.926736,486.659413 993.859794,486.659413 Z M938.858058,554.635452 C935.268094,554.635452 932.357853,551.726329 932.357853,548.137743 C932.357853,544.549157 935.268094,541.640033 938.858058,541.640033 C942.448022,541.640033 945.358263,544.549157 945.358263,548.137743 C945.358263,551.726329 942.448022,554.635452 938.858058,554.635452 Z M938.858058,551.636509 C940.791116,551.636509 942.358168,550.070058 942.358168,548.137743 C942.358168,546.205427 940.791116,544.638976 938.858058,544.638976 C936.925,544.638976 935.357947,546.205427 935.357947,548.137743 C935.357947,550.070058 936.925,551.636509 938.858058,551.636509 Z M983.859478,624.610787 C980.269514,624.610787 977.359273,621.701663 977.359273,618.113077 C977.359273,614.524491 980.269514,611.615368 983.859478,611.615368 C987.449442,611.615368 990.359683,614.524491 990.359683,618.113077 C990.359683,621.701663 987.449442,624.610787 983.859478,624.610787 Z M983.859478,621.611844 C985.792536,621.611844 987.359589,620.045393 987.359589,618.113077 C987.359589,616.180762 985.792536,614.61431 983.859478,614.61431 C981.92642,614.61431 980.359368,616.180762 980.359368,618.113077 C980.359368,620.045393 981.92642,621.611844 983.859478,621.611844 Z M1074.86235,476.662937 C1071.27239,476.662937 1068.36214,473.753813 1068.36214,470.165227 C1068.36214,466.576641 1071.27239,463.667517 1074.86235,463.667517 C1078.45231,463.667517 1081.36256,466.576641 1081.36256,470.165227 C1081.36256,473.753813 1078.45231,476.662937 1074.86235,476.662937 Z M1074.86235,473.663994 C1076.79541,473.663994 1078.36246,472.097543 1078.36246,470.165227 C1078.36246,468.232912 1076.79541,466.66646 1074.86235,466.66646 C1072.92929,466.66646 1071.36224,468.232912 1071.36224,470.165227 C1071.36224,472.097543 1072.92929,473.663994 1074.86235,473.663994 Z M1140.86443,433.678088 C1137.27447,433.678088 1134.36423,430.768965 1134.36423,427.180379 C1134.36423,423.591793 1137.27447,420.682669 1140.86443,420.682669 C1144.4544,420.682669 1147.36464,423.591793 1147.36464,427.180379 C1147.36464,430.768965 1144.4544,433.678088 1140.86443,433.678088 Z M1140.86443,430.679145 C1142.79749,430.679145 1144.36454,429.112694 1144.36454,427.180379 C1144.36454,425.248063 1142.79749,423.681612 1140.86443,423.681612 C1138.93138,423.681612 1137.36432,425.248063 1137.36432,427.180379 C1137.36432,429.112694 1138.93138,430.679145 1140.86443,430.679145 Z M1130.86412,239.746447 C1127.27415,239.746447 1124.36391,236.837323 1124.36391,233.248737 C1124.36391,229.660151 1127.27415,226.751028 1130.86412,226.751028 C1134.45408,226.751028 1137.36432,229.660151 1137.36432,233.248737 C1137.36432,236.837323 1134.45408,239.746447 1130.86412,239.746447 Z M1130.86412,236.747504 C1132.79717,236.747504 1134.36423,235.181053 1134.36423,233.248737 C1134.36423,231.316422 1132.79717,229.749971 1130.86412,229.749971 C1128.93106,229.749971 1127.36401,231.316422 1127.36401,233.248737 C1127.36401,235.181053 1128.93106,236.747504 1130.86412,236.747504 Z M1001.86005,151.777455 C998.270082,151.777455 995.359841,148.868331 995.359841,145.279745 C995.359841,141.691159 998.270082,138.782036 1001.86005,138.782036 C1005.45001,138.782036 1008.36025,141.691159 1008.36025,145.279745 C1008.36025,148.868331 1005.45001,151.777455 1001.86005,151.777455 Z M1001.86005,148.778512 C1003.7931,148.778512 1005.36016,147.212061 1005.36016,145.279745 C1005.36016,143.34743 1003.7931,141.780979 1001.86005,141.780979 C999.926988,141.780979 998.359936,143.34743 998.359936,145.279745 C998.359936,147.212061 999.926988,148.778512 1001.86005,148.778512 Z M855.855438,193.762656 C852.265474,193.762656 849.355233,190.853532 849.355233,187.264946 C849.355233,183.67636 852.265474,180.767236 855.855438,180.767236 C859.445403,180.767236 862.355644,183.67636 862.355644,187.264946 C862.355644,190.853532 859.445403,193.762656 855.855438,193.762656 Z M855.855438,190.763713 C857.788496,190.763713 859.355549,189.197262 859.355549,187.264946 C859.355549,185.332631 857.788496,183.766179 855.855438,183.766179 C853.922381,183.766179 852.355328,185.332631 852.355328,187.264946 C852.355328,189.197262 853.922381,190.763713 855.855438,190.763713 Z M948.858373,216.754551 C945.268409,216.754551 942.358168,213.845428 942.358168,210.256842 C942.358168,206.668256 945.268409,203.759132 948.858373,203.759132 C952.448338,203.759132 955.358579,206.668256 955.358579,210.256842 C955.358579,213.845428 952.448338,216.754551 948.858373,216.754551 Z M948.858373,213.755608 C950.791431,213.755608 952.358484,212.189157 952.358484,210.256842 C952.358484,208.324526 950.791431,206.758075 948.858373,206.758075 C946.925316,206.758075 945.358263,208.324526 945.358263,210.256842 C945.358263,212.189157 946.925316,213.755608 948.858373,213.755608 Z M1104.8633,123.787321 C1101.27333,123.787321 1098.36309,120.878198 1098.36309,117.289612 C1098.36309,113.701026 1101.27333,110.791902 1104.8633,110.791902 C1108.45326,110.791902 1111.3635,113.701026 1111.3635,117.289612 C1111.3635,120.878198 1108.45326,123.787321 1104.8633,123.787321 Z M1104.8633,120.788378 C1106.79635,120.788378 1108.36341,119.221927 1108.36341,117.289612 C1108.36341,115.357296 1106.79635,113.790845 1104.8633,113.790845 C1102.93024,113.790845 1101.36319,115.357296 1101.36319,117.289612 C1101.36319,119.221927 1102.93024,120.788378 1104.8633,120.788378 Z M1135.86428,525.645671 C1132.27431,525.645671 1129.36407,522.736547 1129.36407,519.147961 C1129.36407,515.559375 1132.27431,512.650252 1135.86428,512.650252 C1139.45424,512.650252 1142.36448,515.559375 1142.36448,519.147961 C1142.36448,522.736547 1139.45424,525.645671 1135.86428,525.645671 Z M1135.86428,522.646728 C1137.79733,522.646728 1139.36439,521.080277 1139.36439,519.147961 C1139.36439,517.215646 1137.79733,515.649194 1135.86428,515.649194 C1133.93122,515.649194 1132.36416,517.215646 1132.36416,519.147961 C1132.36416,521.080277 1133.93122,522.646728 1135.86428,522.646728 Z M1006.8602,246.244157 C1009.62171,246.244157 1011.86036,244.006369 1011.86036,241.245918 C1011.86036,238.485468 1009.62171,236.24768 1006.8602,236.24768 C1004.09869,236.24768 1001.86005,238.485468 1001.86005,241.245918 C1001.86005,244.006369 1004.09869,246.244157 1006.8602,246.244157 Z M1135.86428,320.218082 C1138.62579,320.218082 1140.86443,317.980294 1140.86443,315.219843 C1140.86443,312.459393 1138.62579,310.221605 1135.86428,310.221605 C1133.10276,310.221605 1130.86412,312.459393 1130.86412,315.219843 C1130.86412,317.980294 1133.10276,320.218082 1135.86428,320.218082 Z M1035.86112,388.194121 C1038.62263,388.194121 1040.86128,385.956333 1040.86128,383.195883 C1040.86128,380.435432 1038.62263,378.197645 1035.86112,378.197645 C1033.09961,378.197645 1030.86096,380.435432 1030.86096,383.195883 C1030.86096,385.956333 1033.09961,388.194121 1035.86112,388.194121 Z M891.856575,483.160646 C894.618086,483.160646 896.856732,480.922859 896.856732,478.162408 C896.856732,475.401957 894.618086,473.16417 891.856575,473.16417 C889.095064,473.16417 886.856417,475.401957 886.856417,478.162408 C886.856417,480.922859 889.095064,483.160646 891.856575,483.160646 Z M891.856575,610.115896 C894.618086,610.115896 896.856732,607.878109 896.856732,605.117658 C896.856732,602.357207 894.618086,600.11942 891.856575,600.11942 C889.095064,600.11942 886.856417,602.357207 886.856417,605.117658 C886.856417,607.878109 889.095064,610.115896 891.856575,610.115896 Z M1035.86112,641.104973 C1038.62263,641.104973 1040.86128,638.867185 1040.86128,636.106735 C1040.86128,633.346284 1038.62263,631.108496 1035.86112,631.108496 C1033.09961,631.108496 1030.86096,633.346284 1030.86096,636.106735 C1030.86096,638.867185 1033.09961,641.104973 1035.86112,641.104973 Z M1243,254 C1236.92487,254 1232,249.075132 1232,243 C1232,236.924868 1236.92487,232 1243,232 C1249.07513,232 1254,236.924868 1254,243 C1254,249.075132 1249.07513,254 1243,254 Z M1243,248 C1245.76142,248 1248,245.761424 1248,243 C1248,240.238576 1245.76142,238 1243,238 C1240.23858,238 1238,240.238576 1238,243 C1238,245.761424 1240.23858,248 1243,248 Z M1224,104 C1217.92487,104 1213,99.0751322 1213,93 C1213,86.9248678 1217.92487,82 1224,82 C1230.07513,82 1235,86.9248678 1235,93 C1235,99.0751322 1230.07513,104 1224,104 Z M1224,98 C1226.76142,98 1229,95.7614237 1229,93 C1229,90.2385763 1226.76142,88 1224,88 C1221.23858,88 1219,90.2385763 1219,93 C1219,95.7614237 1221.23858,98 1224,98 Z M897,87 C890.924868,87 886,82.0751322 886,76 C886,69.9248678 890.924868,65 897,65 C903.075132,65 908,69.9248678 908,76 C908,82.0751322 903.075132,87 897,87 Z M897,81 C899.761424,81 902,78.7614237 902,76 C902,73.2385763 899.761424,71 897,71 C894.238576,71 892,73.2385763 892,76 C892,78.7614237 894.238576,81 897,81 Z" id="Combined-Shape"></path>
        </g>
    </g>
</svg>