<?xml version="1.0" encoding="UTF-8"?>
<svg width="611px" height="728px" viewBox="0 0 611 728" version="1.1" xmlns="http://www.w3.org/2000/svg" xmlns:xlink="http://www.w3.org/1999/xlink">
    <!-- Generator: Sketch 48.2 (47327) - http://www.bohemiancoding.com/sketch -->
    <title>BG-TKS-Header</title>
    <desc>Created with Sketch.</desc>
    <defs></defs>
    <g id="TKS-2-Exp" stroke="none" stroke-width="1" fill="none" fill-rule="evenodd" transform="translate(-669.000000, -97.000000)" opacity="0.5">
        <g id="Stacked-Group">
            <g id="BG-Hero">
                <g id="Group-2" transform="translate(498.000000, -943.000000)">
                    <g id="BG-TKS-Header" transform="translate(171.000000, 1040.000000)">
                        <g>
                            <path d="M435.789206,248.715416 L147.755519,413.270204" id="Path-9" stroke="#171E42" stroke-width="3"></path>
                            <path d="M291.712347,165.287953 L291.712347,501.853959" id="Path-11" stroke="#171E42" stroke-width="3"></path>
                            <polyline id="Path-2" stroke="#171E42" stroke-width="3" points="436.796839 414.258906 919.179607 668.573637 1113.53741 547.300285"></polyline>
                            <polyline id="Path-4" stroke="#171E42" stroke-width="3" points="437.856895 249.860172 798 102.5 1133.5 258"></polyline>
                            <path d="M558.903325,202.312646 L1088.27985,425.179918" id="Path-5" stroke="#171E42" stroke-width="3"></path>
                            <path d="M577,483.837501 L204.484497,720.23516" id="Path-6" stroke="#171E42" stroke-width="3"></path>
                            <path d="M319.494281,645.771903 L8.33965445,474.345481 L319.494281,645.771903 Z" id="Path-7" stroke="#171E42" stroke-width="3"></path>
                            <path d="" id="Path-12" stroke="#171E42" stroke-width="3"></path>
                            <polyline id="Path-13" stroke="#171E42" stroke-width="3" points="210.829705 11.8984436 487.813946 153.800735 801.103261 22.3910564 1055.14584 22.3910564"></polyline>
                            <circle id="Oval" stroke="#171E42" stroke-width="3" cx="293" cy="329" r="166"></circle>
                            <circle id="Oval-5-Copy-5" fill="#131626" cx="559" cy="202" r="8"></circle>
                            <circle id="Oval-5-Copy-6" fill="#131626" cx="575" cy="484" r="8"></circle>
                            <circle id="Oval-5-Copy-17" fill="#131626" cx="493" cy="310" r="5"></circle>
                            <circle id="Oval-5-Copy-19" fill="#131626" cx="597" cy="300" r="5"></circle>
                            <circle id="Oval-5-Copy-20" fill="#131626" cx="435" cy="189" r="5"></circle>
                            <circle id="Oval-5-Copy-21" fill="#131626" cx="546" cy="78" r="5"></circle>
                            <circle id="Oval-5-Copy-24" fill="#131626" cx="386" cy="528" r="5"></circle>
                            <circle id="Oval-5-Copy-8" fill="#131626" cx="435" cy="414" r="8"></circle>
                            <circle id="Oval-5-Copy-9" fill="#131626" cx="435" cy="250" r="8"></circle>
                            <circle id="Oval-5-Copy-14" fill="#131626" cx="291" cy="165" r="8"></circle>
                            <circle id="Oval-5-Copy-15" fill="#131626" cx="291" cy="331" r="8"></circle>
                            <circle id="Oval-5-Copy-11" fill="#131626" cx="147" cy="414" r="8"></circle>
                            <circle id="Oval-5-Copy-12" fill="#131626" cx="291" cy="500" r="8"></circle>
                            <circle id="Oval-5-Copy-43" fill="#131626" cx="204" cy="720" r="8"></circle>
                            <circle id="Oval-5-Copy-44" fill="#131626" cx="8" cy="474" r="8"></circle>
                            <circle id="Oval-5-Copy-13" fill="#131626" cx="320" cy="645" r="8"></circle>
                            <circle id="Oval-5-Copy-16" fill="#131626" cx="488" cy="153" r="8"></circle>
                            <circle id="Oval-5-Copy-42" fill="#131626" cx="204" cy="8" r="8"></circle>
                        </g>
                    </g>
                </g>
            </g>
        </g>
    </g>
</svg>