<?xml version="1.0" encoding="UTF-8"?>
<svg width="79px" height="105px" viewBox="0 0 79 105" version="1.1" xmlns="http://www.w3.org/2000/svg" xmlns:xlink="http://www.w3.org/1999/xlink">
    <!-- Generator: Sketch 48.2 (47327) - http://www.bohemiancoding.com/sketch -->
    <title>Group23</title>
    <desc>Created with Sketch.</desc>
    <defs>
        <linearGradient x1="0%" y1="-16.5659146%" x2="90.9983369%" y2="100%" id="linearGradient-1">
            <stop stop-color="#00B7FF" offset="0%"></stop>
            <stop stop-color="#0080FF" offset="100%"></stop>
        </linearGradient>
    </defs>
    <g id="Symbols" stroke="none" stroke-width="1" fill="none" fill-rule="evenodd">
        <g id="Group23" fill-rule="nonzero">
            <g id="Group-23">
                <g id="47-antivirus-encryption-flat" fill="url(#linearGradient-1)">
                    <path d="M39.3358876,0 C39.3358876,0 51.2564496,14.4711006 78.6717752,14.4711006 L78.6717752,48.9937201 C78.6717752,67.0210937 70.9333333,84.4063122 56.9226054,95.5454419 C51.9627075,99.4888168 46.1159642,102.880481 39.3358876,104.91548 C32.555811,102.880481 26.7072797,99.4888168 21.7491699,95.5454419 C7.73844189,84.4063122 0,67.0210937 0,48.9937201 L0,14.4711006 C27.4153257,14.4711006 39.3358876,0 39.3358876,0 Z M39.3358876,93.4489412 C43.1318008,91.9421379 46.8061303,89.7859439 50.2945083,87.0129192 C61.3461047,78.2253434 67.9438059,64.0129136 67.9438059,48.9937201 L67.9438059,24.6515199 C54.7287356,22.9475478 45.3453384,18.295089 39.3358876,14.1653986 C33.3264368,18.295089 23.9430396,22.9475478 10.7279693,24.6515199 L10.7279693,48.9937201 C10.7279693,64.0129136 17.3256705,78.2253434 28.3790549,87.0129192 C31.865645,89.7859439 35.5399745,91.9421379 39.3358876,93.4489412 Z" id="Combined-Shape"></path>
                </g>
                <g id="8-keyhole-flat" transform="translate(31.111111, 34.097531)" stroke="#171E42" stroke-width="6">
                    <path d="M18.1481481,9.21984518 C18.1481481,4.12818568 14.0852315,0 9.07407407,0 C4.06291667,0 0,4.12818568 0,9.21984518 C0,12.4364187 1.62425926,15.2657586 4.08106481,16.9149585 L1.13425926,38.0318613 L17.0138889,38.0318613 L14.0670833,16.9149585 C16.5238889,15.2657586 18.1481481,12.4364187 18.1481481,9.21984518" id="Shape"></path>
                </g>
            </g>
        </g>
    </g>
</svg>