<?xml version="1.0" encoding="UTF-8"?>
<svg width="61px" height="80px" viewBox="0 0 61 80" version="1.1" xmlns="http://www.w3.org/2000/svg" xmlns:xlink="http://www.w3.org/1999/xlink">
    <!-- Generator: Sketch 48.2 (47327) - http://www.bohemiancoding.com/sketch -->
    <title>Group 23</title>
    <desc>Created with Sketch.</desc>
    <defs>
        <linearGradient x1="0%" y1="-16.5659146%" x2="90.9983369%" y2="100%" id="linearGradient-1">
            <stop stop-color="#00B7FF" offset="0%"></stop>
            <stop stop-color="#0080FF" offset="100%"></stop>
        </linearGradient>
    </defs>
    <g id="NPX-2-GM" stroke="none" stroke-width="1" fill="none" fill-rule="evenodd" transform="translate(-882.000000, -989.000000)">
        <g id="Pilares" transform="translate(25.000000, 989.000000)" fill-rule="nonzero">
            <g id="Group-23" transform="translate(857.000000, 0.000000)">
                <g id="47-antivirus-encryption-flat" fill="url(#linearGradient-1)">
                    <path d="M30.3448276,0 C30.3448276,0 39.5406897,11.0344828 60.6896552,11.0344828 L60.6896552,37.3586207 C60.6896552,51.1048276 54.72,64.3613793 43.9117241,72.8551724 C40.0855172,75.862069 35.5751724,78.4482759 30.3448276,80 C25.1144828,78.4482759 20.6027586,75.862069 16.777931,72.8551724 C5.96965517,64.3613793 0,51.1048276 0,37.3586207 L0,11.0344828 C21.1489655,11.0344828 30.3448276,0 30.3448276,0 Z M30.3448276,71.2565517 C33.2731034,70.1075862 36.1075862,68.4634483 38.7986207,66.3489655 C47.3241379,59.6482759 52.4137931,48.8110345 52.4137931,37.3586207 L52.4137931,18.7972414 C42.2193103,17.497931 34.9806897,13.9503448 30.3448276,10.8013793 C25.7089655,13.9503448 18.4703448,17.497931 8.27586207,18.7972414 L8.27586207,37.3586207 C8.27586207,48.8110345 13.3655172,59.6482759 21.8924138,66.3489655 C24.582069,68.4634483 27.4165517,70.1075862 30.3448276,71.2565517 Z" id="Combined-Shape"></path>
                </g>
                <g id="8-keyhole-flat" transform="translate(24.000000, 26.000000)" stroke="#171E42" stroke-width="6">
                    <path d="M14,7.03030303 C14,3.14781818 10.86575,0 7,0 C3.13425,0 0,3.14781818 0,7.03030303 C0,9.483 1.253,11.6404242 3.14825,12.8979697 L0.875,29 L13.125,29 L10.85175,12.8979697 C12.747,11.6404242 14,9.483 14,7.03030303" id="Shape"></path>
                </g>
            </g>
        </g>
    </g>
</svg>