<?xml version="1.0" encoding="UTF-8"?>
<svg width="871px" height="1776px" viewBox="0 0 871 1776" version="1.1" xmlns="http://www.w3.org/2000/svg" xmlns:xlink="http://www.w3.org/1999/xlink">
    <!-- Generator: Sketch 48.2 (47327) - http://www.bohemiancoding.com/sketch -->
    <title>IPhoneNPX</title>
    <desc>Created with Sketch.</desc>
    <defs>
        <rect id="path-1" x="0" y="0" width="151" height="13" rx="6.5"></rect>
        <rect id="path-3" x="0" y="0" width="710" height="1335" rx="15"></rect>
        <path d="M125.143299,260.548327 C56.0285636,260.548327 0,202.222597 0,130.274164 C0,58.3257297 56.0285636,0 125.143299,0 C194.258035,0 250.286599,58.3257297 250.286599,130.274164 C250.286599,202.222597 194.258035,260.548327 125.143299,260.548327 Z M125.143299,205.211224 C164.899879,205.211224 197.128955,171.660759 197.128955,130.274164 C197.128955,88.8875677 164.899879,55.3371028 125.143299,55.3371028 C85.3867197,55.3371028 53.157644,88.8875677 53.157644,130.274164 C53.157644,171.660759 85.3867197,205.211224 125.143299,205.211224 Z" id="path-5"></path>
        <rect id="path-7" x="0" y="0" width="605.734266" height="347.39777" rx="15"></rect>
        <rect id="path-9" x="0" y="0" width="607.362146" height="346.485964" rx="15"></rect>
    </defs>
    <g id="Symbols" stroke="none" stroke-width="1" fill="none" fill-rule="evenodd">
        <g id="IPhoneNPX">
            <g id="Group-38">
                <g id="Apple-iPhone-8-flat-light">
                    <g id="Device">
                        <g id="Body">
                            <path d="M867,512.900849 L867,1627 C867,1676.57682 852.845703,1776 716,1776 L155,1776 C19.7480469,1776 5,1677.12891 5,1627 L5,674.897922 C6.23647049,673.636788 7,671.910431 7,670.006349 L7,379.993651 C7,378.088889 6.23718702,376.361327 5,375.099738 L5,149 C5,61.4667969 50.0078125,0 155,0 L719,0 C787.796875,-1.08235242e-14 867,29.7890625 867,149 L867,375.101993 C865.76353,376.363075 865,378.089363 865,379.993367 L865,508.006633 C865,509.911969 865.762813,511.639469 867,512.900849 Z" id="Phone-Shape" fill="#C1CED9"></path>
                            <path d="M851,149 C851,98.2289943 835.982506,63.6778023 808.904368,42.369667 C786.224178,24.5223336 754.920574,16 719,16 L155,16 C108.403133,16 74.3941264,28.7734689 52.3644539,52.5495143 C31.6299618,74.9277056 21,107.709917 21,149 L21,1627 C21,1659.2199 27.2324184,1688.31191 42.605699,1711.44173 C63.1966652,1742.4218 98.8734326,1760 155,1760 L716,1760 C772.817108,1760 808.81835,1742.3317 829.492929,1711.23324 C844.854193,1688.127 851,1659.2305 851,1627 L851,149 Z" id="Glass" fill="#E6EBEF"></path>
                            <g id="Antenna" transform="translate(5.000000, 140.000000)" fill="#E6EBEF">
                                <path d="M0,2 C0,2 5.21191406,1.42997454e-08 16,0 L16,25 C5.52832031,25.888916 0,28 0,28 L0,2 Z" id="Top-Left"></path>
                                <path d="M846,2 C846,2 851.211914,1.42997454e-08 862,0 L862,25 C851.52832,25.888916 846,28 846,28 L846,2 Z" id="Top-Right" transform="translate(854.000000, 14.000000) scale(-1, 1) translate(-854.000000, -14.000000) "></path>
                                <path d="M0,1472 C0,1472 5.21191406,1470 16,1470 L16,1496 C4.62646484,1495.6001 0,1497 0,1497 L0,1472 Z" id="Bottom-Left" transform="translate(8.000000, 1483.500000) scale(1, -1) translate(-8.000000, -1483.500000) "></path>
                                <path d="M846,1472 C846,1472 851.211914,1470 862,1470 L862,1496 C850.626465,1495.6001 846,1497 846,1497 L846,1472 Z" id="Bottom-Right" transform="translate(854.000000, 1483.500000) scale(-1, -1) translate(-854.000000, -1483.500000) "></path>
                            </g>
                            <g id="Plug" transform="translate(377.000000, 1772.000000)" fill="#E2E3E4" opacity="0.902810168">
                                <path d="M9.06835938,-8.21844994e-05 C13.0398288,0.0421463278 19.9958646,0.00776848745 19.9958646,0.00776848745 C21.102718,0.00343268106 22.8957251,-8.21844994e-05 23.9984678,-8.21844994e-05 L94.0015322,-8.21844994e-05 C95.1052555,-8.21844994e-05 96.8932055,-8.21847067e-05 98.0074346,-8.21849297e-05 C98.0074346,-8.21849297e-05 104.825179,-8.21867901e-05 109.105225,-8.21844994e-05 C113.38527,-8.21822087e-05 118,3.99958921 118,3.99958921 L0,3.99958921 C0,3.99958921 5.09688994,-0.0423106968 9.06835938,-8.21844994e-05 Z" id="Lightning-Connector"></path>
                            </g>
                            <g id="Silent-Button" transform="translate(0.000000, 227.000000)" fill="#F3F3F3">
                                <path d="M0,3.0078125 C0,1.34664353 1.34967041,0 3.00925446,0 L7,0 L7,70 L3.00925446,70 C1.34728911,70 0,68.6641634 0,66.9921875 L0,3.0078125 Z" id="Rectangle"></path>
                            </g>
                            <g id="Volume-Up-Button" transform="translate(1.000000, 379.000000)" fill="#F3F3F3">
                                <path d="M0,2.99796231 C0,1.34223344 1.34967041,0 3.00925446,0 L7,0 L7,131 L3.00925446,131 C1.34728911,131 0,129.660776 0,128.002038 L0,2.99796231 Z" id="Rectangle-"></path>
                            </g>
                            <g id="Volume-Down-Button" transform="translate(1.000000, 540.000000)" fill="#F3F3F3">
                                <path d="M0,3.0050168 C0,1.34539185 1.34967041,-1.11022302e-16 3.00925446,-1.11022302e-16 L7,-1.11022302e-16 L7,130.994666 C7,131.549897 6.56211865,132 5.99707067,132 L3.00925446,132 C1.34728911,132 0,130.650553 0,128.994983 L0,3.0050168 Z" id="Rectangle"></path>
                            </g>
                            <g id="Sleep-Button" transform="translate(867.500000, 444.000000) scale(-1, 1) translate(-867.500000, -444.000000) translate(864.000000, 378.000000)" fill="#E6EBEF">
                                <path d="M0,3.0050168 C0,1.34539185 1.33312307,0.190446153 2.96863019,0.424090028 L4.03136981,0.575909972 C5.67089899,0.810128427 7,2.35041883 7,3.99070607 L7,128.009294 C7,129.661015 5.66687693,131.190446 4.03136981,131.42409 L2.96863019,131.57591 C1.32910101,131.810128 0,130.650553 0,128.994983 L0,3.0050168 Z" id="Rectangle-"></path>
                            </g>
                        </g>
                        <g id="Front" transform="translate(56.000000, 102.000000)">
                            <path d="M380,1610 L380,1610 C413.137085,1610 440,1583.13708 440,1550 C440,1516.86292 413.137085,1490 380,1490 C346.862915,1490 320,1516.86292 320,1550 C320,1583.13708 346.862915,1610 380,1610 L380,1610 Z M380,1618 L380,1618 C342.444637,1618 312,1587.55536 312,1550 C312,1512.44464 342.444637,1482 380,1482 C417.555363,1482 448,1512.44464 448,1550 C448,1587.55536 417.555363,1618 380,1618 L380,1618 Z" id="Home-Button" fill="#C1CED9" fill-rule="nonzero"></path>
                            <g id="Speaker" opacity="0.801364272" transform="translate(305.000000, 8.000000)">
                                <mask id="mask-2" fill="white">
                                    <use xlink:href="#path-1"></use>
                                </mask>
                                <use id="Mask" fill="#C1CED9" xlink:href="#path-1"></use>
                            </g>
                            <g id="Camera" transform="translate(229.000000, 0.000000)" fill="#C1CED9">
                                <circle id="Oval" cx="14.5" cy="14.5" r="14.5"></circle>
                            </g>
                            <path d="M5,112 L755,112 C757.761424,112 760,114.238576 760,117 L760,1451 C760,1453.76142 757.761424,1456 755,1456 L5,1456 C2.23857625,1456 0,1453.76142 0,1451 L0,117 C0,114.238576 2.23857625,112 5,112 Z" id="Screen-Border" fill="#F3F3F3"></path>
                        </g>
                    </g>
                    <rect id="Screen" fill="#616A98" x="61" y="219" width="750" height="1334"></rect>
                </g>
                <g id="Dash-Mobile" transform="translate(81.000000, 219.000000)">
                    <g id="Group-6-+-Waves-+-Stroke-Graph-Mask">
                        <mask id="mask-4" fill="white">
                            <use xlink:href="#path-3"></use>
                        </mask>
                        <use id="Mask" fill="#616A98" xlink:href="#path-3"></use>
                        <g id="Group-6" mask="url(#mask-4)">
                            <g transform="translate(322.727273, 913.159851)">
                                <rect id="Rectangle-2" fill="#E6EBEF" x="0" y="0" width="607.362146" height="346.485964" rx="15"></rect>
                                <g id="chart" stroke-width="1" fill="none" transform="translate(208.207460, 175.343288) rotate(-285.000000) translate(-208.207460, -175.343288) translate(82.707460, 44.843288)">
                                    <mask id="mask-6" fill="white">
                                        <use xlink:href="#path-5"></use>
                                    </mask>
                                    <use id="part" fill="#008BFF" xlink:href="#path-5"></use>
                                    <polygon id="part" fill="#00A8FF" mask="url(#mask-6)" points="125.030406 130.308434 0 38.248562 0 0 249.097281 0 250.286599 142.433086"></polygon>
                                    <path d="M-6.17157263,260.548327 C-3.89108206,260.548327 123.474722,131.053391 123.474722,131.053391 L-2.23460291,0 C-2.23460291,0 -8.45206319,260.548327 -6.17157263,260.548327 Z" id="part" fill="#5EC5B3" mask="url(#mask-6)"></path>
                                </g>
                            </g>
                        </g>
                        <g id="Waves" mask="url(#mask-4)">
                            <g transform="translate(322.727273, 89.330855)">
                                <mask id="mask-8" fill="white">
                                    <use xlink:href="#path-7"></use>
                                </mask>
                                <use id="Mask" stroke="none" fill="#E6EBEF" fill-rule="evenodd" xlink:href="#path-7"></use>
                                <path d="M0,371.83604 L0,316.854461 C0,316.854461 27.0885296,267.822171 47.7275998,226.054871 C68.36667,184.287572 86.1832838,140.73548 108.248318,149.743197 C130.313352,158.750913 168.687423,229.19008 200.907632,216.763889 C233.127841,204.337698 274.187213,129.142251 304.256007,132.84686 C334.324802,136.551469 369.971632,227.833695 406.782584,214.033236 C443.593535,200.232776 467.595749,134.653081 511.136388,125.628857 C554.677028,116.604633 605.734266,114.144981 605.734266,114.144981 L605.734266,371.757706 L0,371.83604 Z" id="chart-2" stroke="none" fill="#00A8FF" fill-rule="evenodd" mask="url(#mask-8)" transform="translate(302.867133, 242.990511) scale(-1, 1) translate(-302.867133, -242.990511) "></path>
                                <path d="M0,371.83604 L0,356.710885 C0,356.710885 69.1527252,235.373113 105.718817,242.251208 C142.284908,249.129304 176.738756,298.311094 202.989793,289.977021 C229.24083,281.642948 258.819048,235.454833 300.500127,242.77694 C342.181206,250.099048 346.886677,297.589235 400.692171,287.040551 C454.497665,276.491867 473.055234,252.867992 516.217833,241.986981 C559.380433,231.105969 605.734266,218.52617 605.734266,218.52617 L605.637909,371.83604 L0,371.83604 Z" id="chart-1" stroke="none" fill="#008BFF" fill-rule="evenodd" mask="url(#mask-8)" transform="translate(302.867133, 295.181105) scale(-1, 1) translate(-302.867133, -295.181105) "></path>
                            </g>
                        </g>
                        <g id="Stroke-Graph" mask="url(#mask-4)">
                            <g transform="translate(322.727273, 501.245353)">
                                <mask id="mask-10" fill="white">
                                    <use xlink:href="#path-9"></use>
                                </mask>
                                <use id="Mask" stroke="none" fill="#E6EBEF" fill-rule="evenodd" xlink:href="#path-9"></use>
                                <g id="blue" stroke="none" stroke-width="1" fill="none" fill-rule="evenodd" mask="url(#mask-10)">
                                    <g transform="translate(-1.337155, 57.000000)"></g>
                                </g>
                                <g id="green" stroke="none" stroke-width="1" fill="none" fill-rule="evenodd" mask="url(#mask-10)">
                                    <g transform="translate(-5.674309, 89.000000)" fill-rule="nonzero" id="line">
                                        <path d="M409.692854,135.485242 C409.180143,135.039068 408.653768,134.930915 408.132988,135.164742 L350.222981,161.165917 C349.705375,161.398318 349.182222,161.292905 348.672434,160.853488 L288.786187,109.233932 C288.357878,108.864746 287.919778,108.731027 287.483107,108.836199 L231.334346,122.359617 C231.003854,122.439216 230.67228,122.382037 230.344504,122.188922 L143.443537,70.9897434 C142.683931,70.5422088 141.909764,70.8280503 141.180962,71.825142 L85.9036506,147.45132 C85.3589314,148.196563 84.7874654,148.546351 84.2142484,148.485384 L1.21724059,139.657833 C1.01924142,139.636774 0.825284985,139.420057 0.651381784,139.025572 C0.0457642077,137.651778 -0.177555044,134.49513 0.152584275,131.975001 C0.752950649,127.392085 1.91930554,124.593314 3.17323575,124.726682 L75.9433793,132.466504 C76.5165964,132.527471 77.0880624,132.177684 77.6327815,131.432441 L136.393261,51.0408588 C137.122063,50.043767 137.89623,49.7579255 138.655836,50.2054602 L233.237072,105.9296 C233.564848,106.122714 233.896422,106.179893 234.226913,106.100294 L292.237893,92.1283617 C292.674564,92.0231896 293.112664,92.1569086 293.540974,92.5260945 L351.729968,142.682686 C352.239756,143.122104 352.762909,143.227517 353.280515,142.995115 L411.243811,116.970013 C411.764591,116.736187 412.290966,116.844339 412.803678,117.290514 L611.70535,290.379839 C612.199254,290.809647 612.587218,292.400976 612.697609,294.449833 C612.853093,297.335619 612.416954,300.199516 611.723465,300.846527 L606.984741,305.267653 C606.288135,305.91757 605.566162,305.939207 604.867379,305.331109 L409.692854,135.485242 Z" fill="#00A8FF"></path>
                                        <path d="M415.946513,210.222773 C415.698046,210.159471 415.448789,210.173471 415.200823,210.264658 L345.717972,235.816009 C345.356789,235.948829 344.993205,235.917767 344.633636,235.72337 L279.880796,200.715542 C279.718889,200.628009 279.55605,200.573529 279.392862,200.552296 L198.673009,190.049676 C198.544286,190.032928 198.415767,189.99549 198.287738,189.937448 L144.127288,165.383413 C143.45054,165.076604 142.765863,165.348091 142.115219,166.181235 L103.989398,215.000957 C103.432681,215.713828 102.850312,216.01642 102.268563,215.895084 L3.03781071,195.198388 C2.75475209,195.13935 2.48828444,194.624887 2.29467104,193.763625 C1.88248115,191.930055 1.90553561,189.053187 2.34616461,187.33796 L2.67917951,186.04164 C3.66879787,182.189373 4.99179037,180.173591 6.34521158,180.455876 L95.0873176,198.96494 C95.6690661,199.086276 96.2514355,198.783683 96.8081526,198.070813 L136.754274,146.920215 C137.404918,146.087071 138.089595,145.815584 138.766343,146.122393 L203.360811,175.406765 C203.488839,175.464808 203.617359,175.502245 203.746082,175.518994 L285.099543,186.104054 C285.262731,186.125287 285.42557,186.179767 285.587477,186.2673 L346.059022,218.960498 C346.418591,219.154895 346.782175,219.185957 347.143358,219.053137 L414.213728,194.388942 C414.461695,194.297756 414.710951,194.283755 414.959418,194.347057 L616.499648,245.693259 C616.808446,245.771931 617.093855,246.404185 617.281959,247.42628 C617.640435,249.374112 617.551577,252.162412 617.083489,253.65412 L616.295761,256.164464 C615.339863,259.210733 614.151909,260.719362 612.950147,260.41319 L415.946513,210.222773 Z" fill="#5EC5B3"></path>
                                    </g>
                                </g>
                            </g>
                        </g>
                    </g>
                    <ellipse id="Oval" stroke="#F6F9FC" stroke-width="16" cx="111.5" cy="106" rx="37.5" ry="37"></ellipse>
                    <rect id="Rectangle-3" fill="#E6EBEF" x="55" y="213" width="189" height="20" rx="10"></rect>
                    <rect id="Rectangle-3-Copy" fill="#E6EBEF" x="55" y="313" width="189" height="20" rx="10"></rect>
                    <rect id="Rectangle-3-Copy-2" fill="#E6EBEF" x="55" y="516" width="189" height="20" rx="10"></rect>
                    <rect id="Rectangle-3-Copy-3" fill="#E6EBEF" x="55" y="417" width="189" height="20" rx="10"></rect>
                    <rect id="Rectangle-3-Copy-4" fill="#E6EBEF" x="55" y="620" width="189" height="20" rx="10"></rect>
                    <rect id="Rectangle-3-Copy-5" fill="#E6EBEF" x="55" y="720" width="189" height="20" rx="10"></rect>
                </g>
            </g>
        </g>
    </g>
</svg>