<?xml version="1.0" encoding="UTF-8"?>
<svg width="3784px" height="2188px" viewBox="0 0 3784 2188" version="1.1" xmlns="http://www.w3.org/2000/svg" xmlns:xlink="http://www.w3.org/1999/xlink">
    <!-- Generator: Sketch 48.2 (47327) - http://www.bohemiancoding.com/sketch -->
    <title>MacbookNPX</title>
    <desc>Created with Sketch.</desc>
    <defs>
        <circle id="path-1" cx="10.5" cy="10.5" r="5.43103448"></circle>
        <path d="M291.5,583 C130.508995,583 0,452.491005 0,291.5 C0,130.508995 130.508995,0 291.5,0 C452.491005,0 583,130.508995 583,291.5 C583,452.491005 452.491005,583 291.5,583 Z M291.5,459.178323 C384.10618,459.178323 459.178323,384.10618 459.178323,291.5 C459.178323,198.89382 384.10618,123.821677 291.5,123.821677 C198.89382,123.821677 123.821677,198.89382 123.821677,291.5 C123.821677,384.10618 198.89382,459.178323 291.5,459.178323 Z" id="path-3"></path>
        <rect id="path-5" x="0" y="0" width="1966" height="807.955353" rx="15"></rect>
        <rect id="path-7" x="0" y="0" width="931" height="710.21321" rx="15"></rect>
    </defs>
    <g id="Symbols" stroke="none" stroke-width="1" fill="none" fill-rule="evenodd">
        <g id="MacbookNPX">
            <g id="Group-39">
                <g id="Apple-Macbook-Pro-flat-light">
                    <g id="Device" transform="translate(0.125000, 0.123872)">
                        <g id="Top" transform="translate(350.000000, 0.000000)">
                            <rect id="Frame" fill="#F3F3F3" x="0" y="0" width="3084" height="2127" rx="109.070733"></rect>
                            <path d="M7,112.924071 C7,54.4238218 54.4336399,7 112.926748,7 L2971.07325,7 C3029.57498,7 3077,54.422775 3077,112.924071 L3077,2016.07593 C3077,2074.57618 3029.56636,2122 2971.07325,2122 L112.926748,2122 C54.4250205,2122 7,2074.57722 7,2016.07593 L7,112.924071 L7,112.924071 Z" id="Glass-border" fill="#C1CED9"></path>
                            <path d="M17.875,114.87869 C17.875,60.7533696 61.7462355,16.8761284 115.867412,16.8761284 L2968.88259,16.8761284 C3023.0023,16.8761284 3066.875,60.7516063 3066.875,114.87869 L3066.875,1967.88327 C3066.875,1994.38899 3045.38609,2015.87613 3018.86735,2015.87613 L65.882655,2015.87613 C39.3687593,2015.87613 17.875,1994.38163 17.875,1967.88327 L17.875,114.87869 Z" id="Glass" fill="#E6EBEF"></path>
                            <g id="Camera" transform="translate(1532.000000, 63.000000)">
                                <circle id="Oval" fill="#F3F3F3" cx="10.5" cy="10.5" r="10.5"></circle>
                                <mask id="mask-2" fill="white">
                                    <use xlink:href="#path-1"></use>
                                </mask>
                                <use id="Mask" fill="#E2E3E4" xlink:href="#path-1"></use>
                            </g>
                        </g>
                        <g id="Base" transform="translate(0.000000, 2064.020060)">
                            <path d="M0,67.4924774 C3.71768015e-14,47.9909418 1.62572286e-15,2.24483855 1.62572286e-15,2.24483855 C7.27860916e-16,1.00504845 1.00913031,0 2.25365959,0 L3779.99634,0 C3781.241,0 3782.25,1.01473607 3782.25,2.24483855 L3782.25,67.4924774 C3782.25,86.994013 3658.50495,121.486459 3501,121.486459 L3309.75,121.486459 L2837.25,121.486459 L1891.125,121.486459 L946.125,121.486459 L473.625,121.486459 L282.375,121.486459 C113.626925,121.486459 0,86.994013 0,67.4924774 Z" id="Bottom" fill="#F3F3F3"></path>
                            <path d="M0,2.24559551 C0,1.00538735 1.00913031,0 2.25365959,0 L3779.99634,0 C3781.241,0 3782.25,1.00645951 3782.25,2.24559551 L3782.25,66.3773302 C3782.25,66.993209 3781.74082,67.4924774 3781.12069,67.4924774 L1.12930556,67.4924774 C0.505607322,67.4924774 0,66.9880182 0,66.3773302 L0,2.24559551 Z" id="Front" fill="#E6EBEF"></path>
                            <path d="M2158.875,-3.34169781e-13 C2158.875,23.6075418 2139.7382,42.7452357 2116.13244,42.7452357 L1667.24256,42.7452357 C1643.6365,42.7452357 1624.5,23.6074695 1624.5,-3.34169781e-13 C1624.5,-2.4079532e-07 2158.875,6.35048571e-08 2158.875,-3.34169781e-13 Z" id="Opening" fill="#96A7B6" fill-rule="nonzero"></path>
                        </g>
                    </g>
                    <rect id="Screen" fill="#C8D7E3" x="452.125" y="133.123872" width="2880" height="1800"></rect>
                </g>
                <g id="Dash-Desktop" transform="translate(574.000000, 223.000000)">
                    <ellipse id="Oval" stroke="#00A8FF" stroke-width="30" cx="98.5" cy="160" rx="83.5" ry="81"></ellipse>
                    <rect id="Rectangle-3" fill="#171E42" x="0" y="462" width="394" height="30" rx="15"></rect>
                    <rect id="Rectangle-3-Copy" fill="#171E42" x="0" y="669" width="394" height="30" rx="15"></rect>
                    <rect id="Rectangle-3-Copy-2" fill="#171E42" x="0" y="871" width="394" height="30" rx="15"></rect>
                    <rect id="Rectangle-3-Copy-3" fill="#171E42" x="0" y="1083" width="394" height="30" rx="15"></rect>
                    <rect id="Rectangle-3-Copy-4" fill="#171E42" x="0" y="1290" width="394" height="30" rx="15"></rect>
                    <rect id="Rectangle-3-Copy-5" fill="#171E42" x="0" y="1495" width="394" height="30" rx="15"></rect>
                    <rect id="Rectangle-2" fill="#E6EBEF" x="1689" y="908" width="931" height="712" rx="15"></rect>
                    <g id="chart" transform="translate(1867.000000, 972.000000)">
                        <mask id="mask-4" fill="white">
                            <use xlink:href="#path-3"></use>
                        </mask>
                        <use id="part" fill="#008BFF" xlink:href="#path-3"></use>
                        <polygon id="part" fill="#00A8FF" mask="url(#mask-4)" points="291.237035 294.758199 0 86.5184007 0 0 580.229688 0 583 322.184211"></polygon>
                        <path d="M-14.1568427,583 C-8.78030994,583 291.5,293.243591 291.5,293.243591 L-4.87495971,0 C-4.87495971,0 -19.5333754,583 -14.1568427,583 Z" id="part" fill="#5EC5B3" mask="url(#mask-4)"></path>
                    </g>
                    <g id="Waves" transform="translate(632.000000, 0.000000)">
                        <mask id="mask-6" fill="white">
                            <use xlink:href="#path-5"></use>
                        </mask>
                        <use id="Mask" fill="#E6EBEF" xlink:href="#path-5"></use>
                        <path d="M0,835.717043 L0,702.25759 C0,702.25759 87.9198227,583.239134 154.906972,481.855341 C221.894122,380.471547 279.720573,274.755443 351.335899,296.62031 C422.951225,318.485176 547.499938,489.465585 652.075385,459.302888 C756.650831,429.140191 889.915085,246.614636 987.507798,255.607013 C1085.10051,264.59939 1200.79756,486.173166 1320.27294,452.674641 C1439.74832,419.176116 1517.65105,259.991339 1658.96862,238.086403 C1800.2862,216.181466 1966,210.211035 1966,210.211035 L1966,835.526899 L0,835.717043 Z" id="chart-2" fill="#00A8FF" mask="url(#mask-6)"></path>
                        <path d="M0,835.558312 L0,798.577328 C0,798.577328 224.44538,501.906641 343.12603,518.723576 C461.806679,535.540511 573.63173,655.78992 658.833347,635.413123 C744.034964,615.036326 840.035437,502.106446 975.317533,520.008989 C1110.59963,537.911532 1125.87193,654.024974 1300.50561,628.233457 C1475.13928,602.441941 1535.37061,544.681597 1675.4612,518.077539 C1815.55179,491.473481 1966,460.715889 1966,460.715889 L1965.68726,835.558312 L0,835.558312 Z" id="chart-1" fill="#008BFF" mask="url(#mask-6)"></path>
                    </g>
                    <g id="Stroke-Graph" transform="translate(632.000000, 908.000000)">
                        <mask id="mask-8" fill="white">
                            <use xlink:href="#path-7"></use>
                        </mask>
                        <use id="Mask" fill="#E6EBEF" xlink:href="#path-7"></use>
                        <g id="blue" mask="url(#mask-8)">
                            <g transform="translate(-1.330832, 57.000000)"></g>
                        </g>
                        <g id="green" mask="url(#mask-8)" fill-rule="nonzero">
                            <g transform="translate(-8.359287, 276.348182)" id="line">
                                <path d="M315.585538,146.194506 L19.7414476,432.335534 C17.7565472,434.255333 14.5911622,434.202559 12.6713623,432.217659 C12.6696638,432.215902 12.6679665,432.214145 12.6662705,432.212386 L1.83980935,420.985913 C-0.075092034,419.00026 -0.0200670419,415.83891 1.96277619,413.9211 L310.817087,115.19656 C312.340995,113.722633 314.628781,113.370011 316.52578,114.316666 L401.462264,156.702334 C403.351435,157.645083 405.629177,157.299567 407.15378,155.838974 L493.943142,72.6934167 C495.205128,71.4844146 497.006783,71.0220712 498.694997,71.4739886 L584.507826,94.445199 C585.882661,94.8132281 587.349183,94.5779151 588.53986,93.7982326 L729.998936,1.16760967 C732.305911,-0.343050523 735.400411,0.299246254 736.915614,2.60324081 L825.508006,137.31548 C826.548213,138.897203 828.392528,139.755803 830.272552,139.533561 L938.244762,126.768185 C940.987092,126.444007 943.472987,128.404307 943.797164,131.146636 C943.797231,131.147201 943.797298,131.147766 943.797364,131.148332 L945.621677,146.655343 C945.94484,149.39712 943.984693,151.881949 941.243025,152.206048 L817.594483,166.824563 C815.714459,167.046805 813.870144,166.188205 812.829937,164.606481 L729.576748,38.0129529 C728.061545,35.7089583 724.967045,35.0666615 722.66007,36.5773217 L592.973756,121.498872 C591.783079,122.278555 590.316557,122.513868 588.941722,122.145839 L505.983409,99.9387528 C504.295196,99.4868354 502.493541,99.9491789 501.231555,101.158181 L411.840545,186.796157 C410.315943,188.25675 408.038201,188.602266 406.149029,187.659517 L321.294231,145.314612 C319.397232,144.367957 317.109446,144.720579 315.585538,146.194506 Z" fill="#00A8FF"></path>
                                <path d="M311.746227,273.488337 L12.809464,358.139271 C10.1525037,358.891616 7.38871567,357.34762 6.6363707,354.69066 C6.63602193,354.689428 6.63567364,354.688196 6.63532582,354.686964 L2.40087898,339.660508 C1.65098241,337.004414 3.19501758,334.243047 5.85053501,333.49111 L313.259303,246.44124 C314.333886,246.136962 315.479405,246.201213 316.513222,246.62375 L416.81165,287.617322 C418.271343,288.213921 419.926939,288.08696 421.278597,287.274768 L512.163854,232.663135 C512.733532,232.320823 513.365739,232.09552 514.023509,232.000399 L637.595247,214.130511 C638.129415,214.053264 638.647553,213.89004 639.129547,213.647173 L735.425293,165.1258 C737.640854,164.009426 740.339942,164.686481 741.766267,166.716406 L801.378891,251.556224 C802.549914,253.222806 804.61484,254.012457 806.599082,253.552481 L939.067688,222.841064 C941.757778,222.217463 944.444055,223.892683 945.067656,226.582773 C945.067899,226.583819 945.068141,226.584866 945.068383,226.585912 L948.578021,241.798884 C949.199604,244.488149 947.524449,247.172395 944.835585,247.795712 L795.591252,282.395984 C793.60701,282.855959 791.542084,282.066309 790.371061,280.399726 L733.548699,199.530969 C732.122374,197.501044 729.423285,196.82399 727.207725,197.940363 L646.905847,238.402767 C646.423853,238.645634 645.905716,238.808858 645.371548,238.886105 L522.771042,256.615542 C522.113271,256.710663 521.481065,256.935966 520.911386,257.278277 L423.463511,315.833293 C422.111854,316.645484 420.456257,316.772446 418.996565,316.175846 L315.000146,273.670847 C313.966329,273.24831 312.82081,273.184058 311.746227,273.488337 Z" fill="#5EC5B3"></path>
                            </g>
                        </g>
                    </g>
                </g>
            </g>
        </g>
    </g>
</svg>