<?xml version="1.0" encoding="UTF-8"?>
<svg width="40px" height="40px" viewBox="0 0 40 40" version="1.1" xmlns="http://www.w3.org/2000/svg" xmlns:xlink="http://www.w3.org/1999/xlink">
    <!-- Generator: Sketch 48.2 (47327) - http://www.bohemiancoding.com/sketch -->
    <title>XMLIcon Copy</title>
    <desc>Created with Sketch.</desc>
    <defs></defs>
    <g id="Symbols" stroke="none" stroke-width="1" fill="none" fill-rule="evenodd">
        <g id="XMLIcon-Copy">
            <g id="24-xml-file-flat">
                <path d="M1.05541528,0 L21.9920266,7.28339261e-16 C22.1601139,7.28339261e-16 22.3217086,0.0469313544 22.4407404,0.129692022 L31.0204082,8.54606027 C31.0992818,10.2342235 31.0992818,16.6372375 31.0204082,27.755102 L0,27.755102 L0,0.97193321 C0,0.330538033 0.472520171,0 1.05541528,0 Z M12.9593305,22.8571429 C13.2535909,22.8571429 13.5292814,22.6701689 13.6328439,22.3699881 L17.9181891,9.95374953 C18.0496063,9.57322834 17.8546231,9.15618879 17.4825123,9.02180127 C17.108973,8.88668338 16.7025795,9.08680393 16.5711622,9.46732512 L12.2858171,21.8835637 C12.1543998,22.2640849 12.3500973,22.6811244 12.7214938,22.8155119 C12.8000585,22.8439963 12.8807658,22.8571429 12.9593305,22.8571429 Z M11.3471604,19.7689558 L7.39653645,15.925171 L11.3588714,11.8556801 C11.594757,11.6134153 11.5895857,11.2257978 11.3473208,10.9899121 C11.105056,10.7540265 10.7174385,10.7591979 10.4815528,11.0014627 L6.09195296,15.5097733 C5.85600634,15.7521008 5.86125023,16.1398395 6.10366397,16.3756975 L10.4932639,20.6465866 C10.7356149,20.8823837 11.1232305,20.8770705 11.3590276,20.6347195 C11.5948246,20.3923684 11.5895115,20.0047528 11.3471604,19.7689558 Z M19.1648885,11.8673869 L23.1155124,15.7111716 L19.1531775,19.7806625 C18.9172918,20.0229273 18.9224632,20.4105449 19.164728,20.6464305 C19.4069929,20.8823161 19.7946104,20.8771448 20.030496,20.6348799 L24.4200959,16.1265693 C24.6560425,15.8842418 24.6507986,15.4965032 24.4083849,15.2606452 L20.018785,10.989756 C19.7764339,10.753959 19.3888183,10.7592721 19.1530213,11.0016232 C18.9172243,11.2439742 18.9225374,11.6315899 19.1648885,11.8673869 Z" id="Combined-Shape" fill="#171E42" fill-rule="nonzero"></path>
                <polyline id="Shape" fill="#008BFF" fill-rule="nonzero" points="22.0408163 0 22.0408163 8.16326531 30.2040816 8.16326531 22.0408163 0"></polyline>
                <path d="M29.9649929,40 L1.05541528,40 C0.472520171,40 0,39.5282113 0,38.9462185 L0,27.755102 L31.0204082,27.755102 L31.0204082,38.9462185 C31.0204082,39.5282113 30.547888,40 29.9649929,40" id="Shape" fill="#008BFF" fill-rule="nonzero"></path>
                <polyline id="Shape" fill="#FFFFFF" fill-rule="nonzero" points="9.37947135 33.9818198 11.3050682 37.5510204 9.87348445 37.5510204 8.66932751 34.7795124 8.56615709 34.7795124 7.26861962 37.5510204 5.83778899 37.5510204 7.76263273 33.9818198 5.71428571 30.2040816 7.12478349 30.2040816 8.46298667 33.1943353 8.56615709 33.1943353 10.0180737 30.2040816 11.4285714 30.2040816 9.37947135 33.9818198"></polyline>
                <polyline id="Shape" fill="#FFFFFF" fill-rule="nonzero" points="18.4217979 30.2040816 19.5918367 30.2040816 19.5918367 37.5510204 18.4217979 37.5510204 18.4217979 32.4965365 16.8392994 36.5841644 15.8228808 36.5841644 14.2305618 32.4965365 14.2305618 37.5510204 13.0612245 37.5510204 13.0612245 30.2040816 14.2305618 30.2040816 16.3314408 35.2286703 18.4217979 30.2040816"></polyline>
                <polyline id="Shape" fill="#FFFFFF" fill-rule="nonzero" points="22.5206656 30.2040816 22.5206656 36.6439549 26.122449 36.6439549 26.122449 37.5510204 21.2244898 37.5510204 21.2244898 30.2040816 22.5206656 30.2040816"></polyline>
                <g id="path-1-link" transform="translate(18.775510, 15.510204)"></g>
                <g id="Group-9" transform="translate(5.714286, 8.979592)" fill="#F6F9FC" fill-rule="nonzero" opacity="0.800000012">
                    <path d="M7.24504478,13.877551 C7.16648012,13.877551 7.08577279,13.8644044 7.00720812,13.8359201 C6.63581155,13.7015326 6.44011412,13.284493 6.57153137,12.9039718 L10.8568765,0.487733287 C10.9882938,0.107212094 11.3946873,-0.0929084569 11.7682266,0.0422094332 C12.1403374,0.176596956 12.3353206,0.593636499 12.2039033,0.974157692 L7.91855819,13.3903962 C7.81499569,13.6905771 7.53930515,13.877551 7.24504478,13.877551" id="Shape"></path>
                    <path d="M5.63287469,10.7893639 C5.87522576,11.0251609 5.88053887,11.4127766 5.64474185,11.6551276 C5.40894483,11.8974787 5.02132922,11.9027918 4.77897814,11.6669948 L0.389378258,7.39610565 C0.146964516,7.16024765 0.141720626,6.77250898 0.377667249,6.5301815 L4.76726713,2.02187088 C5.00315276,1.77960605 5.39077029,1.77443468 5.63303512,2.01032031 C5.87529996,2.24620594 5.88047132,2.63382347 5.6445857,2.8760883 L1.68225074,6.9455792 L5.63287469,10.7893639 Z" id="Line-4"></path>
                    <path d="M18.6940992,10.7893639 C18.9364503,11.0251609 18.9417634,11.4127766 18.7059663,11.6551276 C18.4701693,11.8974787 18.0825537,11.9027918 17.8402026,11.6669948 L13.4506027,7.39610565 C13.208189,7.16024765 13.2029451,6.77250898 13.4388917,6.5301815 L17.8284916,2.02187088 C18.0643773,1.77960605 18.4519948,1.77443468 18.6942596,2.01032031 C18.9365244,2.24620594 18.9416958,2.63382347 18.7058102,2.8760883 L14.7434752,6.9455792 L18.6940992,10.7893639 Z" id="Line-4-Copy-2" transform="translate(16.072351, 6.838579) rotate(-180.000000) translate(-16.072351, -6.838579) "></path>
                </g>
            </g>
        </g>
    </g>
</svg>