<?xml version="1.0" encoding="UTF-8"?>
<svg width="40px" height="40px" viewBox="0 0 40 40" version="1.1" xmlns="http://www.w3.org/2000/svg" xmlns:xlink="http://www.w3.org/1999/xlink">
    <!-- Generator: Sketch 48.2 (47327) - http://www.bohemiancoding.com/sketch -->
    <title>Conciliacao</title>
    <desc>Created with Sketch.</desc>
    <defs></defs>
    <g id="Symbols" stroke="none" stroke-width="1" fill="none" fill-rule="evenodd">
        <g id="Conciliacao" fill-rule="nonzero">
            <g id="70-verdict-flat">
                <path d="M15.6075862,8.72275862 L14.8641379,7.97931034 C14.5310345,7.6462069 14.5310345,7.10551724 14.8641379,6.77241379 L20.9717241,0.664137931 C21.3048276,0.331034483 21.8455172,0.331034483 22.1786207,0.664137931 L22.9227586,1.40827586 C23.2558621,1.74137931 23.2558621,2.28206897 22.9227586,2.61517241 L16.8144828,8.72275862 C16.4813793,9.05586207 15.9406897,9.05586207 15.6075862,8.72275862" id="Shape" fill="#008BFF"></path>
                <path d="M29.262069,22.3772414 L28.5186207,21.6337931 C28.1855172,21.3006897 28.1855172,20.76 28.5186207,20.4268966 L34.6262069,14.3193103 C34.9593103,13.9855172 35.5,13.9855172 35.8331034,14.3193103 L36.5772414,15.0627586 C36.9103448,15.3958621 36.9103448,15.9365517 36.5772414,16.2696552 L30.4689655,22.3772414 C30.1358621,22.7110345 29.5951724,22.7110345 29.262069,22.3772414" id="Shape" fill="#008BFF"></path>
                <path d="M34.6262069,13.1117241 L33.7668966,12.2524138 C33.5,11.9855172 33.0613793,11.9758621 32.7972414,12.2462069 C32.5289655,12.5213793 32.0875862,12.5234483 31.8165517,12.2524138 L24.9889655,5.42482759 C24.722069,5.15793103 24.7124138,4.72 24.9827586,4.45586207 C25.2586207,4.18689655 25.2606897,3.7462069 24.9889655,3.47448276 L24.1296552,2.61517241 C23.7965517,2.28137931 23.2558621,2.28137931 22.9227586,2.61517241 L16.8144828,8.72275862 C16.4813793,9.05586207 16.4813793,9.59655172 16.8144828,9.93034483 L17.6737931,10.7896552 C17.9413793,11.0565517 18.3793103,11.0662069 18.6434483,10.7958621 C18.9124138,10.52 19.3531034,10.517931 19.6248276,10.7896552 L20.7255172,11.8903448 C21.1951724,12.36 21.1951724,13.1206897 20.7255172,13.5896552 L15.2358621,19.08 L14.2606897,18.1041379 C13.722069,17.5655172 12.8482759,17.5655172 12.3096552,18.1041379 C11.7710345,18.6427586 11.7710345,19.5165517 12.3096552,20.0551724 L13.2848276,21.0303448 L6.54344828,27.7717241 C6.09103448,28.2241379 5.52413793,28.5455172 4.90275862,28.7006897 L2.89931034,29.2013793 C2.27862069,29.3565517 1.71172414,29.677931 1.25862069,30.1303448 L1.03448276,30.3551724 C0.372413793,31.0172414 -3.55271368e-15,31.9158621 -3.55271368e-15,32.8524138 C-3.55271368e-15,33.7889655 0.372413793,34.6875862 1.03448276,35.3503448 L1.89172414,36.2068966 C2.5537931,36.8696552 3.45241379,37.2413793 4.38896552,37.2413793 C5.32551724,37.2413793 6.22413793,36.8696552 6.8862069,36.2068966 L7.11103448,35.9827586 C7.56344828,35.5296552 7.88482759,34.9627586 8.04,34.342069 L8.54068966,32.3386207 C8.69586207,31.7172414 9.01724138,31.1503448 9.46965517,30.697931 L16.2110345,23.9565517 L17.1862069,24.9317241 C17.7248276,25.4703448 18.5986207,25.4703448 19.1372414,24.9317241 C19.6758621,24.3931034 19.6758621,23.5193103 19.1372414,22.9806897 L18.162069,22.0055172 L23.6517241,16.5158621 C24.1206897,16.0462069 24.8813793,16.0462069 25.3510345,16.5158621 L26.4517241,17.6165517 C26.7193103,17.8841379 26.7282759,18.322069 26.457931,18.5862069 C26.1827586,18.8551724 26.1806897,19.2958621 26.4517241,19.5675862 L27.3117241,20.4268966 C27.6448276,20.76 28.1855172,20.76 28.5186207,20.4268966 L34.6262069,14.3193103 C34.96,13.9855172 34.96,13.4448276 34.6262069,13.1117241" id="Shape" fill="#171E42"></path>
                <path d="M40,40 L25.5172414,40 C25.5172414,37.7144828 27.3696552,35.862069 29.6551724,35.862069 L35.862069,35.862069 C38.1475862,35.862069 40,37.7144828 40,40" id="Shape" fill="#171E42"></path>
                <path d="M37.2413793,35.862069 L28.2758621,35.862069 C27.8951724,35.862069 27.5862069,35.5537931 27.5862069,35.1724138 C27.5862069,34.7910345 27.8951724,34.4827586 28.2758621,34.4827586 L37.2413793,34.4827586 C37.622069,34.4827586 37.9310345,34.7910345 37.9310345,35.1724138 C37.9310345,35.5537931 37.622069,35.862069 37.2413793,35.862069" id="Shape" fill="#008BFF"></path>
            </g>
        </g>
    </g>
</svg>