<?xml version="1.0" encoding="UTF-8"?>
<svg width="40px" height="40px" viewBox="0 0 40 40" version="1.1" xmlns="http://www.w3.org/2000/svg" xmlns:xlink="http://www.w3.org/1999/xlink">
    <!-- Generator: Sketch 48.2 (47327) - http://www.bohemiancoding.com/sketch -->
    <title>BPO Copy</title>
    <desc>Created with Sketch.</desc>
    <defs></defs>
    <g id="Symbols" stroke="none" stroke-width="1" fill="none" fill-rule="evenodd">
        <g id="BPO-Copy">
            <g id="97-inbox-e-mail-flat">
                <path d="M38.2971429,40 L1.70285714,40 C0.762857143,40 0,39.2371429 0,38.2971429 L0,1.70285714 C0,0.762142857 0.762857143,0 1.70285714,0 L38.2971429,0 C39.2378571,0 40,0.762142857 40,1.70285714 L40,38.2971429 C40,39.2371429 39.2378571,40 38.2971429,40 Z M36.5217391,2.60869565 L3.47826087,2.60869565 L3.47826087,26.2826087 L12.0982987,26.2826087 L12.0982987,31.3043478 L27.9017013,31.3043478 L27.9017013,26.2826087 L36.5217391,26.2826087 L36.5217391,2.60869565 Z" id="Combined-Shape" fill="#171E42" fill-rule="nonzero"></path>
                <polyline id="Shape" fill="#E6EBEF" opacity="0.600000024" points="36.5217391 2.60869565 3.47826087 2.60869565 3.47826087 26.2826087 12.0982987 26.2826087 12.0982987 31.3043478 27.9017013 31.3043478 27.9017013 26.2826087 36.5217391 26.2826087 36.5217391 2.60869565"></polyline>
                <path d="M8.52173913,11.3043478 L21.0434783,11.3043478 C21.4274783,11.3043478 21.7391304,10.9147826 21.7391304,10.4347826 C21.7391304,9.95478261 21.4274783,9.56521739 21.0434783,9.56521739 L8.52173913,9.56521739 C8.13773913,9.56521739 7.82608696,9.95478261 7.82608696,10.4347826 C7.82608696,10.9147826 8.13773913,11.3043478 8.52173913,11.3043478" id="Shape" fill="#008BFF" fill-rule="nonzero"></path>
                <g id="path-1-link" transform="translate(22.608696, 19.130435)" fill="#008BFF" fill-rule="nonzero">
                    <path d="M8.82943144,0 L0.735785953,0 C0.329632107,0 0,0.389565217 0,0.869565217 C0,1.34956522 0.329632107,1.73913043 0.735785953,1.73913043 L8.82943144,1.73913043 C9.23558528,1.73913043 9.56521739,1.34956522 9.56521739,0.869565217 C9.56521739,0.389565217 9.23558528,0 8.82943144,0" id="path-1"></path>
                </g>
                <path d="M8.58695652,15.6521739 L13.1521739,15.6521739 C13.5721739,15.6521739 13.9130435,15.2626087 13.9130435,14.7826087 C13.9130435,14.3026087 13.5721739,13.9130435 13.1521739,13.9130435 L8.58695652,13.9130435 C8.16695652,13.9130435 7.82608696,14.3026087 7.82608696,14.7826087 C7.82608696,15.2626087 8.16695652,15.6521739 8.58695652,15.6521739" id="Shape" fill="#008BFF" fill-rule="nonzero"></path>
                <path d="M19.1304348,14.7826087 C19.1304348,15.2626087 19.4600669,15.6521739 19.8662207,15.6521739 L27.9598662,15.6521739 C28.3660201,15.6521739 28.6956522,15.2626087 28.6956522,14.7826087 C28.6956522,14.3026087 28.3660201,13.9130435 27.9598662,13.9130435 L19.8662207,13.9130435 C19.4600669,13.9130435 19.1304348,14.3026087 19.1304348,14.7826087" id="Shape" fill="#008BFF" fill-rule="nonzero"></path>
                <path d="M15.9043478,14.1558655 C15.7478261,14.322122 15.6521739,14.5496308 15.6521739,14.7771397 C15.6521739,15.0046486 15.7478261,15.2321575 15.9043478,15.398414 C16.0695652,15.5559202 16.2956522,15.6521739 16.5217391,15.6521739 C16.7565217,15.6521739 16.973913,15.5559202 17.1391304,15.398414 C17.2956522,15.2321575 17.3913043,15.0046486 17.3913043,14.7771397 C17.3913043,14.5496308 17.2956522,14.322122 17.1391304,14.1558655 C16.8173913,13.8321028 16.2347826,13.8321028 15.9043478,14.1558655" id="Shape" fill="#008BFF" fill-rule="nonzero"></path>
                <g id="path-1-link" transform="translate(11.304348, 19.130435)" fill="#008BFF" fill-rule="nonzero">
                    <path d="M8.82943144,0 L0.735785953,0 C0.329632107,0 0,0.389565217 0,0.869565217 C0,1.34956522 0.329632107,1.73913043 0.735785953,1.73913043 L8.82943144,1.73913043 C9.23558528,1.73913043 9.56521739,1.34956522 9.56521739,0.869565217 C9.56521739,0.389565217 9.23558528,0 8.82943144,0" id="path-1"></path>
                </g>
                <path d="M8.07826087,19.3732568 C7.92173913,19.5395133 7.82608696,19.7670221 7.82608696,19.994531 C7.82608696,20.2220399 7.92173913,20.4495488 8.07826087,20.6158053 C8.24347826,20.7733115 8.46956522,20.8695652 8.69565217,20.8695652 C8.92173913,20.8695652 9.14782609,20.7733115 9.31304348,20.6158053 C9.46956522,20.4495488 9.56521739,20.2220399 9.56521739,19.994531 C9.56521739,19.7670221 9.46956522,19.5395133 9.31304348,19.3732568 C8.9826087,19.0494941 8.4,19.0494941 8.07826087,19.3732568" id="Shape" fill="#008BFF" fill-rule="nonzero"></path>
                <path d="M31.3043478,15.6521739 C31.5304348,15.6521739 31.7565217,15.5559202 31.9217391,15.398414 C32.0782609,15.2321575 32.173913,15.0046486 32.173913,14.7771397 C32.173913,14.5496308 32.0782609,14.322122 31.9217391,14.1558655 C31.6,13.8321028 31.0086957,13.8321028 30.6869565,14.1558655 C30.5304348,14.322122 30.4347826,14.5496308 30.4347826,14.7771397 C30.4347826,15.0046486 30.5304348,15.2321575 30.6869565,15.398414 C30.8521739,15.5559202 31.0695652,15.6521739 31.3043478,15.6521739" id="Shape" fill="#008BFF" fill-rule="nonzero"></path>
            </g>
        </g>
    </g>
</svg>