<?xml version="1.0" encoding="UTF-8"?>
<svg width="40px" height="40px" viewBox="0 0 40 40" version="1.1" xmlns="http://www.w3.org/2000/svg" xmlns:xlink="http://www.w3.org/1999/xlink">
    <!-- Generator: Sketch 48.2 (47327) - http://www.bohemiancoding.com/sketch -->
    <title>Auditor Copy</title>
    <desc>Created with Sketch.</desc>
    <defs></defs>
    <g id="Symbols" stroke="none" stroke-width="1" fill="none" fill-rule="evenodd">
        <g id="Auditor-Copy" fill-rule="nonzero">
            <g id="Group">
                <g id="24-xml-file-flat-copy">
                    <path d="M1.03430698,0 C0.463069767,0 0,0.4585 0,1.3482 L0,38.5 C0,38.7415 0.463069767,39.2 1.03430698,39.2 L29.365693,39.2 C29.9369302,39.2 30.4,38.7415 30.4,38.5 L30.4,9.0846 C30.4,8.5974 30.3342512,8.4406 30.218307,8.3251 L21.9919256,0.1799 C21.8752744,0.0651 21.7169116,1.01030295e-15 21.552186,1.01030295e-15 L1.03430698,0 Z" id="Shape" fill="#171E42"></path>
                    <polygon id="Shape" fill="#008BFF" points="21.6 8 29.6 8 21.6 0"></polygon>
                    <path d="M29.365693,40 L1.03430698,40 C0.463069767,40 0,39.2294118 0,38.2788235 L0,20 L30.4,20 L30.4,38.2788235 C30.4,39.2294118 29.9369302,40 29.365693,40" id="Shape" fill="#008BFF"></path>
                </g>
                <g id="378-search-flat" transform="translate(4.800000, 10.400000)" fill="#F6F9FC">
                    <path d="M12.4686292,15.5313708 C11.8437903,14.906532 11.8437903,13.893468 12.4686292,13.2686292 C13.093468,12.6437903 14.106532,12.6437903 14.7313708,13.2686292 L21.1313708,19.6686292 C21.7562097,20.293468 21.7562097,21.306532 21.1313708,21.9313708 C20.506532,22.5562097 19.493468,22.5562097 18.8686292,21.9313708 L12.4686292,15.5313708 Z" id="Shape"></path>
                    <path d="M8.4,16.8 C3.768,16.8 0,13.032 0,8.4 C0,3.768 3.768,0 8.4,0 C13.032,0 16.8,3.768 16.8,8.4 C16.8,13.032 13.032,16.8 8.4,16.8 Z M8.4,2.4 C5.09147368,2.4 2.4,5.09147368 2.4,8.4 C2.4,11.7085263 5.09147368,14.4 8.4,14.4 C11.7085263,14.4 14.4,11.7085263 14.4,8.4 C14.4,5.09147368 11.7085263,2.4 8.4,2.4 Z" id="Shape"></path>
                </g>
            </g>
        </g>
    </g>
</svg>