<?xml version="1.0" encoding="UTF-8"?>
<svg width="40px" height="40px" viewBox="0 0 40 40" version="1.1" xmlns="http://www.w3.org/2000/svg" xmlns:xlink="http://www.w3.org/1999/xlink">
    <!-- Generator: Sketch 48.2 (47327) - http://www.bohemiancoding.com/sketch -->
    <title>Relatorios</title>
    <desc>Created with Sketch.</desc>
    <defs></defs>
    <g id="Symbols" stroke="none" stroke-width="1" fill="none" fill-rule="evenodd">
        <g id="Relatorios">
            <g id="117-chart-presentation-flat">
                <polygon id="Shape" fill="#171E42" fill-rule="nonzero" points="1.37931034 4.13793103 38.6206897 4.13793103 38.6206897 33.1034483 1.37931034 33.1034483"></polygon>
                <path d="M10.1647539,21.9633746 C10.434081,21.6940475 10.8707465,21.6940475 11.1400736,21.9633746 C11.4094007,22.2327017 11.4094007,22.6693672 11.1400736,22.9386943 L9.14559088,24.9331771 C8.87626379,25.2025042 8.43959828,25.2025042 8.17027119,24.9331771 C7.90094409,24.66385 7.90094409,24.2271845 8.17027119,23.9578574 L10.1647539,21.9633746 Z M16.657315,23.9578574 C16.9266421,24.2271845 16.9266421,24.66385 16.657315,24.9331771 C16.3879879,25.2025042 15.9513224,25.2025042 15.6819953,24.9331771 L13.6875126,22.9386943 C13.4181855,22.6693672 13.4181855,22.2327017 13.6875126,21.9633746 C13.9568397,21.6940475 14.3935052,21.6940475 14.6628323,21.9633746 L16.657315,23.9578574 Z M23.9578574,18.5150988 C24.2271845,18.2457717 24.66385,18.2457717 24.9331771,18.5150988 C25.2025042,18.7844259 25.2025042,19.2210914 24.9331771,19.4904185 L19.1917978,25.2317978 C18.9224707,25.5011249 18.4858052,25.5011249 18.2164781,25.2317978 C17.947151,24.9624707 17.947151,24.5258052 18.2164781,24.2564781 L23.9578574,18.5150988 Z M32.519384,22.578547 C32.7887111,22.8478741 32.7887111,23.2845396 32.519384,23.5538667 C32.2500569,23.8231938 31.8133914,23.8231938 31.5440643,23.5538667 L27.480616,19.4904185 C27.2112889,19.2210914 27.2112889,18.7844259 27.480616,18.5150988 C27.7499431,18.2457717 28.1866086,18.2457717 28.4559357,18.5150988 L32.519384,22.578547 Z" id="Shape" fill="#F6F9FC" fill-rule="nonzero"></path>
                <polygon id="Shape" fill="#008BFF" fill-rule="nonzero" points="0 0 40 0 40 4.13793103 0 4.13793103"></polygon>
                <path d="M4.82758621,8.96551724 L8.27586207,8.96551724 M4.82758621,14.4827586 L12.4137931,14.4827586" id="Shape" stroke="#F6F9FC" stroke-width="1.5" stroke-linecap="round"></path>
                <g id="path-1-link" transform="translate(10.344828, 19.310345)" fill="#008BFF" fill-rule="nonzero">
                    <path d="M4.13793103,2.06896552 C4.13793103,3.21172414 3.21172414,4.13793103 2.06896552,4.13793103 C0.926206897,4.13793103 0,3.21172414 0,2.06896552 C0,0.926206897 0.926206897,0 2.06896552,0 C3.21172414,0 4.13793103,0.926206897 4.13793103,2.06896552" id="path-1"></path>
                </g>
                <g id="path-1-link" transform="translate(24.137931, 15.862069)" fill="#008BFF" fill-rule="nonzero">
                    <path d="M4.13793103,2.06896552 C4.13793103,3.21172414 3.21172414,4.13793103 2.06896552,4.13793103 C0.926206897,4.13793103 0,3.21172414 0,2.06896552 C0,0.926206897 0.926206897,0 2.06896552,0 C3.21172414,0 4.13793103,0.926206897 4.13793103,2.06896552" id="path-1"></path>
                </g>
                <g id="path-1-link" transform="translate(31.034483, 22.758621)" fill="#008BFF" fill-rule="nonzero">
                    <path d="M4.13793103,2.06896552 C4.13793103,3.21172414 3.21172414,4.13793103 2.06896552,4.13793103 C0.926206897,4.13793103 0,3.21172414 0,2.06896552 C0,0.926206897 0.926206897,0 2.06896552,0 C3.21172414,0 4.13793103,0.926206897 4.13793103,2.06896552" id="path-1"></path>
                </g>
                <g id="path-1-link" transform="translate(15.172414, 24.137931)" fill="#008BFF" fill-rule="nonzero">
                    <path d="M4.13793103,2.06896552 C4.13793103,3.21172414 3.21172414,4.13793103 2.06896552,4.13793103 C0.926206897,4.13793103 0,3.21172414 0,2.06896552 C0,0.926206897 0.926206897,0 2.06896552,0 C3.21172414,0 4.13793103,0.926206897 4.13793103,2.06896552" id="path-1"></path>
                </g>
                <g id="path-1-link" transform="translate(5.517241, 24.137931)" fill="#008BFF" fill-rule="nonzero">
                    <path d="M4.13793103,2.06896552 C4.13793103,3.21172414 3.21172414,4.13793103 2.06896552,4.13793103 C0.926206897,4.13793103 0,3.21172414 0,2.06896552 C0,0.926206897 0.926206897,0 2.06896552,0 C3.21172414,0 4.13793103,0.926206897 4.13793103,2.06896552" id="path-1"></path>
                </g>
                <path d="M0,33.7931034 L0,32.4137931 L40,32.4137931 L40,33.7931034 L0,33.7931034 Z M0,32.4137931 L40,32.4137931 L40,33.7931034 L0,33.7931034 L0,32.4137931 Z" id="Shape" fill="#008BFF" fill-rule="nonzero"></path>
                <path d="M19.3103448,33.1034483 L20.6896552,33.1034483 L20.6896552,35.1724138 L19.3103448,35.1724138 L19.3103448,33.1034483 Z M20.6896552,33.1034483 L20.6896552,35.1724138 L19.3103448,35.1724138 L19.3103448,33.1034483 L20.6896552,33.1034483 Z" id="Shape" fill="#008BFF" fill-rule="nonzero"></path>
                <path d="M21.3793103,37.9310345 C21.3793103,37.1691619 20.7618726,36.5517241 20,36.5517241 C19.2381274,36.5517241 18.6206897,37.1691619 18.6206897,37.9310345 C18.6206897,38.6929071 19.2381274,39.3103448 20,39.3103448 C20.7618726,39.3103448 21.3793103,38.6929071 21.3793103,37.9310345 Z M22.7586207,37.9310345 C22.7586207,39.4546791 21.5236447,40.6896552 20,40.6896552 C18.4763553,40.6896552 17.2413793,39.4546791 17.2413793,37.9310345 C17.2413793,36.4073898 18.4763553,35.1724138 20,35.1724138 C21.5236447,35.1724138 22.7586207,36.4073898 22.7586207,37.9310345 Z" id="Shape" fill="#008BFF" fill-rule="nonzero"></path>
            </g>
        </g>
    </g>
</svg>