<?xml version="1.0" encoding="UTF-8"?>
<svg width="40px" height="40px" viewBox="0 0 40 40" version="1.1" xmlns="http://www.w3.org/2000/svg" xmlns:xlink="http://www.w3.org/1999/xlink">
    <!-- Generator: Sketch 48.2 (47327) - http://www.bohemiancoding.com/sketch -->
    <title>PMC Copy</title>
    <desc>Created with Sketch.</desc>
    <defs></defs>
    <g id="Symbols" stroke="none" stroke-width="1" fill="none" fill-rule="evenodd">
        <g id="PMC-Copy">
            <g id="181-wait-for-to-do-list-flat">
                <path d="M31.5110832,37.5510204 L6.03993721,37.5510204 C2.7043956,37.5510204 0,34.8473469 0,31.5118053 L0,6.03993721 C0,2.7043956 2.7043956,0 6.03993721,0 L31.5110832,0 C34.8466248,0 37.5510204,2.7043956 37.5510204,6.03993721 L37.5510204,31.5118053 C37.5510204,34.8473469 34.8466248,37.5510204 31.5110832,37.5510204" id="Shape" fill="#171E42" fill-rule="nonzero"></path>
                <path d="M18.9544311,9.35412946 L31.8367347,9.35412946 M18.9544311,19.5477307 L31.8367347,19.5477307 M18.9544311,29.7413319 L31.8367347,29.7413319 M13.8931171,5.71428571 L8.98639083,11.5384726 L5.71428571,9.04249651 M13.8931171,15.9071588 L8.98639083,21.7320738 L5.71428571,19.2353696 M13.8931171,26.8288744 L8.98639083,32.6530612 L5.71428571,30.156357" id="Shape" stroke="#F6F9FC" stroke-width="2" stroke-linecap="round" stroke-linejoin="round"></path>
                <path d="M39.1836735,31.8367347 C39.1836735,36.3450835 35.528757,40 31.0204082,40 C26.5120594,40 22.8571429,36.3450835 22.8571429,31.8367347 C22.8571429,27.3283859 26.5120594,23.6734694 31.0204082,23.6734694 C35.528757,23.6734694 39.1836735,27.3283859 39.1836735,31.8367347" id="Shape" fill="#008BFF" fill-rule="nonzero"></path>
                <path d="M35.2040816,31.2244898 L31.6326531,31.2244898 L31.6326531,27.6530612 C31.6326531,27.2587755 31.3133673,26.9387755 30.9183673,26.9387755 C30.5233673,26.9387755 30.2040816,27.2587755 30.2040816,27.6530612 L30.2040816,31.9387755 C30.2040816,32.3330612 30.5233673,32.6530612 30.9183673,32.6530612 L35.2040816,32.6530612 C35.5990816,32.6530612 35.9183673,32.3330612 35.9183673,31.9387755 C35.9183673,31.5444898 35.5990816,31.2244898 35.2040816,31.2244898" id="Shape" fill="#FFFFFF" fill-rule="nonzero"></path>
            </g>
        </g>
    </g>
</svg>