<?xml version="1.0" encoding="UTF-8"?>
<svg width="40px" height="40px" viewBox="0 0 40 40" version="1.1" xmlns="http://www.w3.org/2000/svg" xmlns:xlink="http://www.w3.org/1999/xlink">
    <!-- Generator: Sketch 48.2 (47327) - http://www.bohemiancoding.com/sketch -->
    <title>Glosa Copy</title>
    <desc>Created with Sketch.</desc>
    <defs></defs>
    <g id="Symbols" stroke="none" stroke-width="1" fill="none" fill-rule="evenodd">
        <g id="Glosa-Copy" fill-rule="nonzero">
            <g id="216-notes-warning-flat">
                <polyline id="Shape" fill="#171E42" points="21.9967267 1.53846154 19.2471358 1.53846154 19.2471358 3.5989011 13.0605565 3.5989011 13.0605565 1.53846154 0 1.53846154 0 40 32.3076923 40 32.3076923 1.53846154 21.9967267 1.53846154"></polyline>
                <polygon id="Shape" fill="#008BFF" points="13.0769231 0 19.2307692 0 19.2307692 3.84615385 13.0769231 3.84615385"></polygon>
                <path d="M15.4358974,11.5384615 L6.1025641,11.5384615 C5.70553846,11.5384615 5.38461538,11.1946154 5.38461538,10.7692308 C5.38461538,10.3446154 5.70553846,10 6.1025641,10 L15.4358974,10 C15.8329231,10 16.1538462,10.3446154 16.1538462,10.7692308 C16.1538462,11.1946154 15.8329231,11.5384615 15.4358974,11.5384615" id="Shape" fill="#008BFF"></path>
                <path d="M15.4358974,32.3076923 L6.1025641,32.3076923 C5.70553846,32.3076923 5.38461538,31.9638462 5.38461538,31.5384615 C5.38461538,31.1130769 5.70553846,30.7692308 6.1025641,30.7692308 L15.4358974,30.7692308 C15.8329231,30.7692308 16.1538462,31.1130769 16.1538462,31.5384615 C16.1538462,31.9638462 15.8329231,32.3076923 15.4358974,32.3076923" id="Shape" fill="#008BFF"></path>
                <g id="path-1-link" transform="translate(5.384615, 13.846154)" fill="#008BFF">
                    <path d="M20.8436725,1.53846154 L0.694789082,1.53846154 C0.31057072,1.53846154 0,1.19461538 0,0.769230769 C0,0.344615385 0.31057072,0 0.694789082,0 L20.8436725,0 C21.2278908,0 21.5384615,0.344615385 21.5384615,0.769230769 C21.5384615,1.19461538 21.2278908,1.53846154 20.8436725,1.53846154" id="path-1"></path>
                </g>
                <g id="path-1-link" transform="translate(5.384615, 22.307692)" fill="#008BFF">
                    <path d="M20.8436725,1.53846154 L0.694789082,1.53846154 C0.31057072,1.53846154 0,1.19461538 0,0.769230769 C0,0.344615385 0.31057072,0 0.694789082,0 L20.8436725,0 C21.2278908,0 21.5384615,0.344615385 21.5384615,0.769230769 C21.5384615,1.19461538 21.2278908,1.53846154 20.8436725,1.53846154" id="path-1"></path>
                </g>
                <path d="M21.0173697,28.4615385 L5.9057072,28.4615385 C5.61754342,28.4615385 5.38461538,28.1176923 5.38461538,27.6923077 C5.38461538,27.2669231 5.61754342,26.9230769 5.9057072,26.9230769 L21.0173697,26.9230769 C21.3055335,26.9230769 21.5384615,27.2669231 21.5384615,27.6923077 C21.5384615,28.1176923 21.3055335,28.4615385 21.0173697,28.4615385" id="Shape" fill="#F6F9FC"></path>
                <path d="M15.4807692,19.2307692 L6.05769231,19.2307692 C5.68548077,19.2307692 5.38461538,18.8869231 5.38461538,18.4615385 C5.38461538,18.0369231 5.68548077,17.6923077 6.05769231,17.6923077 L15.4807692,17.6923077 C15.8529808,17.6923077 16.1538462,18.0369231 16.1538462,18.4615385 C16.1538462,18.8869231 15.8529808,19.2307692 15.4807692,19.2307692" id="Shape" fill="#F6F9FC"></path>
                <path d="M26.2393162,19.2307692 L21.4529915,19.2307692 C21.0748718,19.2307692 20.7692308,18.8869231 20.7692308,18.4615385 C20.7692308,18.0369231 21.0748718,17.6923077 21.4529915,17.6923077 L26.2393162,17.6923077 C26.6174359,17.6923077 26.9230769,18.0369231 26.9230769,18.4615385 C26.9230769,18.8869231 26.6174359,19.2307692 26.2393162,19.2307692" id="Shape" fill="#F6F9FC"></path>
                <path d="M18.4615385,19.2307692 C18.2530769,19.2307692 18.0607692,19.1535086 17.9153846,19.0067135 C17.7761538,18.8599183 17.6923077,18.6590407 17.6923077,18.4581631 C17.6923077,18.2495595 17.7692308,18.056408 17.9153846,17.9096128 C18.2076923,17.6160225 18.7153846,17.6237486 19.0076923,17.9096128 C19.1530769,18.056408 19.2307692,18.2495595 19.2307692,18.4581631 C19.2307692,18.6667668 19.1461538,18.8599183 19.0076923,19.0067135 C18.8607692,19.1457826 18.6684615,19.2307692 18.4615385,19.2307692" id="Shape" fill="#008BFF"></path>
                <path d="M35.2795646,40 L18.5665892,40 C17.892878,40 17.4731313,39.3003693 17.812456,38.743231 L26.1685909,25.0301994 C26.5057993,24.477113 27.3403546,24.477113 27.6768574,25.0301994 L36.0336979,38.743231 C36.3730226,39.3003693 35.9532758,40 35.2795646,40" id="Shape" fill="#008BFF"></path>
                <path d="M26.9230769,35.3846154 C26.4984615,35.3846154 26.1538462,35.0744615 26.1538462,34.6923077 L26.1538462,29.1538462 C26.1538462,28.7716923 26.4984615,28.4615385 26.9230769,28.4615385 C27.3476923,28.4615385 27.6923077,28.7716923 27.6923077,29.1538462 L27.6923077,34.6923077 C27.6923077,35.0744615 27.3476923,35.3846154 26.9230769,35.3846154" id="Shape" fill="#FFFFFF"></path>
                <path d="M26.9230769,38.4615385 C26.7230769,38.4615385 26.5230769,38.3763909 26.3769231,38.2370585 C26.2384615,38.0899855 26.1538462,37.8887276 26.1538462,37.6874698 C26.1538462,37.4862119 26.2384615,37.284954 26.3769231,37.137881 C26.6692308,36.8514756 27.1769231,36.8514756 27.4692308,37.137881 C27.6076923,37.284954 27.6923077,37.4862119 27.6923077,37.6874698 C27.6923077,37.8887276 27.6076923,38.0899855 27.4692308,38.2370585 C27.3230769,38.3763909 27.1307692,38.4615385 26.9230769,38.4615385" id="Shape" fill="#FFFFFF"></path>
            </g>
        </g>
    </g>
</svg>