<?xml version="1.0" encoding="UTF-8"?>
<svg width="40px" height="40px" viewBox="0 0 40 40" version="1.1" xmlns="http://www.w3.org/2000/svg" xmlns:xlink="http://www.w3.org/1999/xlink">
    <!-- Generator: Sketch 48.2 (47327) - http://www.bohemiancoding.com/sketch -->
    <title>Integração Copy</title>
    <desc>Created with Sketch.</desc>
    <defs></defs>
    <g id="Symbols" stroke="none" stroke-width="1" fill="none" fill-rule="evenodd">
        <g id="Integração-Copy" fill-rule="nonzero">
            <g id="119-symbiosis-flat" transform="translate(16.609756, 20.000000) rotate(-180.000000) translate(-16.609756, -20.000000) translate(1.000000, 0.000000)">
                <path d="M4.87804878,13.4634146 L6.43902439,13.4634146 L6.43902439,27.5121951 C6.43902439,27.9432466 6.0895881,28.2926829 5.65853659,28.2926829 L5.65853659,28.2926829 C5.22748507,28.2926829 4.87804878,27.9432466 4.87804878,27.5121951 L4.87804878,13.4634146 Z" id="Shape" fill="#171E42"></path>
                <path d="M1.65866463,18.1463415 C1.48384628,18.1463415 1.30902794,18.0794167 1.17586553,17.9462502 C0.908857831,17.6792341 0.908857831,17.2469549 1.17586553,16.9806218 L5.27317043,12.8831889 C5.54017813,12.6161728 5.97176091,12.6161728 6.23876861,12.8831889 C6.50577632,13.149522 6.50577632,13.5818012 6.23876861,13.8488172 L2.14146372,17.9462502 C2.00830131,18.0794167 1.83348297,18.1463415 1.65866463,18.1463415" id="Shape" fill="#171E42"></path>
                <g id="path-1-link" transform="translate(4.878049, 12.682927)" fill="#171E42">
                    <path d="M4.92435772,5.61812466 C4.74675339,5.61812466 4.56914905,5.5501355 4.4338645,5.41485095 L0.271262873,1.25224932 C1.38777878e-17,0.98098645 1.38777878e-17,0.541831978 0.271262873,0.271262873 C0.542525745,9.20652443e-14 0.98098645,9.20652443e-14 1.25224932,0.271262873 L5.41485095,4.4338645 C5.68611382,4.7044336 5.68611382,5.14358808 5.41485095,5.41485095 C5.2795664,5.5501355 5.10196206,5.61812466 4.92435772,5.61812466" id="path-1"></path>
                </g>
                <g id="path-1-link" transform="translate(12.682927, 4.878049)" fill="#171E42">
                    <path d="M4.92435772,5.61812466 C4.74675339,5.61812466 4.56914905,5.5501355 4.4338645,5.41485095 L0.271262873,1.25224932 C2.77555756e-17,0.98098645 2.77555756e-17,0.541831978 0.271262873,0.271262873 C0.542525745,4.85722573e-16 0.98098645,4.85722573e-16 1.25224932,0.271262873 L5.41485095,4.4338645 C5.68611382,4.7044336 5.68611382,5.14358808 5.41485095,5.41485095 C5.2795664,5.5501355 5.10196206,5.61812466 4.92435772,5.61812466" id="path-1"></path>
                </g>
                <path d="M13.3659817,6.43902439 C13.1911634,6.43902439 13.016345,6.37209965 12.8831826,6.23893308 C12.6161749,5.97191704 12.6161749,5.53963786 12.8831826,5.27330472 L16.9804875,1.17587179 C17.2474952,0.908855745 17.679078,0.908855745 17.9460857,1.17587179 C18.2130934,1.44220493 18.2130934,1.87448411 17.9460857,2.14150015 L13.8487808,6.23893308 C13.7156184,6.37209965 13.5408,6.43902439 13.3659817,6.43902439" id="Shape" fill="#171E42"></path>
                <path d="M26.2350333,27.7073171 L26.2350333,11.1847805 C26.2350333,8.35278049 23.7215787,6.04878049 20.6321242,6.04878049 L14.1019956,6.04878049 C13.7494989,6.04878049 13.4634146,5.78653659 13.4634146,5.46341463 C13.4634146,5.13970732 13.7494989,4.87804878 14.1019956,4.87804878 L20.6321242,4.87804878 C24.4252949,4.87804878 27.5121951,7.70712195 27.5121951,11.1847805 L27.5121951,27.7073171 C27.5121951,28.030439 27.2261109,28.2926829 26.8736142,28.2926829 C26.5211175,28.2926829 26.2350333,28.030439 26.2350333,27.7073171 Z" id="Shape" fill="#171E42"></path>
                <path d="M5.65853659,31.1219512 C3.3414072,31.1219512 1.46341463,32.9999438 1.46341463,35.3170732 C1.46341463,37.6342026 3.3414072,39.5121951 5.65853659,39.5121951 C7.97566598,39.5121951 9.85365854,37.6342026 9.85365854,35.3170732 C9.85365854,32.9999438 7.97566598,31.1219512 5.65853659,31.1219512 Z" id="path-2" fill="#171E42"></path>
                <path d="M26.7317073,31.1219512 C24.4145779,31.1219512 22.5365854,32.9999438 22.5365854,35.3170732 C22.5365854,37.6342026 24.4145779,39.5121951 26.7317073,39.5121951 C29.0488367,39.5121951 30.9268293,37.6342026 30.9268293,35.3170732 C30.9268293,32.9999438 29.0488367,31.1219512 26.7317073,31.1219512 Z" id="path-2" fill="#171E42"></path>
                <path d="M0.975609756,5.65853659 L0.487804878,5.65853659 C0.487804878,2.8025928 2.8025928,0.487804878 5.65853659,0.487804878 C8.51448037,0.487804878 10.8292683,2.8025928 10.8292683,5.65853659 C10.8292683,8.51448037 8.51448037,10.8292683 5.65853659,10.8292683 C2.8025928,10.8292683 0.487804878,8.51448037 0.487804878,5.65853659 L0.975609756,5.65853659 Z" id="path-2" fill="#008BFF"></path>
            </g>
        </g>
    </g>
</svg>