<?xml version="1.0" encoding="UTF-8"?>
<svg width="40px" height="40px" viewBox="0 0 40 40" version="1.1" xmlns="http://www.w3.org/2000/svg" xmlns:xlink="http://www.w3.org/1999/xlink">
    <!-- Generator: Sketch 48.2 (47327) - http://www.bohemiancoding.com/sketch -->
    <title>Assinatura Copy</title>
    <desc>Created with Sketch.</desc>
    <defs></defs>
    <g id="Symbols" stroke="none" stroke-width="1" fill="none" fill-rule="evenodd">
        <g id="Assinatura-Copy" fill-rule="nonzero">
            <g id="Group-3">
                <g id="24-xml-file-flat">
                    <path d="M21.9920266,0 L1.05541528,0 C0.472520171,0 0,0.467857143 0,1.37571429 L0,39.2857143 C0,39.5321429 0.472520171,40 1.05541528,40 L29.9649929,40 C30.547888,40 31.0204082,39.5321429 31.0204082,39.2857143 L31.0204082,9.27 C31.0204082,8.77285714 30.9533175,8.61285714 30.8350071,8.495 L22.4407404,0.183571429 C22.3217086,0.0664285714 22.1601139,1.03092138e-15 21.9920266,1.03092138e-15" id="Shape" fill="#171E42"></path>
                    <polyline id="Shape" fill="#008BFF" points="22.0408163 0 22.0408163 8.16326531 30.2040816 8.16326531 22.0408163 0"></polyline>
                </g>
                <g id="badge" transform="translate(0.816327, 7.346939)">
                    <g id="Group-9" transform="translate(13.585419, 14.563860) rotate(23.000000) translate(-13.585419, -14.563860) translate(4.197664, 2.727125)">
                        <path d="M18.2622603,20.2289756 L15.736546,14.3840777 C15.6810358,14.4077511 15.6279746,14.4363226 15.5708317,14.4575471 L14.2271583,14.9212205 L13.4124644,16.0853022 C12.8598113,16.8746899 11.9553215,17.3465267 10.9936889,17.3465267 C10.6981787,17.3465267 10.4059338,17.3032613 10.1291991,17.2175471 L9.24348479,16.9481593 L11.8573623,22.9971389 C11.9953215,23.3163226 12.3055256,23.5261185 12.6532807,23.5375471 C13.0018521,23.547343 13.3234848,23.3555062 13.4810358,23.0461185 L14.6663419,20.702445 L17.1855256,21.4453022 C17.5194032,21.5440777 17.8802195,21.4404042 18.1112399,21.1791797 C18.3398113,20.9195879 18.4002195,20.549792 18.2622603,20.2289756 Z" id="Shape" fill="#008BFF"></path>
                        <path d="M11.3118367,16.3534694 C11.6987755,16.3534694 12.0710204,16.1665306 12.3012245,15.8367347 L13.2155102,14.5306122 C13.3616327,14.32 13.5697959,14.1640816 13.8114286,14.0808163 L15.3191837,13.5591837 C15.8146939,13.3869388 16.1436735,12.9159184 16.1330612,12.3934694 L16.1053061,10.8 C16.1012245,10.5444898 16.1763265,10.2938776 16.322449,10.0840816 L17.2367347,8.77714286 C17.5363265,8.3477551 17.5265306,7.77387755 17.2106122,7.35591837 L16.2514286,6.08163265 C16.0963265,5.87755102 16.0106122,5.63020408 16.0057143,5.37632653 L15.9779592,3.78204082 C15.9681633,3.25795918 15.6212245,2.79918367 15.1208163,2.64653061 L13.5959184,2.18122449 C13.3518367,2.10612245 13.1371429,1.95673469 12.9820408,1.75428571 L12.0220408,0.48 C11.7885714,0.172244898 11.4293878,0 11.0571429,0 C10.9257143,0 10.7918367,0.0212244898 10.6628571,0.066122449 L9.15510204,0.586122449 C9.0277551,0.631020408 8.89387755,0.652244898 8.76,0.652244898 C8.64081633,0.652244898 8.52244898,0.635102041 8.40734694,0.6 L6.88163265,0.135510204 C6.76571429,0.0995918367 6.64653061,0.0824489796 6.52979592,0.0824489796 C6.14122449,0.0824489796 5.76816327,0.269387755 5.53877551,0.598367347 L4.62367347,1.90612245 C4.47673469,2.11510204 4.26857143,2.27183673 4.0277551,2.35591837 L2.51918367,2.87591837 C2.02367347,3.04734694 1.69469388,3.51755102 1.70530612,4.04081633 L1.73306122,5.63755102 C1.73714286,5.8922449 1.66204082,6.14122449 1.51510204,6.35183673 L0.600816327,7.65959184 C0.30122449,8.08816327 0.311836735,8.66285714 0.626938776,9.08 L1.58693878,10.3534694 C1.74040816,10.557551 1.8277551,10.8040816 1.83183673,11.0595918 L1.86040816,12.6530612 C1.87102041,13.1771429 2.21714286,13.6367347 2.71755102,13.7893878 L4.24408163,14.2546939 C4.48734694,14.3297959 4.70204082,14.4791837 4.85632653,14.6816327 L5.81632653,15.9542857 C6.04979592,16.2636735 6.41142857,16.4359184 6.78285714,16.4359184 C6.91510204,16.4359184 7.04816327,16.4138776 7.17714286,16.3689796 L8.68489796,15.8489796 C8.81306122,15.8040816 8.94693878,15.7836735 9.08163265,15.7836735 C9.20081633,15.7836735 9.31836735,15.8008163 9.43265306,15.835102 L10.9583673,16.3004082 C11.0742857,16.3379592 11.1942857,16.3534694 11.3118367,16.3534694 Z M8.96081633,13.877551 C5.80489796,13.877551 3.24653061,11.32 3.24653061,8.16326531 C3.24653061,5.00653061 5.80489796,2.44897959 8.96081633,2.44897959 C12.117551,2.44897959 14.675102,5.00734694 14.675102,8.16326531 C14.675102,11.3191837 12.117551,13.877551 8.96081633,13.877551 Z" id="Shape" fill="#F6F9FC"></path>
                        <path d="M11.8469633,5.2771102 C13.4409388,6.87108571 13.4409388,9.45543673 11.8469633,11.0494122 C10.2529878,12.6433878 7.66863673,12.6433878 6.07466122,11.0494122 C4.48068571,9.45543673 4.48068571,6.87108571 6.07466122,5.2771102 C7.66863673,3.68313469 10.2529878,3.68313469 11.8469633,5.2771102" id="Shape" fill="#008BFF"></path>
                    </g>
                </g>
            </g>
        </g>
    </g>
</svg>