<?xml version="1.0" encoding="UTF-8"?>
<svg width="184px" height="71px" viewBox="0 0 184 71" version="1.1" xmlns="http://www.w3.org/2000/svg" xmlns:xlink="http://www.w3.org/1999/xlink">
    <!-- Generator: Sketch 48.2 (47327) - http://www.bohemiancoding.com/sketch -->
    <title>NpxLogo</title>
    <desc>Created with Sketch.</desc>
    <defs>
        <linearGradient x1="0%" y1="-16.5659146%" x2="90.9983369%" y2="100%" id="linearGradient-1">
            <stop stop-color="#00B7FF" offset="0%"></stop>
            <stop stop-color="#0080FF" offset="100%"></stop>
        </linearGradient>
    </defs>
    <g id="Symbols" stroke="none" stroke-width="1" fill="none" fill-rule="evenodd">
        <g id="NpxLogo">
            <g id="Page-1" transform="translate(0.000000, 2.000000)">
                <g id="Group-3" transform="translate(0.000000, 0.011281)" fill="url(#linearGradient-1)">
                    <path d="M25.6806405,1.11305785 L3.20299587,14.0754545 C1.22103306,15.218595 0,17.332438 0,19.620062 L0,45.4481612 C0,47.7360537 1.22103306,49.8498967 3.20299587,50.9927686 L25.542314,63.8756612 C27.5210537,65.0166529 29.9582851,65.0166529 31.9370248,63.8756612 L54.276343,50.9927686 C56.2583058,49.8498967 57.4793388,47.7360537 57.4793388,45.4481612 L57.4793388,41.9061983 L40.3346488,51.6502893 C40.0856612,51.7921074 39.7692562,51.7934504 39.5049587,51.6234298 C39.2723554,51.4740909 39.1463843,51.1990496 39.1509504,50.9223967 C39.1646488,50.0956612 39.6140083,49.3360744 40.3346488,48.9261983 L57.4793388,39.1818388 L57.4793388,35.0957025 L41.1243182,44.3909711 C40.6988636,44.6327066 40.1544215,44.6294835 39.7072107,44.3238223 C39.326343,44.0638223 39.1402066,43.603719 39.1520248,43.1428099 C39.1866736,41.7778099 39.9333678,40.5275 41.1243182,39.8506405 L57.4793388,30.5551033 L57.4793388,26.8318388 L41.913719,35.6785537 C41.3365083,36.0067769 40.6032438,36.0121488 39.9884298,35.6229545 C39.432438,35.2705579 39.1388636,34.6227066 39.1514876,33.9643802 C39.1890909,32.0407025 40.2366116,30.2752273 41.913719,29.3219835 L57.4793388,20.4752686 L57.4793388,19.7014463 C57.4793388,17.4135537 56.2583058,15.2997107 54.276343,14.1565702 L45.9950207,9.38095041 L20.9501446,25.0427273 L20.9501446,29.9811157 C24.8858678,31.0879959 27.7708471,34.7016736 27.7708471,38.9881818 C27.7708471,44.1551446 23.5788843,48.3438843 18.4086983,48.3438843 C13.2379752,48.3438843 9.0460124,44.1551446 9.0460124,38.9881818 C9.0460124,34.906343 11.6621281,31.4350207 15.3099174,30.1567769 L15.3099174,24.502314 C15.3099174,22.9122314 16.1288636,21.4341529 17.4769421,20.5913017 L40.6851653,6.07803719 L32.0753512,1.11305785 C31.0861157,0.542561983 29.9819215,0.25731405 28.8779959,0.25731405 C27.7740702,0.25731405 26.669876,0.542561983 25.6806405,1.11305785 M13.8321074,38.990062 C13.8321074,41.4466322 15.8253512,43.4385331 18.2840702,43.4385331 C20.7427893,43.4385331 22.7365702,41.4466322 22.7365702,38.990062 C22.7365702,36.5334917 20.7427893,34.5413223 18.2840702,34.5413223 C15.8253512,34.5413223 13.8321074,36.5334917 13.8321074,38.990062" id="Clip-2"></path>
                </g>
                <g id="Group-10" transform="translate(73.057851, 16.395579)" fill="#E6EBEF">
                    <path d="M0.0727355372,0.827863636 L9.35564876,0.827863636 L9.35564876,5.08240909 L9.48430579,5.08240909 C9.78459504,4.48102479 10.2146157,3.8796405 10.773562,3.27745041 C11.3317025,2.67606612 11.9983554,2.13914463 12.7719091,1.66588017 C13.5454628,1.19342149 14.4259174,0.806644628 15.4148843,0.505549587 C16.4030455,0.205528926 17.4776942,0.0543099174 18.6380248,0.0543099174 C21.0876116,0.0543099174 23.0639339,0.430880165 24.5686033,1.1821405 C26.0724669,1.9347438 27.2438099,2.97716116 28.0818264,4.30885537 C28.919843,5.64135537 29.4889959,7.20968182 29.7903595,9.0143719 C30.0903802,10.8193306 30.2413306,12.7755083 30.2413306,14.8804876 L30.2413306,32.1567893 L20.5719091,32.1567893 L20.5719091,16.8146405 C20.5719091,15.9118926 20.5396777,14.9774504 20.4752149,14.0105083 C20.4110207,13.0432975 20.2173636,12.1520992 19.8950496,11.3353017 C19.5730041,10.5193099 19.0782521,9.85265702 18.412405,9.33695455 C17.7457521,8.82125207 16.7898223,8.56340083 15.5440785,8.56340083 C14.2969917,8.56340083 13.2876116,8.78902066 12.5140579,9.23999174 C11.7405041,9.6915 11.1493264,10.2936901 10.7415992,11.045219 C10.3325289,11.7975537 10.0644711,12.6465826 9.93581405,13.5915 C9.80661983,14.5372231 9.74215702,15.5253843 9.74215702,16.5567893 L9.74215702,32.1567893 L0.0727355372,32.1567893 L0.0727355372,0.827863636 Z" id="Fill-4"></path>
                    <path d="M46.8722789,16.4921384 C46.8722789,18.856312 47.5491384,20.7689773 48.9028574,22.2293285 C50.2565764,23.6910227 52.1582293,24.4213326 54.6078161,24.4213326 C57.0574029,24.4213326 58.9590558,23.6910227 60.3127748,22.2293285 C61.6664938,20.7689773 62.3433533,18.856312 62.3433533,16.4921384 C62.3433533,14.1293079 61.6664938,12.2166426 60.3127748,10.7552169 C58.9590558,9.29459711 57.0574029,8.56321281 54.6078161,8.56321281 C52.1582293,8.56321281 50.2565764,9.29459711 48.9028574,10.7552169 C47.5491384,12.2166426 46.8722789,14.1293079 46.8722789,16.4921384 Z M37.9764112,0.827944215 L46.8722789,0.827944215 L46.8722789,4.95329545 L47.000936,4.95329545 C47.3879814,4.39542355 47.8926715,3.82519628 48.5160806,3.24529959 C49.1386839,2.6651343 49.8697996,2.13895661 50.7078161,1.66596074 C51.545564,1.19350207 52.45825,0.806725207 53.4472169,0.50536157 C54.4353781,0.205340909 55.4880021,0.0543904959 56.6061632,0.0543904959 C58.9268244,0.0543904959 61.0320723,0.451911157 62.9235186,1.24668388 C64.8141591,2.04253099 66.4367417,3.15934917 67.7904607,4.5990186 C69.1441798,6.03922521 70.1855227,7.74722107 70.916907,9.72381198 C71.6469483,11.7006715 72.0127748,13.8714566 72.0127748,16.2342872 C72.0127748,18.4260227 71.6791798,20.521064 71.0136012,22.5194112 C70.3466798,24.5177583 69.402031,26.2904855 68.176969,27.837593 C66.9524442,29.3847004 65.4585186,30.6207748 63.6970723,31.5442045 C61.9342831,32.4679029 59.9362045,32.930155 57.7017624,32.930155 C55.6813905,32.930155 53.802031,32.6180475 52.0612665,31.9957128 C50.3210393,31.3728409 48.891845,30.3092045 47.7744897,28.8045351 L47.6458326,28.8045351 L47.6458326,46.8541219 L37.9764112,46.8541219 L37.9764112,0.827944215 Z" id="Fill-6"></path>
                    <polygon id="Fill-8" points="86.1293781 15.3962438 75.6864029 0.827917355 87.0963202 0.827917355 92.6401219 9.33673967 97.9905351 0.827917355 108.755824 0.827917355 98.5707004 15.3962438 110.625246 32.1565744 99.2153285 32.1565744 92.3822707 21.7138678 85.0335103 32.1565744 73.7525186 32.1565744"></polygon>
                </g>
            </g>
        </g>
    </g>
</svg>