<?xml version="1.0" encoding="UTF-8"?>
<svg width="184px" height="71px" viewBox="0 0 184 71" version="1.1" xmlns="http://www.w3.org/2000/svg" xmlns:xlink="http://www.w3.org/1999/xlink">
    <!-- Generator: Sketch 48.2 (47327) - http://www.bohemiancoding.com/sketch -->
    <title>TissLogo</title>
    <desc>Created with Sketch.</desc>
    <defs>
        <polygon id="path-1" points="0 67.9938744 184.772787 67.9938744 184.772787 0 0 0"></polygon>
        <linearGradient x1="7.87921826%" y1="6.42710875%" x2="104.07868%" y2="114.962786%" id="linearGradient-3">
            <stop stop-color="#61C9A0" offset="0%"></stop>
            <stop stop-color="#03AFC9" offset="100%"></stop>
        </linearGradient>
    </defs>
    <g id="Symbols" stroke="none" stroke-width="1" fill="none" fill-rule="evenodd">
        <g id="TissLogo">
            <g id="Page-1" transform="translate(0.000000, 2.000000)">
                <g id="Group-7">
                    <path d="M104.200641,26.6479609 L95.2254495,26.6479609 L95.2254495,37.6629686 C95.2254495,38.5701202 95.2702121,39.3968124 95.3614372,40.144745 C95.4515291,40.8926776 95.655794,41.5386194 95.9733821,42.0822871 C96.2898369,42.6262381 96.777693,43.0461003 97.4352504,43.3404571 C98.0919579,43.6356639 98.9651126,43.782134 100.052731,43.782134 C100.596966,43.782134 101.310901,43.7260391 102.194822,43.6124326 C103.078742,43.4996761 103.746782,43.2384663 104.200641,42.8305031 L104.200641,51.3297374 C103.067126,51.7377006 101.888849,52.0096761 100.664959,52.1456639 C99.4410697,52.2813683 98.2395613,52.3496455 97.0612841,52.3496455 C95.338206,52.3496455 93.7516822,52.1677619 92.3017129,51.8056945 C90.850327,51.4433438 89.5816746,50.8653959 88.4940559,50.0718507 C87.4061539,49.2794387 86.5562305,48.2476317 85.9442856,46.9781294 C85.3320574,45.709477 85.0263683,44.1679992 85.0263683,42.3542626 L85.0263683,26.6479609 L78.4989564,26.6479609 L78.4989564,18.488696 L85.0263683,18.488696 L85.0263683,8.6975781 L95.2254495,8.6975781 L95.2254495,18.488696 L104.200641,18.488696 L104.200641,26.6479609 Z" id="Fill-1" fill="#171E42"></path>
                    <mask id="mask-2" fill="white">
                        <use xlink:href="#path-1"></use>
                    </mask>
                    <g id="Clip-4"></g>
                    <path d="M109.504135,51.5336907 L119.703216,51.5336907 L119.703216,18.4886677 L109.504135,18.4886677 L109.504135,51.5336907 Z M108.688208,8.0856049 C108.688208,6.45375191 109.266156,5.05987749 110.422052,3.90398162 C111.577665,2.74808576 112.971822,2.17013783 114.603675,2.17013783 C116.235528,2.17013783 117.629119,2.74808576 118.785299,3.90398162 C119.941194,5.05987749 120.519142,6.45375191 120.519142,8.0856049 C120.519142,9.71745789 119.941194,11.1113323 118.785299,12.2672282 C117.629119,13.423124 116.235528,14.0007887 114.603675,14.0007887 C112.971822,14.0007887 111.577665,13.423124 110.422052,12.2672282 C109.266156,11.1113323 108.688208,9.71745789 108.688208,8.0856049 Z" id="Fill-3" fill="#171E42" mask="url(#mask-2)"></path>
                    <path d="M145.744218,28.2116784 C144.248636,26.3534625 142.276814,25.4239296 139.828751,25.4239296 C138.967212,25.4239296 138.128904,25.6279112 137.312978,26.0358744 C136.497051,26.444121 136.089088,27.147291 136.089088,28.1439678 C136.089088,28.9598943 136.507534,29.5610735 137.346975,29.9455222 C138.185283,30.3311041 139.250803,30.6713568 140.54297,30.9657136 C141.83457,31.2609204 143.216829,31.5773752 144.690313,31.9173446 C146.162947,32.2573139 147.546056,32.7907825 148.83794,33.5154839 C150.129823,34.2407519 151.194211,35.2269464 152.033652,36.4729342 C152.871959,37.7203384 153.291822,39.3859051 153.291822,41.4707672 C153.291822,43.6018086 152.826347,45.3577504 151.897947,46.7400092 C150.968131,48.1234012 149.778238,49.2334012 148.327985,50.071709 C146.876883,50.9111501 145.244747,51.4995804 143.432426,51.8395498 C141.618973,52.1798025 139.828751,52.3495038 138.06091,52.3495038 C135.749402,52.3495038 133.414096,52.0203002 131.057541,51.363876 C128.700137,50.7068851 126.705933,49.5393737 125.07408,47.8619081 L131.261523,40.9945268 C132.213437,42.1739372 133.267342,43.06834 134.423238,43.6805681 C135.579134,44.292513 136.927396,44.5982021 138.468874,44.5982021 C139.647434,44.5982021 140.712672,44.4282175 141.664869,44.0882481 C142.6165,43.7482787 143.09274,43.1258515 143.09274,42.2184165 C143.09274,41.3577274 142.672878,40.7120689 141.83457,40.2808744 C140.995129,39.8505299 139.930742,39.4881792 138.638858,39.1929724 C137.346975,38.8986156 135.963866,38.5810276 134.491232,38.2407749 C133.017748,37.9008055 131.635489,37.3908515 130.343889,36.7109127 C129.051722,36.0312573 127.986201,35.0685773 127.147894,33.8214564 C126.308453,32.574902 125.890007,30.9090521 125.890007,28.8236233 C125.890007,26.8753155 126.286355,25.1975666 127.0799,23.7920766 C127.872595,22.3874364 128.916018,21.2318239 130.207618,20.324389 C131.499785,19.4183706 132.983751,18.7500475 134.661217,18.3185697 C136.337832,17.8885084 138.037679,17.6729112 139.760757,17.6729112 C141.936845,17.6729112 144.134747,17.9904992 146.356163,18.6245421 C148.57673,19.2597182 150.458177,20.3923828 151.999655,22.0242358 L145.744218,28.2116784 Z" id="Fill-5" fill="#171E42" mask="url(#mask-2)"></path>
                    <path d="M177.225155,28.2116784 C175.729574,26.3534625 173.757751,25.4239296 171.309688,25.4239296 C170.448149,25.4239296 169.609842,25.6279112 168.793915,26.0358744 C167.977989,26.444121 167.570025,27.147291 167.570025,28.1439678 C167.570025,28.9598943 167.988471,29.5610735 168.827912,29.9455222 C169.66622,30.3311041 170.73174,30.6713568 172.023907,30.9657136 C173.315508,31.2609204 174.697766,31.5773752 176.17125,31.9173446 C177.643884,32.2573139 179.026993,32.7907825 180.318877,33.5154839 C181.61076,34.2407519 182.675148,35.2269464 183.514589,36.4729342 C184.352897,37.7203384 184.772759,39.3859051 184.772759,41.4707672 C184.772759,43.6018086 184.307284,45.3577504 183.378884,46.7400092 C182.449068,48.1234012 181.259175,49.2334012 179.808923,50.071709 C178.35782,50.9111501 176.725684,51.4995804 174.913364,51.8395498 C173.09991,52.1798025 171.309688,52.3495038 169.541848,52.3495038 C167.230339,52.3495038 164.895033,52.0203002 162.538479,51.363876 C160.181074,50.7068851 158.186871,49.5393737 156.555018,47.8619081 L162.74246,40.9945268 C163.694374,42.1739372 164.748279,43.06834 165.904175,43.6805681 C167.060071,44.292513 168.408333,44.5982021 169.949811,44.5982021 C171.128088,44.5982021 172.193609,44.4282175 173.145806,44.0882481 C174.097437,43.7482787 174.573678,43.1258515 174.573678,42.2184165 C174.573678,41.3577274 174.153815,40.7120689 173.315508,40.2808744 C172.476067,39.8505299 171.411679,39.4881792 170.119796,39.1929724 C168.827912,38.8986156 167.444803,38.5810276 165.972169,38.2407749 C164.498685,37.9008055 163.116426,37.3908515 161.824826,36.7109127 C160.532659,36.0312573 159.467139,35.0685773 158.628831,33.8214564 C157.78939,32.574902 157.370944,30.9090521 157.370944,28.8236233 C157.370944,26.8753155 157.767292,25.1975666 158.560837,23.7920766 C159.353532,22.3874364 160.396955,21.2318239 161.688555,20.324389 C162.980722,19.4183706 164.464688,18.7500475 166.142154,18.3185697 C167.81877,17.8885084 169.518616,17.6729112 171.241694,17.6729112 C173.417782,17.6729112 175.615684,17.9904992 177.8371,18.6245421 C180.057667,19.2597182 181.939114,20.3923828 183.480592,22.0242358 L177.225155,28.2116784 Z" id="Fill-6" fill="#171E42" mask="url(#mask-2)"></path>
                </g>
                <g id="Group-10" fill="url(#linearGradient-3)">
                    <path d="M33.1946095,0 C31.3893721,6.62798622 30.7439969,13.6492037 31.442634,20.7811945 C38.2499541,21.1900077 43.6438515,26.8368989 43.6438515,33.7428101 C43.6438515,37.8482236 41.7374732,41.5088438 38.7610413,43.8886294 C41.7553216,49.1476723 45.5272818,53.8443492 49.8927718,57.8579709 L58.0783844,53.1372129 C60.0065773,52.025513 61.194487,49.9686983 61.194487,47.7430322 L61.194487,19.7074579 C61.194487,17.4817917 60.0065773,15.4252603 58.0783844,14.3132772 L33.7617917,0.289257274 C33.5765084,0.182733538 33.3872588,0.0861255743 33.1946095,0 Z M3.1161026,14.3132772 C1.18790965,15.4252603 0,17.4817917 0,19.7074579 L0,47.7430322 C0,49.9686983 1.18790965,52.025513 3.1161026,53.1372129 L27.4326953,67.1612328 C28.3871593,67.7116998 29.4512634,67.9893415 30.5165008,67.9938744 L30.5708959,67.9938744 C31.6361332,67.9893415 32.7002374,67.7116998 33.6547014,67.1612328 L42.7848622,61.8956738 C38.3017994,57.4602067 34.4309648,52.3592496 31.3451761,46.7041424 C31.0802833,46.7200077 30.8128407,46.7282236 30.5436983,46.7282236 C23.3675115,46.7282236 17.5506355,40.914464 17.5506355,33.7428101 C17.5506355,29.063415 20.0270291,24.9625345 23.7411945,22.6770904 C22.9213017,15.5895789 23.2754364,8.58790965 24.6647779,1.88598009 L3.1161026,14.3132772 Z M24.7214395,33.7912557 C24.7214395,37.0827259 27.3907657,39.7509188 30.6845023,39.7509188 C33.9779556,39.7509188 36.6478484,37.0827259 36.6478484,33.7912557 C36.6478484,30.4997856 33.9779556,27.8313093 30.6845023,27.8313093 C27.3907657,27.8313093 24.7214395,30.4997856 24.7214395,33.7912557 Z" id="Fill-8"></path>
                </g>
            </g>
        </g>
    </g>
</svg>