<?xml version="1.0" encoding="UTF-8"?>
<svg width="20px" height="20px" viewBox="0 0 20 20" version="1.1" xmlns="http://www.w3.org/2000/svg" xmlns:xlink="http://www.w3.org/1999/xlink">
    <!-- Generator: Sketch 48.2 (47327) - http://www.bohemiancoding.com/sketch -->
    <title>tiss-state-corrupted</title>
    <desc>Created with Sketch.</desc>
    <defs></defs>
    <g id="Symbols" stroke="none" stroke-width="1" fill="none" fill-rule="evenodd">
        <g id="tiss-state-corrupted" fill-rule="nonzero">
            <g id="228-error-flat">
                <path d="M20,10 C20,15.5228 15.5228,20 10,20 C4.4772,20 0,15.5228 0,10 C0,4.4772 4.4772,0 10,0 C15.5228,0 20,4.4772 20,10" id="Shape" fill="#D75A4A"></path>
                <g id="Group-8" transform="translate(5.000000, 6.000000)" fill="#FFFFFF">
                    <path d="M1.55191526,8.76036009 C1.19689317,9.07987997 0.621288646,9.07987997 0.266266563,8.76036009 C-0.0887555209,8.44084022 -0.0887555209,7.92279615 0.266266563,7.60327627 L8.44808474,0.239639906 C8.80310683,-0.0798799688 9.37871135,-0.0798799688 9.73373344,0.239639906 C10.0887555,0.559159781 10.0887555,1.07720385 9.73373344,1.39672373 L1.55191526,8.76036009 Z" id="Shape"></path>
                    <path d="M0.266266563,1.39672373 C-0.0887555209,1.07720385 -0.0887555209,0.559159781 0.266266563,0.239639906 C0.621288646,-0.0798799688 1.19689317,-0.0798799688 1.55191526,0.239639906 L9.73373344,7.60327627 C10.0887555,7.92279615 10.0887555,8.44084022 9.73373344,8.76036009 C9.37871135,9.07987997 8.80310683,9.07987997 8.44808474,8.76036009 L0.266266563,1.39672373 Z" id="Shape"></path>
                </g>
            </g>
        </g>
    </g>
</svg>