<?xml version="1.0" encoding="UTF-8"?>
<svg width="79px" height="20px" viewBox="0 0 79 20" version="1.1" xmlns="http://www.w3.org/2000/svg" xmlns:xlink="http://www.w3.org/1999/xlink">
    <!-- Generator: Sketch 48.2 (47327) - http://www.bohemiancoding.com/sketch -->
    <title>TKSFooter</title>
    <desc>Created with Sketch.</desc>
    <defs>
        <path d="M2.56287774,16.6081298 L8.01246793,19.7463532 C8.59979126,20.0845489 9.32313058,20.0845489 9.9103183,19.7463532 L16.9732508,15.6790727 C17.5608454,15.340471 17.9227862,14.7149646 17.9227862,14.0378965 L17.9227862,5.90482409 C17.9227862,5.75298112 17.9038009,5.60384479 17.8688138,5.45998643 C15.2087043,11.5190895 9.43365206,15.9077845 2.56287774,16.6081298 M8.50120339,0 C8.52520621,0.294077346 8.54066566,0.59032001 8.54066566,0.890351983 C8.54066566,6.0918535 4.88654091,10.4392721 0,11.5254501 L0,5.90482409 C0,5.227756 0.36194088,4.60224956 0.949671032,4.26391852 L8.01246793,0.196502672 C8.16760483,0.107183276 8.33223436,0.0422237146 8.50120339,0 Z M10.5668023,0.890351983 C10.5668023,0.784116034 10.5653106,0.678015418 10.562734,0.572320799 L16.3235473,3.88985971 C13.9178406,10.2004104 7.79834105,14.6853268 0.627463639,14.6853268 C0.454968772,14.6853268 0.283151951,14.6818081 0.111877567,14.6766655 C0.0393266599,14.4746142 0,14.259165 0,14.0378965 L0,13.5904875 C6.01372435,12.4734537 10.5668023,7.21267659 10.5668023,0.890351983 Z" id="path-1"></path>
    </defs>
    <g id="Symbols" stroke="none" stroke-width="1" fill="none" fill-rule="evenodd">
        <g id="TKSFooter">
            <g id="Group">
                <g id="Group-3-Copy-8">
                    <mask id="mask-2" fill="white">
                        <use xlink:href="#path-1"></use>
                    </mask>
                    <use id="Logo-Final" fill="#1F2337" xlink:href="#path-1"></use>
                    <g id="Group-2" transform="translate(22.500000, 0.000000)" fill="#1F2337">
                        <polygon id="Fill-1-Copy-15" points="0 0.331055716 0 5.01995038 6.58701502 5.01995038 6.58701502 19.4448385 11.0215967 19.4448385 11.0215967 5.01995038 17.6087137 5.01995038 17.6087137 0.331055716"></polygon>
                        <polygon id="Combined-Shape-Copy-22" points="35.5090533 0.331055716 30.343694 0.331055716 24.9697344 9.02014848 24.9697344 0.331055716 20.572748 0.331055716 20.572748 19.4448385 24.9697344 19.4448385 24.9697344 17.5329427 27.8298736 12.8894435 33.2086867 19.4448385 39.0143063 19.4448385 30.3057758 8.79263168"></polygon>
                        <path d="M53.174702,10.2397772 C54.2404565,11.259818 54.7580431,12.5185724 54.7580431,14.1730784 C54.7580431,17.7063547 51.7304062,19.8633429 47.3048148,19.8633429 C43.9767769,19.8633429 41.4046961,18.7267084 39.8285014,16.7431178 L39.6478631,16.5157902 L43.2980876,13.8875045 L43.4456044,14.0753719 C44.3968999,15.2868774 45.5332442,15.8962997 47.1808537,15.8962997 C48.8430499,15.8962997 49.905662,15.1952969 49.905662,14.246796 C49.905662,13.7090087 49.6817267,13.3286334 49.1715536,12.9725028 C48.7286836,12.6633537 48.2302357,12.4411578 46.8885974,11.9178096 L45.8108122,11.5114856 C44.0325345,10.8231252 42.8073079,10.1316134 41.9371354,9.25455548 C40.9351271,8.24461865 40.4310068,6.9932708 40.4310068,5.39507658 C40.4310068,2.23923163 43.1323962,0 47.0566922,0 C49.6575892,0 51.5458458,0.786136874 52.9200159,2.53085156 L53.0969926,2.75554989 L49.5691293,5.35542999 L49.421199,5.15379843 C48.7736286,4.2711488 48.1081838,3.93007858 47.0566922,3.93007858 C45.940189,3.93007858 45.2004131,4.5337057 45.2004131,5.32135903 C45.2004131,6.23466199 45.6881536,6.62337821 47.7211719,7.42899586 L48.7968522,7.83472791 C50.8858527,8.62089775 52.2348293,9.34021864 53.174702,10.2397772 Z" id="Fill-3-Copy-15" fill-rule="nonzero"></path>
                    </g>
                </g>
            </g>
        </g>
    </g>
</svg>