<?xml version="1.0" encoding="UTF-8"?>
<svg width="119px" height="30px" viewBox="0 0 119 30" version="1.1" xmlns="http://www.w3.org/2000/svg" xmlns:xlink="http://www.w3.org/1999/xlink">
    <!-- Generator: Sketch 48.2 (47327) - http://www.bohemiancoding.com/sketch -->
    <title>TKSLogo30</title>
    <desc>Created with Sketch.</desc>
    <defs>
        <linearGradient x1="7.87921826%" y1="6.42710875%" x2="104.07868%" y2="114.962786%" id="linearGradient-1">
            <stop stop-color="#F53F3F" offset="0%"></stop>
            <stop stop-color="#C7054F" offset="100%"></stop>
        </linearGradient>
    </defs>
    <g id="Symbols" stroke="none" stroke-width="1" fill="none" fill-rule="evenodd">
        <g id="TKSLogo30">
            <g id="Group">
                <g id="Group-3-Copy-8">
                    <path d="M3.84431662,24.9121946 L12.0187019,29.6195298 C12.8996869,30.1268234 13.9846959,30.1268234 14.8654774,29.6195298 L25.4598762,23.5186091 C26.341268,23.0107065 26.8841794,22.0724468 26.8841794,21.0568447 L26.8841794,8.85723614 C26.8841794,8.62947168 26.8557014,8.40576719 26.8032207,8.18997965 C22.8130564,17.2786342 14.1504781,23.8616767 3.84431662,24.9121946 M12.7518051,0 C12.7878093,0.441116019 12.8109985,0.885480016 12.8109985,1.33552797 C12.8109985,9.13778024 7.32981136,15.6589082 0,17.2881752 L0,8.85723614 C0,7.841634 0.542911321,6.90337434 1.42450655,6.39587777 L12.0187019,0.294754008 C12.2514072,0.160774913 12.4983515,0.063335572 12.7518051,0 Z M15.8502035,1.33552797 C15.8502035,1.17617405 15.8479659,1.01702313 15.844101,0.858481198 L24.4853209,5.83478957 C20.8767608,15.3006156 11.6975116,22.0279901 0.941195459,22.0279901 C0.682453159,22.0279901 0.424727927,22.0227122 0.167816351,22.0149982 C0.0589899899,21.7119213 0,21.3887474 0,21.0568447 L0,20.3857312 C9.02058652,18.7101806 15.8502035,10.8190149 15.8502035,1.33552797 Z" id="Logo-Final" fill="url(#linearGradient-1)"></path>
                    <g id="Group-2" transform="translate(33.750000, 0.000000)" fill="#F6F9FC">
                        <polygon id="Fill-1-Copy-15" points="0 0.496583573 0 7.52992557 9.88052253 7.52992557 9.88052253 29.1672578 16.5323951 29.1672578 16.5323951 7.52992557 26.4130706 7.52992557 26.4130706 0.496583573"></polygon>
                        <polygon id="Combined-Shape-Copy-22" points="53.2635799 0.496583573 45.5155409 0.496583573 37.4546016 13.5302227 37.4546016 0.496583573 30.8591221 0.496583573 30.8591221 29.1672578 37.4546016 29.1672578 37.4546016 26.299414 41.7448104 19.3341653 49.8130301 29.1672578 58.5214595 29.1672578 45.4586637 13.1889475"></polygon>
                        <path d="M79.762053,15.3596658 C81.3606847,16.8897269 82.1370646,18.7778587 82.1370646,21.2596176 C82.1370646,26.559532 77.5956093,29.7950144 70.9572222,29.7950144 C65.9651653,29.7950144 62.1070442,28.0900625 59.7427522,25.1146767 L59.4717946,24.7736853 L64.9471314,20.8312567 L65.1684066,21.1130578 C66.5953499,22.9303162 68.2998663,23.8444495 70.7712805,23.8444495 C73.2645749,23.8444495 74.8584931,22.7929454 74.8584931,21.3701939 C74.8584931,20.563513 74.5225901,19.9929501 73.7573304,19.4587542 C73.0930254,18.9950305 72.3453535,18.6617366 70.3328961,17.8767143 L68.7162183,17.2672284 C66.0488018,16.2346877 64.2109619,15.1974201 62.9057031,13.8818332 C61.4026907,12.366928 60.6465102,10.4899062 60.6465102,8.09261487 C60.6465102,3.35884744 64.6985943,0 70.5850383,0 C74.4863838,0 77.3187686,1.17920531 79.3800239,3.79627734 L79.6454889,4.13332484 L74.3536939,8.03314498 L74.1317984,7.73069764 C73.1604429,6.40672321 72.1622756,5.89511787 70.5850383,5.89511787 C68.9102835,5.89511787 67.8006197,6.80055855 67.8006197,7.98203854 C67.8006197,9.35199298 68.5322304,9.93506731 71.5817578,11.1434938 L73.1952783,11.7520919 C76.3287791,12.9313466 78.3522439,14.010328 79.762053,15.3596658 Z" id="Fill-3-Copy-15" fill-rule="nonzero"></path>
                    </g>
                </g>
            </g>
        </g>
    </g>
</svg>