<?xml version="1.0" encoding="UTF-8"?>
<svg width="427px" height="80px" viewBox="0 0 427 80" version="1.1" xmlns="http://www.w3.org/2000/svg" xmlns:xlink="http://www.w3.org/1999/xlink">
    <!-- Generator: Sketch 48.2 (47327) - http://www.bohemiancoding.com/sketch -->
    <title>TKSSignature</title>
    <desc>Created with Sketch.</desc>
    <defs>
        <linearGradient x1="7.87921826%" y1="6.42710875%" x2="104.07868%" y2="114.962786%" id="linearGradient-1">
            <stop stop-color="#F53F3F" offset="0%"></stop>
            <stop stop-color="#C7054F" offset="100%"></stop>
        </linearGradient>
    </defs>
    <g id="Symbols" stroke="none" stroke-width="1" fill="none" fill-rule="evenodd">
        <g id="TKSSignature">
            <g id="Group">
                <g id="Group-3-Copy-8">
                    <path d="M9.3851861,65.003614 L29.3414319,76.4956999 C31.4921933,77.7341631 34.1410416,77.7341631 36.2913064,76.4956999 L62.1555663,61.6014332 C64.307321,60.3614833 65.6327383,58.0708963 65.6327383,55.5914921 L65.6327383,25.8084102 C65.6327383,25.2523655 65.5632147,24.7062324 65.4350927,24.1794272 C55.6938466,46.3676919 34.5457681,62.4389694 9.3851861,65.003614 M31.1311673,4.18511066 C31.219065,5.26201362 31.2756771,6.34684591 31.2756771,7.44555454 C31.2756771,26.4933066 17.8943752,42.4134311 0,46.3909843 L0,25.8084102 C0,23.3290059 1.32541731,21.0384189 3.47766857,19.7994602 L29.3414319,4.90469791 C29.9095388,4.5776128 30.5124075,4.33973272 31.1311673,4.18511066 Z M38.6953324,7.44555454 C38.6953324,7.05652149 38.6898698,6.66798402 38.6804345,6.28093331 L59.7763703,18.4296674 C50.9667401,41.5387262 28.5573053,57.9623636 2.29775417,57.9623636 C1.66608283,57.9623636 1.03689447,57.9494784 0.409692499,57.9306462 C0.144013121,57.19074 0,56.4017711 0,55.5914921 L0,53.953093 C22.0220892,49.8625467 38.6953324,30.5977292 38.6953324,7.44555454 Z" id="Logo-Final" fill="url(#linearGradient-1)"></path>
                    <g id="Group-2" transform="translate(81.904762, 0.000000)" fill="#F6F9FC">
                        <polygon id="Fill-1-Copy-15" points="0 1.31622957 0 19.9585955 26.1890175 19.9585955 26.1890175 77.3098611 43.8202718 77.3098611 43.8202718 19.9585955 70.0096947 19.9585955 70.0096947 1.31622957"></polygon>
                        <polygon id="Combined-Shape-Copy-22" points="141.178852 1.31622957 120.642131 1.31622957 99.2760465 35.8628036 99.2760465 1.31622957 81.7942658 1.31622957 81.7942658 77.3098611 99.2760465 77.3098611 99.2760465 69.7084401 110.647546 51.2465603 132.032928 77.3098611 155.11523 77.3098611 120.491374 34.9582298"></polygon>
                        <path d="M211.414912,40.7118706 C215.652197,44.767405 217.710047,49.7720305 217.710047,56.3501065 C217.710047,70.3979011 205.672601,78.9737739 188.077091,78.9737739 C174.845294,78.9737739 164.619074,74.4546795 158.352352,66.5682108 L157.63416,65.6643892 L172.146924,55.214706 L172.733429,55.9616395 C176.515642,60.7784101 181.033583,63.2013846 187.584239,63.2013846 C194.192891,63.2013846 198.417682,60.4142993 198.417682,56.6431968 C198.417682,54.5050325 197.527348,52.9927155 195.498974,51.5767917 C193.738187,50.3476596 191.75643,49.4642409 186.422271,47.3834843 L182.137153,45.7679991 C175.066978,43.0311777 170.195655,40.2818271 166.735975,36.7947719 C162.752135,32.7794094 160.747826,27.8042316 160.747826,21.4500429 C160.747826,8.90286056 171.488159,0 187.090591,0 C197.431381,0 204.938815,3.12556632 210.402317,10.0622992 L211.10595,10.9556672 L197.079677,21.2924138 L196.491527,20.4907559 C193.916882,16.9814689 191.271169,15.6254231 187.090591,15.6254231 C182.651536,15.6254231 179.710294,18.0253571 179.710294,21.1569526 C179.710294,24.7881129 181.64948,26.3335922 189.732466,29.5366113 L194.009215,31.1497432 C202.314779,34.2754405 207.678114,37.1353562 211.414912,40.7118706 Z" id="Fill-3-Copy-15" fill-rule="nonzero"></path>
                    </g>
                    <path d="M339.078095,16.2423608 L335.358095,16.2423608 L335.358095,14.2880751 L344.958095,14.2880751 L344.958095,16.2423608 L341.238095,16.2423608 L341.238095,26.425218 L339.078095,26.425218 L339.078095,16.2423608 Z M347.889524,23.0309323 C347.958096,23.6480782 348.198093,24.1280734 348.609524,24.4709323 C349.020954,24.8137911 349.518092,24.985218 350.100952,24.985218 C350.615241,24.985218 351.046665,24.8795047 351.395238,24.6680751 C351.743811,24.4566455 352.049522,24.1909339 352.312381,23.8709323 L353.786667,24.985218 C353.306664,25.5795067 352.769527,26.0023596 352.175238,26.2537894 C351.580949,26.5052192 350.958098,26.6309323 350.306667,26.6309323 C349.689521,26.6309323 349.106669,26.5280761 348.558095,26.3223608 C348.009521,26.1166455 347.53524,25.8252199 347.135238,25.4480751 C346.735236,25.0709304 346.418096,24.6166492 346.18381,24.085218 C345.949523,23.5537867 345.832381,22.9623641 345.832381,22.3109323 C345.832381,21.6595004 345.949523,21.0680778 346.18381,20.5366465 C346.418096,20.0052153 346.735236,19.5509341 347.135238,19.1737894 C347.53524,18.7966447 348.009521,18.505219 348.558095,18.2995037 C349.106669,18.0937884 349.689521,17.9909323 350.306667,17.9909323 C350.878098,17.9909323 351.40095,18.0909313 351.875238,18.2909323 C352.349526,18.4909333 352.755236,18.7795018 353.092381,19.1566465 C353.429525,19.5337913 353.69238,19.9995009 353.880952,20.5537894 C354.069525,21.1080779 354.16381,21.7452144 354.16381,22.465218 L354.16381,23.0309323 L347.889524,23.0309323 Z M352.106667,21.4880751 C352.095238,20.8823578 351.906668,20.4052197 351.540952,20.0566465 C351.175236,19.7080734 350.66667,19.5337894 350.015238,19.5337894 C349.398092,19.5337894 348.909526,19.7109305 348.549524,20.065218 C348.189522,20.4195055 347.969524,20.8937864 347.889524,21.4880751 L352.106667,21.4880751 Z M361.706667,20.665218 C361.466665,20.4137881 361.215239,20.2137901 360.952381,20.065218 C360.689522,19.9166458 360.420954,19.8423608 360.146667,19.8423608 C359.769522,19.8423608 359.432382,19.9109316 359.135238,20.0480751 C358.838094,20.1852187 358.583811,20.368074 358.372381,20.5966465 C358.160951,20.8252191 358.000953,21.0880736 357.892381,21.385218 C357.783809,21.6823623 357.729524,21.9909307 357.729524,22.3109323 C357.729524,22.6309339 357.783809,22.9395022 357.892381,23.2366465 C358.000953,23.5337909 358.160951,23.7966454 358.372381,24.025218 C358.583811,24.2537905 358.838094,24.4366459 359.135238,24.5737894 C359.432382,24.7109329 359.769522,24.7795037 360.146667,24.7795037 C360.466668,24.7795037 360.763808,24.7137901 361.038095,24.5823608 C361.312382,24.4509316 361.546666,24.2595049 361.740952,24.0080751 L363.112381,25.4823608 C362.906666,25.6880761 362.669525,25.8652172 362.400952,26.0137894 C362.13238,26.1623616 361.860954,26.2823604 361.586667,26.3737894 C361.31238,26.4652184 361.049525,26.5309321 360.798095,26.5709323 C360.546665,26.6109325 360.329525,26.6309323 360.146667,26.6309323 C359.529521,26.6309323 358.946669,26.5280761 358.398095,26.3223608 C357.849521,26.1166455 357.37524,25.8252199 356.975238,25.4480751 C356.575236,25.0709304 356.258096,24.6166492 356.02381,24.085218 C355.789523,23.5537867 355.672381,22.9623641 355.672381,22.3109323 C355.672381,21.6595004 355.789523,21.0680778 356.02381,20.5366465 C356.258096,20.0052153 356.575236,19.5509341 356.975238,19.1737894 C357.37524,18.7966447 357.849521,18.505219 358.398095,18.2995037 C358.946669,18.0937884 359.529521,17.9909323 360.146667,17.9909323 C360.672384,17.9909323 361.20095,18.0909313 361.732381,18.2909323 C362.263812,18.4909333 362.729522,18.8080729 363.129524,19.2423608 L361.706667,20.665218 Z M366.40381,19.345218 L366.438095,19.345218 C366.598096,19.0023591 366.88095,18.6909337 367.286667,18.4109323 C367.692383,18.1309309 368.215235,17.9909323 368.855238,17.9909323 C369.403812,17.9909323 369.869522,18.0823599 370.252381,18.265218 C370.63524,18.448076 370.946665,18.6880736 371.186667,18.985218 C371.426668,19.2823623 371.598095,19.625216 371.700952,20.0137894 C371.80381,20.4023628 371.855238,20.808073 371.855238,21.2309323 L371.855238,26.425218 L369.798095,26.425218 L369.798095,22.2595037 C369.798095,22.0309311 369.786667,21.7766479 369.76381,21.4966465 C369.740952,21.2166451 369.680953,20.9537906 369.58381,20.7080751 C369.486666,20.4623596 369.335239,20.2566474 369.129524,20.0909323 C368.923808,19.9252171 368.643811,19.8423608 368.289524,19.8423608 C367.946665,19.8423608 367.658096,19.8995031 367.42381,20.0137894 C367.189523,20.1280757 366.995239,20.2823599 366.840952,20.4766465 C366.686666,20.6709332 366.575238,20.8937881 366.506667,21.145218 C366.438095,21.3966478 366.40381,21.6595023 366.40381,21.9337894 L366.40381,26.425218 L364.346667,26.425218 L364.346667,13.465218 L366.40381,13.465218 L366.40381,19.345218 Z" id="Combined-Shape" fill="#F6F9FC"></path>
                    <path d="M336.592381,33.3356942 L338.752381,33.3356942 L338.752381,38.4785513 L338.855238,38.4785513 L343.878095,33.3356942 L346.792381,33.3356942 L341.118095,38.9414085 L347.169524,45.472837 L344.135238,45.472837 L338.872381,39.5071227 L338.752381,39.5071227 L338.752381,45.472837 L336.592381,45.472837 L336.592381,33.3356942 Z M348.146667,37.2442656 L350.100952,37.2442656 L350.100952,38.5642656 L350.135238,38.5642656 C350.329525,38.152835 350.626665,37.7956957 351.026667,37.492837 C351.426669,37.1899784 351.96952,37.0385513 352.655238,37.0385513 C353.203812,37.0385513 353.669522,37.129979 354.052381,37.312837 C354.43524,37.4956951 354.746665,37.7356927 354.986667,38.032837 C355.226668,38.3299814 355.398095,38.6728351 355.500952,39.0614085 C355.60381,39.4499818 355.655238,39.8556921 355.655238,40.2785513 L355.655238,45.472837 L353.598095,45.472837 L353.598095,41.3071227 C353.598095,41.0785502 353.586667,40.824267 353.56381,40.5442656 C353.540952,40.2642642 353.480953,40.0014097 353.38381,39.7556942 C353.286666,39.5099787 353.135239,39.3042664 352.929524,39.1385513 C352.723808,38.9728362 352.443811,38.8899799 352.089524,38.8899799 C351.746665,38.8899799 351.458096,38.9471222 351.22381,39.0614085 C350.989523,39.1756947 350.795239,39.3299789 350.640952,39.5242656 C350.486666,39.7185523 350.375238,39.9414072 350.306667,40.192837 C350.238095,40.4442669 350.20381,40.7071214 350.20381,40.9814085 L350.20381,45.472837 L348.146667,45.472837 L348.146667,37.2442656 Z M357.575238,41.3585513 C357.575238,40.7071195 357.69238,40.1156968 357.926667,39.5842656 C358.160954,39.0528344 358.478093,38.5985532 358.878095,38.2214085 C359.278097,37.8442637 359.752378,37.5528381 360.300952,37.3471227 C360.849527,37.1414074 361.432378,37.0385513 362.049524,37.0385513 C362.66667,37.0385513 363.249521,37.1414074 363.798095,37.3471227 C364.346669,37.5528381 364.82095,37.8442637 365.220952,38.2214085 C365.620954,38.5985532 365.938094,39.0528344 366.172381,39.5842656 C366.406668,40.1156968 366.52381,40.7071195 366.52381,41.3585513 C366.52381,42.0099831 366.406668,42.6014058 366.172381,43.132837 C365.938094,43.6642683 365.620954,44.1185494 365.220952,44.4956942 C364.82095,44.8728389 364.346669,45.1642646 363.798095,45.3699799 C363.249521,45.5756952 362.66667,45.6785513 362.049524,45.6785513 C361.432378,45.6785513 360.849527,45.5756952 360.300952,45.3699799 C359.752378,45.1642646 359.278097,44.8728389 358.878095,44.4956942 C358.478093,44.1185494 358.160954,43.6642683 357.926667,43.132837 C357.69238,42.6014058 357.575238,42.0099831 357.575238,41.3585513 Z M359.632381,41.3585513 C359.632381,41.6785529 359.686666,41.9871213 359.795238,42.2842656 C359.90381,42.5814099 360.063808,42.8442645 360.275238,43.072837 C360.486668,43.3014096 360.740951,43.4842649 361.038095,43.6214085 C361.33524,43.758552 361.672379,43.8271227 362.049524,43.8271227 C362.426669,43.8271227 362.763808,43.758552 363.060952,43.6214085 C363.358097,43.4842649 363.61238,43.3014096 363.82381,43.072837 C364.035239,42.8442645 364.195238,42.5814099 364.30381,42.2842656 C364.412381,41.9871213 364.466667,41.6785529 364.466667,41.3585513 C364.466667,41.0385497 364.412381,40.7299814 364.30381,40.432837 C364.195238,40.1356927 364.035239,39.8728382 363.82381,39.6442656 C363.61238,39.415693 363.358097,39.2328377 363.060952,39.0956942 C362.763808,38.9585506 362.426669,38.8899799 362.049524,38.8899799 C361.672379,38.8899799 361.33524,38.9585506 361.038095,39.0956942 C360.740951,39.2328377 360.486668,39.415693 360.275238,39.6442656 C360.063808,39.8728382 359.90381,40.1356927 359.795238,40.432837 C359.686666,40.7299814 359.632381,41.0385497 359.632381,41.3585513 Z M367.329524,37.2442656 L369.558095,37.2442656 L371.340952,43.0042656 L371.375238,43.0042656 L373.038095,37.2442656 L375.266667,37.2442656 L377.049524,43.0042656 L377.08381,43.0042656 L378.798095,37.2442656 L380.872381,37.2442656 L378.078095,45.472837 L376.038095,45.472837 L374.08381,39.8499799 L374.049524,39.8499799 L372.318095,45.472837 L370.192381,45.472837 L367.329524,37.2442656 Z M382.12381,32.512837 L384.180952,32.512837 L384.180952,45.472837 L382.12381,45.472837 L382.12381,32.512837 Z M388.192381,42.0785513 C388.260953,42.6956973 388.50095,43.1756925 388.912381,43.5185513 C389.323812,43.8614102 389.820949,44.032837 390.40381,44.032837 C390.918098,44.032837 391.349522,43.9271238 391.698095,43.7156942 C392.046668,43.5042645 392.35238,43.2385529 392.615238,42.9185513 L394.089524,44.032837 C393.609521,44.6271257 393.072384,45.0499786 392.478095,45.3014085 C391.883807,45.5528383 391.260956,45.6785513 390.609524,45.6785513 C389.992378,45.6785513 389.409527,45.5756952 388.860952,45.3699799 C388.312378,45.1642646 387.838097,44.8728389 387.438095,44.4956942 C387.038093,44.1185494 386.720954,43.6642683 386.486667,43.132837 C386.25238,42.6014058 386.135238,42.0099831 386.135238,41.3585513 C386.135238,40.7071195 386.25238,40.1156968 386.486667,39.5842656 C386.720954,39.0528344 387.038093,38.5985532 387.438095,38.2214085 C387.838097,37.8442637 388.312378,37.5528381 388.860952,37.3471227 C389.409527,37.1414074 389.992378,37.0385513 390.609524,37.0385513 C391.180955,37.0385513 391.703807,37.1385503 392.178095,37.3385513 C392.652383,37.5385523 393.058094,37.8271209 393.395238,38.2042656 C393.732383,38.5814103 393.995237,39.04712 394.18381,39.6014085 C394.372382,40.1556969 394.466667,40.7928334 394.466667,41.512837 L394.466667,42.0785513 L388.192381,42.0785513 Z M392.409524,40.5356942 C392.398095,39.9299769 392.209526,39.4528388 391.84381,39.1042656 C391.478093,38.7556924 390.969527,38.5814085 390.318095,38.5814085 C389.700949,38.5814085 389.212383,38.7585495 388.852381,39.112837 C388.492379,39.4671245 388.272381,39.9414055 388.192381,40.5356942 L392.409524,40.5356942 Z M402.900952,44.2385513 L402.866667,44.2385513 C402.569522,44.741411 402.169526,45.1071216 401.666667,45.3356942 C401.163807,45.5642667 400.620955,45.6785513 400.038095,45.6785513 C399.398092,45.6785513 398.829526,45.5671239 398.332381,45.3442656 C397.835236,45.1214073 397.409526,44.8156961 397.055238,44.4271227 C396.700951,44.0385494 396.432382,43.5814111 396.249524,43.0556942 C396.066666,42.5299773 395.975238,41.9642686 395.975238,41.3585513 C395.975238,40.752834 396.07238,40.1871254 396.266667,39.6614085 C396.460953,39.1356915 396.732379,38.6785533 397.080952,38.2899799 C397.429526,37.9014065 397.849521,37.5956953 398.340952,37.372837 C398.832383,37.1499788 399.369521,37.0385513 399.952381,37.0385513 C400.340954,37.0385513 400.683808,37.0785509 400.980952,37.1585513 C401.278097,37.2385517 401.540951,37.3414078 401.769524,37.4671227 C401.998096,37.5928377 402.19238,37.727122 402.352381,37.8699799 C402.512382,38.0128377 402.643809,38.1528363 402.746667,38.2899799 L402.798095,38.2899799 L402.798095,32.512837 L404.855238,32.512837 L404.855238,45.472837 L402.900952,45.472837 L402.900952,44.2385513 Z M398.032381,41.3585513 C398.032381,41.6785529 398.086666,41.9871213 398.195238,42.2842656 C398.30381,42.5814099 398.463808,42.8442645 398.675238,43.072837 C398.886668,43.3014096 399.140951,43.4842649 399.438095,43.6214085 C399.73524,43.758552 400.072379,43.8271227 400.449524,43.8271227 C400.826669,43.8271227 401.163808,43.758552 401.460952,43.6214085 C401.758097,43.4842649 402.01238,43.3014096 402.22381,43.072837 C402.435239,42.8442645 402.595238,42.5814099 402.70381,42.2842656 C402.812381,41.9871213 402.866667,41.6785529 402.866667,41.3585513 C402.866667,41.0385497 402.812381,40.7299814 402.70381,40.432837 C402.595238,40.1356927 402.435239,39.8728382 402.22381,39.6442656 C402.01238,39.415693 401.758097,39.2328377 401.460952,39.0956942 C401.163808,38.9585506 400.826669,38.8899799 400.449524,38.8899799 C400.072379,38.8899799 399.73524,38.9585506 399.438095,39.0956942 C399.140951,39.2328377 398.886668,39.415693 398.675238,39.6442656 C398.463808,39.8728382 398.30381,40.1356927 398.195238,40.432837 C398.086666,40.7299814 398.032381,41.0385497 398.032381,41.3585513 Z M415.655238,37.2442656 L415.655238,44.7356942 C415.655238,45.478555 415.56381,46.1499769 415.380952,46.7499799 C415.198094,47.3499829 414.91524,47.8585492 414.532381,48.2756942 C414.149522,48.6928391 413.66667,49.015693 413.08381,49.2442656 C412.500949,49.4728382 411.809528,49.5871227 411.009524,49.5871227 C410.243806,49.5871227 409.518099,49.4899809 408.832381,49.2956942 C408.146663,49.1014075 407.512384,48.7471253 406.929524,48.232837 L408.16381,46.552837 C408.57524,46.9299818 409.003807,47.2214074 409.449524,47.4271227 C409.89524,47.6328381 410.409521,47.7356942 410.992381,47.7356942 C411.483812,47.7356942 411.898094,47.6671234 412.235238,47.5299799 C412.572383,47.3928363 412.840951,47.2042668 413.040952,46.9642656 C413.240953,46.7242644 413.383809,46.4356959 413.469524,46.0985513 C413.555239,45.7614068 413.598095,45.3871248 413.598095,44.9756942 L413.598095,44.3756942 L413.56381,44.3756942 C413.266665,44.7756962 412.872383,45.0756932 412.380952,45.2756942 C411.889521,45.4756952 411.386669,45.5756942 410.872381,45.5756942 C410.255235,45.5756942 409.695241,45.4642667 409.192381,45.2414085 C408.689521,45.0185502 408.258097,44.7185532 407.898095,44.3414085 C407.538093,43.9642637 407.260953,43.5185539 407.066667,43.0042656 C406.87238,42.4899773 406.775238,41.9414114 406.775238,41.3585513 C406.775238,40.752834 406.866666,40.1871254 407.049524,39.6614085 C407.232382,39.1356915 407.500951,38.6785533 407.855238,38.2899799 C408.209526,37.9014065 408.635236,37.5956953 409.132381,37.372837 C409.629526,37.1499788 410.198092,37.0385513 410.838095,37.0385513 C411.420955,37.0385513 411.963807,37.1528359 412.466667,37.3814085 C412.969526,37.609981 413.369522,37.9756917 413.666667,38.4785513 L413.700952,38.4785513 L413.700952,37.2442656 L415.655238,37.2442656 Z M411.266667,38.8899799 C410.900951,38.8899799 410.569525,38.9499793 410.272381,39.0699799 C409.975237,39.1899805 409.720953,39.3556931 409.509524,39.5671227 C409.298094,39.7785524 409.132382,40.0356927 409.012381,40.3385513 C408.89238,40.64141 408.832381,40.9756923 408.832381,41.3414085 C408.832381,41.6728387 408.89238,41.981407 409.012381,42.2671227 C409.132382,42.5528385 409.300951,42.8042645 409.518095,43.0214085 C409.735239,43.2385524 409.992379,43.4099793 410.289524,43.5356942 C410.586668,43.6614091 410.906665,43.7242656 411.249524,43.7242656 C411.626669,43.7242656 411.966665,43.6614091 412.269524,43.5356942 C412.572382,43.4099793 412.829523,43.2414095 413.040952,43.0299799 C413.252382,42.8185503 413.415238,42.5642671 413.529524,42.2671227 C413.64381,41.9699784 413.700952,41.6499816 413.700952,41.3071227 C413.700952,40.5871191 413.483812,40.0042678 413.049524,39.5585513 C412.615236,39.1128348 412.020956,38.8899799 411.266667,38.8899799 Z M419.632381,42.0785513 C419.700953,42.6956973 419.94095,43.1756925 420.352381,43.5185513 C420.763812,43.8614102 421.260949,44.032837 421.84381,44.032837 C422.358098,44.032837 422.789522,43.9271238 423.138095,43.7156942 C423.486668,43.5042645 423.79238,43.2385529 424.055238,42.9185513 L425.529524,44.032837 C425.049521,44.6271257 424.512384,45.0499786 423.918095,45.3014085 C423.323807,45.5528383 422.700956,45.6785513 422.049524,45.6785513 C421.432378,45.6785513 420.849527,45.5756952 420.300952,45.3699799 C419.752378,45.1642646 419.278097,44.8728389 418.878095,44.4956942 C418.478093,44.1185494 418.160954,43.6642683 417.926667,43.132837 C417.69238,42.6014058 417.575238,42.0099831 417.575238,41.3585513 C417.575238,40.7071195 417.69238,40.1156968 417.926667,39.5842656 C418.160954,39.0528344 418.478093,38.5985532 418.878095,38.2214085 C419.278097,37.8442637 419.752378,37.5528381 420.300952,37.3471227 C420.849527,37.1414074 421.432378,37.0385513 422.049524,37.0385513 C422.620955,37.0385513 423.143807,37.1385503 423.618095,37.3385513 C424.092383,37.5385523 424.498094,37.8271209 424.835238,38.2042656 C425.172383,38.5814103 425.435237,39.04712 425.62381,39.6014085 C425.812382,40.1556969 425.906667,40.7928334 425.906667,41.512837 L425.906667,42.0785513 L419.632381,42.0785513 Z M423.849524,40.5356942 C423.838095,39.9299769 423.649526,39.4528388 423.28381,39.1042656 C422.918093,38.7556924 422.409527,38.5814085 421.758095,38.5814085 C421.140949,38.5814085 420.652383,38.7585495 420.292381,39.112837 C419.932379,39.4671245 419.712381,39.9414055 419.632381,40.5356942 L423.849524,40.5356942 Z" id="Combined-Shape" fill="#9499AB"></path>
                    <path d="M342.540952,54.9890275 C342.31238,54.6575973 342.006669,54.4147426 341.62381,54.2604561 C341.24095,54.1061696 340.838097,54.0290275 340.415238,54.0290275 C340.163808,54.0290275 339.920954,54.0575986 339.686667,54.1147418 C339.45238,54.1718849 339.240953,54.2633126 339.052381,54.3890275 C338.863809,54.5147424 338.712382,54.6775979 338.598095,54.8775989 C338.483809,55.0775999 338.426667,55.3147404 338.426667,55.5890275 C338.426667,56.0004581 338.569522,56.3147407 338.855238,56.5318846 C339.140954,56.7490286 339.495236,56.9375981 339.918095,57.0975989 C340.340954,57.2575997 340.803807,57.4118839 341.306667,57.5604561 C341.809526,57.7090282 342.272379,57.9147405 342.695238,58.1775989 C343.118097,58.4404574 343.47238,58.7890253 343.758095,59.2233132 C344.043811,59.6576011 344.186667,60.2347382 344.186667,60.9547418 C344.186667,61.6061736 344.066668,62.1747394 343.826667,62.6604561 C343.586665,63.1461728 343.263812,63.5490259 342.858095,63.8690275 C342.452379,64.1890291 341.980955,64.4290267 341.44381,64.5890275 C340.906664,64.7490283 340.340955,64.8290275 339.746667,64.8290275 C338.992377,64.8290275 338.26667,64.7033145 337.569524,64.4518846 C336.872377,64.2004548 336.272383,63.7776019 335.769524,63.1833132 L337.398095,61.6061704 C337.660954,62.0061724 338.006665,62.3175978 338.435238,62.5404561 C338.863812,62.7633143 339.318093,62.8747418 339.798095,62.8747418 C340.049525,62.8747418 340.300951,62.8404564 340.552381,62.7718846 C340.803811,62.7033129 341.03238,62.6004568 341.238095,62.4633132 C341.443811,62.3261697 341.609523,62.1518857 341.735238,61.9404561 C341.860953,61.7290264 341.92381,61.4861717 341.92381,61.2118846 C341.92381,60.7661681 341.780954,60.4233144 341.495238,60.1833132 C341.209522,59.943312 340.85524,59.7404569 340.432381,59.5747418 C340.009522,59.4090267 339.546669,59.2518854 339.04381,59.1033132 C338.54095,58.954741 338.078097,58.7518859 337.655238,58.4947418 C337.232379,58.2375976 336.878097,57.8947439 336.592381,57.4661704 C336.306665,57.0375968 336.16381,56.4633168 336.16381,55.7433132 C336.16381,55.1147386 336.29238,54.5718869 336.549524,54.1147418 C336.806668,53.6575966 337.143807,53.2776004 337.560952,52.9747418 C337.978097,52.6718831 338.455235,52.4461711 338.992381,52.2975989 C339.529526,52.1490268 340.078092,52.0747418 340.638095,52.0747418 C341.278098,52.0747418 341.898092,52.1718837 342.498095,52.3661704 C343.098098,52.560457 343.638093,52.8804538 344.118095,53.3261704 L342.540952,54.9890275 Z M353.752381,64.5204561 L351.798095,64.5204561 L351.798095,63.2004561 L351.76381,63.2004561 C351.569523,63.6118867 351.272383,63.969026 350.872381,64.2718846 C350.472379,64.5747433 349.929527,64.7261704 349.24381,64.7261704 C348.695235,64.7261704 348.229526,64.6375998 347.846667,64.4604561 C347.463808,64.2833123 347.152382,64.0433147 346.912381,63.7404561 C346.67238,63.4375974 346.500953,63.0918866 346.398095,62.7033132 C346.295238,62.3147398 346.24381,61.9090296 346.24381,61.4861704 L346.24381,56.2918846 L348.300952,56.2918846 L348.300952,60.4575989 C348.300952,60.6861715 348.312381,60.9404547 348.335238,61.2204561 C348.358095,61.5004575 348.418095,61.763312 348.515238,62.0090275 C348.612381,62.254743 348.760951,62.4604552 348.960952,62.6261704 C349.160953,62.7918855 349.443808,62.8747418 349.809524,62.8747418 C350.152383,62.8747418 350.440951,62.8175995 350.675238,62.7033132 C350.909525,62.5890269 351.103809,62.4347428 351.258095,62.2404561 C351.412382,62.0461694 351.523809,61.8233145 351.592381,61.5718846 C351.660953,61.3204548 351.695238,61.0576003 351.695238,60.7833132 L351.695238,56.2918846 L353.752381,56.2918846 L353.752381,64.5204561 Z M356.08381,56.2918846 L358.038095,56.2918846 L358.038095,57.5261704 L358.072381,57.5261704 C358.369525,57.0233107 358.769521,56.6576001 359.272381,56.4290275 C359.775241,56.2004549 360.318092,56.0861704 360.900952,56.0861704 C361.529527,56.0861704 362.095236,56.1975978 362.598095,56.4204561 C363.100955,56.6433143 363.529522,56.9490256 363.88381,57.3375989 C364.238097,57.7261723 364.506666,58.1833106 364.689524,58.7090275 C364.872382,59.2347444 364.96381,59.800453 364.96381,60.4061704 C364.96381,61.0118877 364.866668,61.5775963 364.672381,62.1033132 C364.478094,62.6290301 364.206668,63.0861684 363.858095,63.4747418 C363.509522,63.8633152 363.089526,64.1690264 362.598095,64.3918846 C362.106664,64.6147429 361.569527,64.7261704 360.986667,64.7261704 C360.598093,64.7261704 360.25524,64.6861708 359.958095,64.6061704 C359.660951,64.52617 359.398096,64.4233138 359.169524,64.2975989 C358.940951,64.171884 358.746667,64.0375996 358.586667,63.8947418 C358.426666,63.7518839 358.295239,63.6118853 358.192381,63.4747418 L358.140952,63.4747418 L358.140952,68.4290275 L356.08381,68.4290275 L356.08381,56.2918846 Z M362.906667,60.4061704 C362.906667,60.0861688 362.852381,59.7776004 362.74381,59.4804561 C362.635238,59.1833117 362.475239,58.9204572 362.26381,58.6918846 C362.05238,58.4633121 361.798097,58.2804568 361.500952,58.1433132 C361.203808,58.0061697 360.866669,57.9375989 360.489524,57.9375989 C360.112379,57.9375989 359.77524,58.0061697 359.478095,58.1433132 C359.180951,58.2804568 358.926668,58.4633121 358.715238,58.6918846 C358.503808,58.9204572 358.34381,59.1833117 358.235238,59.4804561 C358.126666,59.7776004 358.072381,60.0861688 358.072381,60.4061704 C358.072381,60.726172 358.126666,61.0347403 358.235238,61.3318846 C358.34381,61.629029 358.503808,61.8918835 358.715238,62.1204561 C358.926668,62.3490286 359.180951,62.531884 359.478095,62.6690275 C359.77524,62.806171 360.112379,62.8747418 360.489524,62.8747418 C360.866669,62.8747418 361.203808,62.806171 361.500952,62.6690275 C361.798097,62.531884 362.05238,62.3490286 362.26381,62.1204561 C362.475239,61.8918835 362.635238,61.629029 362.74381,61.3318846 C362.852381,61.0347403 362.906667,60.726172 362.906667,60.4061704 Z M366.88381,56.2918846 L368.838095,56.2918846 L368.838095,57.5261704 L368.872381,57.5261704 C369.169525,57.0233107 369.569521,56.6576001 370.072381,56.4290275 C370.575241,56.2004549 371.118092,56.0861704 371.700952,56.0861704 C372.329527,56.0861704 372.895236,56.1975978 373.398095,56.4204561 C373.900955,56.6433143 374.329522,56.9490256 374.68381,57.3375989 C375.038097,57.7261723 375.306666,58.1833106 375.489524,58.7090275 C375.672382,59.2347444 375.76381,59.800453 375.76381,60.4061704 C375.76381,61.0118877 375.666668,61.5775963 375.472381,62.1033132 C375.278094,62.6290301 375.006668,63.0861684 374.658095,63.4747418 C374.309522,63.8633152 373.889526,64.1690264 373.398095,64.3918846 C372.906664,64.6147429 372.369527,64.7261704 371.786667,64.7261704 C371.398093,64.7261704 371.05524,64.6861708 370.758095,64.6061704 C370.460951,64.52617 370.198096,64.4233138 369.969524,64.2975989 C369.740951,64.171884 369.546667,64.0375996 369.386667,63.8947418 C369.226666,63.7518839 369.095239,63.6118853 368.992381,63.4747418 L368.940952,63.4747418 L368.940952,68.4290275 L366.88381,68.4290275 L366.88381,56.2918846 Z M373.706667,60.4061704 C373.706667,60.0861688 373.652381,59.7776004 373.54381,59.4804561 C373.435238,59.1833117 373.275239,58.9204572 373.06381,58.6918846 C372.85238,58.4633121 372.598097,58.2804568 372.300952,58.1433132 C372.003808,58.0061697 371.666669,57.9375989 371.289524,57.9375989 C370.912379,57.9375989 370.57524,58.0061697 370.278095,58.1433132 C369.980951,58.2804568 369.726668,58.4633121 369.515238,58.6918846 C369.303808,58.9204572 369.14381,59.1833117 369.035238,59.4804561 C368.926666,59.7776004 368.872381,60.0861688 368.872381,60.4061704 C368.872381,60.726172 368.926666,61.0347403 369.035238,61.3318846 C369.14381,61.629029 369.303808,61.8918835 369.515238,62.1204561 C369.726668,62.3490286 369.980951,62.531884 370.278095,62.6690275 C370.57524,62.806171 370.912379,62.8747418 371.289524,62.8747418 C371.666669,62.8747418 372.003808,62.806171 372.300952,62.6690275 C372.598097,62.531884 372.85238,62.3490286 373.06381,62.1204561 C373.275239,61.8918835 373.435238,61.629029 373.54381,61.3318846 C373.652381,61.0347403 373.706667,60.726172 373.706667,60.4061704 Z M377.272381,60.4061704 C377.272381,59.7547385 377.389523,59.1633159 377.62381,58.6318846 C377.858096,58.1004534 378.175236,57.6461722 378.575238,57.2690275 C378.97524,56.8918828 379.449521,56.6004571 379.998095,56.3947418 C380.546669,56.1890265 381.129521,56.0861704 381.746667,56.0861704 C382.363813,56.0861704 382.946664,56.1890265 383.495238,56.3947418 C384.043812,56.6004571 384.518093,56.8918828 384.918095,57.2690275 C385.318097,57.6461722 385.635237,58.1004534 385.869524,58.6318846 C386.103811,59.1633159 386.220952,59.7547385 386.220952,60.4061704 C386.220952,61.0576022 386.103811,61.6490248 385.869524,62.1804561 C385.635237,62.7118873 385.318097,63.1661685 384.918095,63.5433132 C384.518093,63.920458 384.043812,64.2118836 383.495238,64.4175989 C382.946664,64.6233142 382.363813,64.7261704 381.746667,64.7261704 C381.129521,64.7261704 380.546669,64.6233142 379.998095,64.4175989 C379.449521,64.2118836 378.97524,63.920458 378.575238,63.5433132 C378.175236,63.1661685 377.858096,62.7118873 377.62381,62.1804561 C377.389523,61.6490248 377.272381,61.0576022 377.272381,60.4061704 Z M379.329524,60.4061704 C379.329524,60.726172 379.383809,61.0347403 379.492381,61.3318846 C379.600953,61.629029 379.760951,61.8918835 379.972381,62.1204561 C380.183811,62.3490286 380.438094,62.531884 380.735238,62.6690275 C381.032382,62.806171 381.369522,62.8747418 381.746667,62.8747418 C382.123811,62.8747418 382.460951,62.806171 382.758095,62.6690275 C383.05524,62.531884 383.309523,62.3490286 383.520952,62.1204561 C383.732382,61.8918835 383.89238,61.629029 384.000952,61.3318846 C384.109524,61.0347403 384.16381,60.726172 384.16381,60.4061704 C384.16381,60.0861688 384.109524,59.7776004 384.000952,59.4804561 C383.89238,59.1833117 383.732382,58.9204572 383.520952,58.6918846 C383.309523,58.4633121 383.05524,58.2804568 382.758095,58.1433132 C382.460951,58.0061697 382.123811,57.9375989 381.746667,57.9375989 C381.369522,57.9375989 381.032382,58.0061697 380.735238,58.1433132 C380.438094,58.2804568 380.183811,58.4633121 379.972381,58.6918846 C379.760951,58.9204572 379.600953,59.1833117 379.492381,59.4804561 C379.383809,59.7776004 379.329524,60.0861688 379.329524,60.4061704 Z M388.140952,56.2918846 L390.198095,56.2918846 L390.198095,57.5947418 L390.232381,57.5947418 C390.460954,57.1147394 390.786665,56.7433145 391.209524,56.4804561 C391.632383,56.2175976 392.118092,56.0861704 392.666667,56.0861704 C392.792382,56.0861704 392.915237,56.0975988 393.035238,56.1204561 C393.155239,56.1433133 393.278095,56.1718845 393.40381,56.2061704 L393.40381,58.1947418 C393.23238,58.1490273 393.06381,58.1118848 392.898095,58.0833132 C392.73238,58.0547416 392.569525,58.0404561 392.409524,58.0404561 C391.929521,58.0404561 391.543811,58.1290266 391.252381,58.3061704 C390.960951,58.4833141 390.738096,58.6861692 390.58381,58.9147418 C390.429523,59.1433144 390.326667,59.3718835 390.275238,59.6004561 C390.223809,59.8290286 390.198095,60.0004555 390.198095,60.1147418 L390.198095,64.5204561 L388.140952,64.5204561 L388.140952,56.2918846 Z M393.849524,58.0404561 L393.849524,56.2918846 L395.546667,56.2918846 L395.546667,53.9090275 L397.60381,53.9090275 L397.60381,56.2918846 L399.866667,56.2918846 L399.866667,58.0404561 L397.60381,58.0404561 L397.60381,61.6404561 C397.60381,62.0518867 397.680952,62.3775977 397.835238,62.6175989 C397.989525,62.8576001 398.295236,62.9775989 398.752381,62.9775989 C398.935239,62.9775989 399.135237,62.9575991 399.352381,62.9175989 C399.569525,62.8775987 399.740952,62.8118851 399.866667,62.7204561 L399.866667,64.4518846 C399.649523,64.5547423 399.383811,64.6261702 399.069524,64.6661704 C398.755237,64.7061706 398.478096,64.7261704 398.238095,64.7261704 C397.689521,64.7261704 397.240954,64.666171 396.892381,64.5461704 C396.543808,64.4261698 396.269525,64.2433144 396.069524,63.9975989 C395.869523,63.7518834 395.732381,63.4461722 395.658095,63.0804561 C395.583809,62.71474 395.546667,62.291887 395.546667,61.8118846 L395.546667,58.0404561 L393.849524,58.0404561 Z" id="Tech-Knowledge-Suppo" fill="#F6F9FC"></path>
                    <rect id="Rectangle-4-Copy-4" fill="#9499AB" x="316.190476" y="0" width="2.09255533" height="78.9737739"></rect>
                </g>
            </g>
        </g>
    </g>
</svg>