<?xml version="1.0" encoding="UTF-8"?>
<svg width="103px" height="104px" viewBox="0 0 103 104" version="1.1" xmlns="http://www.w3.org/2000/svg" xmlns:xlink="http://www.w3.org/1999/xlink">
    <!-- Generator: Sketch 48.2 (47327) - http://www.bohemiancoding.com/sketch -->
    <title>Tracking</title>
    <desc>Created with Sketch.</desc>
    <defs>
        <linearGradient x1="0%" y1="0%" x2="100%" y2="100%" id="linearGradient-1">
            <stop stop-color="#00B7FF" offset="0%"></stop>
            <stop stop-color="#005DFF" offset="100%"></stop>
        </linearGradient>
    </defs>
    <g id="Symbols" stroke="none" stroke-width="1" fill="none" fill-rule="evenodd">
        <g id="Tracking">
            <g id="tracking">
                <path d="M97.3862573,47.1514839 L91.9318716,47.1514839 C89.6092203,28.5221401 74.9196044,13.7362914 56.3999212,11.39924 L56.3999212,5.84726386 C56.3999212,3.01555328 54.1043662,0.719998292 51.2726556,0.719998292 L51.2726556,0.719998292 C48.4409451,0.719998292 46.1453901,3.01555328 46.1453901,5.84726386 L46.1453901,11.39924 C27.6257069,13.7362914 12.936091,28.5221401 10.6083125,47.1514839 L5.15905396,47.1514839 C2.30978713,47.1514839 -3.4893455e-16,49.4612711 0,52.3105379 L0,52.3105379 C-3.44705141e-15,55.1598047 2.30978713,57.4695919 5.15905396,57.4695919 L10.6083125,57.4695919 C12.936091,76.1040948 27.6257069,90.8899434 46.1453901,93.2269949 L46.1453901,98.7738119 C46.1453901,101.605523 48.4409451,103.901078 51.2726556,103.901078 L51.2726556,103.901078 C54.1043662,103.901078 56.3999212,101.605523 56.3999212,98.7738119 L56.3999212,93.2269949 C74.9196044,90.8899434 89.6092203,76.1040948 91.9318716,57.4695919 L97.3862573,57.4695919 C100.235524,57.4695919 102.545311,55.1598047 102.545311,52.3105379 L102.545311,52.3105379 C102.545311,49.4612711 100.235524,47.1514839 97.3862573,47.1514839 Z M51.2726556,72.9467537 L51.2726556,72.9467537 C48.4409451,72.9467537 46.1453901,75.2423087 46.1453901,78.0740193 L46.1453901,82.8005468 C33.2913353,80.618267 23.1444768,70.4084992 20.9705162,57.4695919 L25.6045394,57.4695919 C28.4538062,57.4695919 30.7635934,55.1598047 30.7635934,52.3105379 L30.7635934,52.3105379 C30.7635934,49.4612711 28.4538062,47.1514839 25.6045394,47.1514839 L20.9705162,47.1514839 C23.1444768,34.2177357 33.2913353,24.0079679 46.1453901,21.825688 L46.1453901,26.5470565 C46.1453901,29.3787671 48.4409451,31.6743221 51.2726556,31.6743221 L51.2726556,31.6743221 C54.1043662,31.6743221 56.3999212,29.3787671 56.3999212,26.5470565 L56.3999212,21.825688 C69.253976,24.0079679 79.4008345,34.2177357 81.5747951,47.1514839 L76.9407718,47.1514839 C74.091505,47.1514839 71.7817179,49.4612711 71.7817179,52.3105379 L71.7817179,52.3105379 C71.7817179,55.1598047 74.091505,57.4695919 76.9407718,57.4695919 L81.5747951,57.4695919 C79.4008345,70.4084992 69.253976,80.618267 56.3999212,82.8005468 L56.3999212,78.0740193 C56.3999212,75.2423087 54.1043662,72.9467537 51.2726556,72.9467537 Z" id="Fill-1" fill="url(#linearGradient-1)"></path>
                <path d="M46.976031,52.3120856 C46.976031,49.9299676 48.9009188,47.9888224 51.2726556,47.9888224 C53.6443924,47.9888224 55.5692803,49.9299676 55.5692803,52.3120856 C55.5692803,54.6942036 53.6443924,56.6353488 51.2726556,56.6353488 C48.9009188,56.6353488 46.976031,54.6942036 46.976031,52.3120856 Z M38.3827817,52.3120856 C38.3827817,59.4627629 44.1660385,65.2818751 51.2726556,65.2818751 C58.3792728,65.2818751 64.1625296,59.4627629 64.1625296,52.3120856 C64.1625296,45.1614083 58.3792728,39.3422961 51.2726556,39.3422961 C44.1660385,39.3422961 38.3827817,45.1614083 38.3827817,52.3120856 Z" id="Fill-4" fill="#171E42"></path>
            </g>
        </g>
    </g>
</svg>